<?xml version="1.0" encoding="UTF-8" standalone="no"?>
<!DOCTYPE svg PUBLIC "-//W3C//DTD SVG 1.1//EN"
 "http://www.w3.org/Graphics/SVG/1.1/DTD/svg11.dtd">
<!-- Generated by graphviz version 2.38.0 (20140413.2041)
 -->
<!-- Title: qms::mm::MMVector&lt; T &gt; Pages: 1 -->
<svg width="140pt" height="152pt"
 viewBox="0.00 0.00 140.00 152.00" xmlns="http://www.w3.org/2000/svg" xmlns:xlink="http://www.w3.org/1999/xlink">
<g id="graph0" class="graph" transform="scale(1 1) rotate(0) translate(4 148)">
<title>qms::mm::MMVector&lt; T &gt;</title>
<polygon fill="white" stroke="none" points="-4,4 -4,-148 136,-148 136,4 -4,4"/>
<!-- Node1 -->
<g id="node1" class="node"><title>Node1</title>
<polygon fill="#bfbfbf" stroke="black" points="0,-0.5 0,-19.5 132,-19.5 132,-0.5 0,-0.5"/>
<text text-anchor="middle" x="66" y="-7.5" font-family="Helvetica,sans-Serif" font-size="10.00">qms::mm::MMVector&lt; T &gt;</text>
</g>
<!-- Node2 -->
<g id="node2" class="node"><title>Node2</title>
<g id="a_node2"><a xlink:href="classqms_1_1mm_1_1_m_m_vector_base.html" target="_top" xlink:title="qms::mm::MMVectorBase">
<polygon fill="white" stroke="black" points="0.5,-57.5 0.5,-76.5 131.5,-76.5 131.5,-57.5 0.5,-57.5"/>
<text text-anchor="middle" x="66" y="-64.5" font-family="Helvetica,sans-Serif" font-size="10.00">qms::mm::MMVectorBase</text>
</a>
</g>
</g>
<!-- Node2&#45;&gt;Node1 -->
<g id="edge1" class="edge"><title>Node2&#45;&gt;Node1</title>
<path fill="none" stroke="darkgreen" d="M66,-47.1166C66,-37.8173 66,-27.0557 66,-19.7149"/>
<polygon fill="darkgreen" stroke="darkgreen" points="62.5001,-47.4062 66,-57.4063 69.5001,-47.4063 62.5001,-47.4062"/>
</g>
<!-- Node3 -->
<g id="node3" class="node"><title>Node3</title>
<g id="a_node3"><a xlink:href="structqms_1_1mm_1_1_m_m_hdr.html" target="_top" xlink:title="qms::mm::MMHdr">
<polygon fill="white" stroke="black" points="18.5,-124.5 18.5,-143.5 113.5,-143.5 113.5,-124.5 18.5,-124.5"/>
<text text-anchor="middle" x="66" y="-131.5" font-family="Helvetica,sans-Serif" font-size="10.00">qms::mm::MMHdr</text>
</a>
</g>
</g>
<!-- Node3&#45;&gt;Node2 -->
<g id="edge2" class="edge"><title>Node3&#45;&gt;Node2</title>
<path fill="none" stroke="#9a32cd" stroke-dasharray="5,2" d="M66,-114.037C66,-101.67 66,-86.1198 66,-76.6273"/>
<polygon fill="#9a32cd" stroke="#9a32cd" points="62.5001,-114.234 66,-124.234 69.5001,-114.234 62.5001,-114.234"/>
<text text-anchor="middle" x="78" y="-98" font-family="Helvetica,sans-Serif" font-size="10.00"> pHdr</text>
</g>
</g>
</svg>
