<?xml version="1.0" encoding="UTF-8" standalone="no"?>
<!DOCTYPE svg PUBLIC "-//W3C//DTD SVG 1.1//EN"
 "http://www.w3.org/Graphics/SVG/1.1/DTD/svg11.dtd">
<!-- Generated by graphviz version 2.38.0 (20140413.2041)
 -->
<!-- Title: S8Table Pages: 1 -->
<svg width="89pt" height="162pt"
 viewBox="0.00 0.00 89.00 162.00" xmlns="http://www.w3.org/2000/svg" xmlns:xlink="http://www.w3.org/1999/xlink">
<g id="graph0" class="graph" transform="scale(1 1) rotate(0) translate(4 158)">
<title>S8Table</title>
<polygon fill="white" stroke="none" points="-4,4 -4,-158 85,-158 85,4 -4,4"/>
<!-- Node1 -->
<g id="node1" class="node"><title>Node1</title>
<polygon fill="#bfbfbf" stroke="black" points="14.5,-0.5 14.5,-19.5 66.5,-19.5 66.5,-0.5 14.5,-0.5"/>
<text text-anchor="middle" x="40.5" y="-7.5" font-family="Helvetica,sans-Serif" font-size="10.00">S8Table</text>
</g>
<!-- Node2 -->
<g id="node2" class="node"><title>Node2</title>
<g id="a_node2"><a xlink:href="struct_s8_table_1_1_entry.html" target="_top" xlink:title="S8Table::Entry">
<polygon fill="white" stroke="black" points="0,-67.5 0,-86.5 81,-86.5 81,-67.5 0,-67.5"/>
<text text-anchor="middle" x="40.5" y="-74.5" font-family="Helvetica,sans-Serif" font-size="10.00">S8Table::Entry</text>
</a>
</g>
</g>
<!-- Node2&#45;&gt;Node1 -->
<g id="edge1" class="edge"><title>Node2&#45;&gt;Node1</title>
<path fill="none" stroke="#9a32cd" stroke-dasharray="5,2" d="M40.5,-57.037C40.5,-44.6703 40.5,-29.1198 40.5,-19.6273"/>
<polygon fill="#9a32cd" stroke="#9a32cd" points="37.0001,-57.2338 40.5,-67.2338 44.0001,-57.2338 37.0001,-57.2338"/>
<text text-anchor="middle" x="47.5" y="-41" font-family="Helvetica,sans-Serif" font-size="10.00"> tbl</text>
</g>
<!-- Node3 -->
<g id="node3" class="node"><title>Node3</title>
<g id="a_node3"><a xlink:href="union_s8_table_1_1_h8.html" target="_top" xlink:title="S8Table::H8">
<polygon fill="white" stroke="black" points="5.5,-134.5 5.5,-153.5 75.5,-153.5 75.5,-134.5 5.5,-134.5"/>
<text text-anchor="middle" x="40.5" y="-141.5" font-family="Helvetica,sans-Serif" font-size="10.00">S8Table::H8</text>
</a>
</g>
</g>
<!-- Node3&#45;&gt;Node2 -->
<g id="edge2" class="edge"><title>Node3&#45;&gt;Node2</title>
<path fill="none" stroke="#9a32cd" stroke-dasharray="5,2" d="M40.5,-124.037C40.5,-111.67 40.5,-96.1198 40.5,-86.6273"/>
<polygon fill="#9a32cd" stroke="#9a32cd" points="37.0001,-124.234 40.5,-134.234 44.0001,-124.234 37.0001,-124.234"/>
<text text-anchor="middle" x="45" y="-108" font-family="Helvetica,sans-Serif" font-size="10.00"> x</text>
</g>
</g>
</svg>
