<?xml version="1.0" encoding="UTF-8" standalone="no"?>
<!DOCTYPE svg PUBLIC "-//W3C//DTD SVG 1.1//EN"
 "http://www.w3.org/Graphics/SVG/1.1/DTD/svg11.dtd">
<!-- Generated by graphviz version 2.38.0 (20140413.2041)
 -->
<!-- Title: qms_mm.h Pages: 1 -->
<svg width="205pt" height="196pt"
 viewBox="0.00 0.00 205.00 196.00" xmlns="http://www.w3.org/2000/svg" xmlns:xlink="http://www.w3.org/1999/xlink">
<g id="graph0" class="graph" transform="scale(1 1) rotate(0) translate(4 192)">
<title>qms_mm.h</title>
<polygon fill="white" stroke="none" points="-4,4 -4,-192 201,-192 201,4 -4,4"/>
<!-- Node1 -->
<g id="node1" class="node"><title>Node1</title>
<polygon fill="#bfbfbf" stroke="black" points="0,-168.5 0,-187.5 65,-187.5 65,-168.5 0,-168.5"/>
<text text-anchor="middle" x="32.5" y="-175.5" font-family="Helvetica,sans-Serif" font-size="10.00">qms_mm.h</text>
</g>
<!-- Node2 -->
<g id="node2" class="node"><title>Node2</title>
<g id="a_node2"><a xlink:href="qms_8h.html" target="_top" xlink:title="QMS API main header. ">
<polygon fill="white" stroke="black" points="40.5,-0.5 40.5,-19.5 84.5,-19.5 84.5,-0.5 40.5,-0.5"/>
<text text-anchor="middle" x="62.5" y="-7.5" font-family="Helvetica,sans-Serif" font-size="10.00">qms.h</text>
</a>
</g>
</g>
<!-- Node1&#45;&gt;Node2 -->
<g id="edge1" class="edge"><title>Node1&#45;&gt;Node2</title>
<path fill="none" stroke="midnightblue" d="M24.5461,-158.991C15.0187,-134.657 2.0423,-90.3687 16.5,-56 22.998,-40.5531 37.674,-27.7585 48.7135,-19.8113"/>
<polygon fill="midnightblue" stroke="midnightblue" points="21.3805,-160.494 28.4491,-168.386 27.8449,-157.809 21.3805,-160.494"/>
</g>
<!-- Node3 -->
<g id="node3" class="node"><title>Node3</title>
<g id="a_node3"><a xlink:href="qms__bank_info_8h.html" target="_top" xlink:title="qms_bankInfo.h">
<polygon fill="white" stroke="black" points="26,-112.5 26,-131.5 111,-131.5 111,-112.5 26,-112.5"/>
<text text-anchor="middle" x="68.5" y="-119.5" font-family="Helvetica,sans-Serif" font-size="10.00">qms_bankInfo.h</text>
</a>
</g>
</g>
<!-- Node1&#45;&gt;Node3 -->
<g id="edge2" class="edge"><title>Node1&#45;&gt;Node3</title>
<path fill="none" stroke="midnightblue" d="M44.1229,-159.566C50.3168,-150.275 57.6677,-139.248 62.6659,-131.751"/>
<polygon fill="midnightblue" stroke="midnightblue" points="41.0795,-157.821 38.4447,-168.083 46.9039,-161.704 41.0795,-157.821"/>
</g>
<!-- Node4 -->
<g id="node4" class="node"><title>Node4</title>
<g id="a_node4"><a xlink:href="qms__server_8h.html" target="_top" xlink:title="qms_server.h">
<polygon fill="white" stroke="black" points="25.5,-56.5 25.5,-75.5 99.5,-75.5 99.5,-56.5 25.5,-56.5"/>
<text text-anchor="middle" x="62.5" y="-63.5" font-family="Helvetica,sans-Serif" font-size="10.00">qms_server.h</text>
</a>
</g>
</g>
<!-- Node3&#45;&gt;Node4 -->
<g id="edge3" class="edge"><title>Node3&#45;&gt;Node4</title>
<path fill="none" stroke="midnightblue" d="M66.4001,-102.101C65.404,-93.1357 64.262,-82.8579 63.4723,-75.7511"/>
<polygon fill="midnightblue" stroke="midnightblue" points="62.9262,-102.531 67.5092,-112.083 69.8834,-101.758 62.9262,-102.531"/>
</g>
<!-- Node5 -->
<g id="node5" class="node"><title>Node5</title>
<g id="a_node5"><a xlink:href="qms__structs_8h.html" target="_top" xlink:title="qms_structs.h">
<polygon fill="white" stroke="black" points="118,-56.5 118,-75.5 197,-75.5 197,-56.5 118,-56.5"/>
<text text-anchor="middle" x="157.5" y="-63.5" font-family="Helvetica,sans-Serif" font-size="10.00">qms_structs.h</text>
</a>
</g>
</g>
<!-- Node3&#45;&gt;Node5 -->
<g id="edge5" class="edge"><title>Node3&#45;&gt;Node5</title>
<path fill="none" stroke="midnightblue" d="M91.738,-106.901C108.058,-96.9986 129.365,-84.0705 143.236,-75.6545"/>
<polygon fill="midnightblue" stroke="midnightblue" points="89.5332,-104.144 82.7994,-112.324 93.1644,-110.129 89.5332,-104.144"/>
</g>
<!-- Node4&#45;&gt;Node2 -->
<g id="edge4" class="edge"><title>Node4&#45;&gt;Node2</title>
<path fill="none" stroke="midnightblue" d="M62.5,-45.8045C62.5,-36.9102 62.5,-26.7798 62.5,-19.7511"/>
<polygon fill="midnightblue" stroke="midnightblue" points="59.0001,-46.083 62.5,-56.083 66.0001,-46.083 59.0001,-46.083"/>
</g>
<!-- Node5&#45;&gt;Node2 -->
<g id="edge6" class="edge"><title>Node5&#45;&gt;Node2</title>
<path fill="none" stroke="midnightblue" d="M133.182,-51.1774C115.701,-41.2407 92.6699,-28.1492 77.7255,-19.6545"/>
<polygon fill="midnightblue" stroke="midnightblue" points="131.813,-54.425 142.237,-56.324 135.273,-48.3395 131.813,-54.425"/>
</g>
</g>
</svg>
