<?xml version="1.0" encoding="UTF-8" standalone="no"?>
<!DOCTYPE svg PUBLIC "-//W3C//DTD SVG 1.1//EN"
 "http://www.w3.org/Graphics/SVG/1.1/DTD/svg11.dtd">
<!-- Generated by graphviz version 2.38.0 (20140413.2041)
 -->
<!-- Title: qms_item.h Pages: 1 -->
<svg width="251pt" height="140pt"
 viewBox="0.00 0.00 250.50 140.00" xmlns="http://www.w3.org/2000/svg" xmlns:xlink="http://www.w3.org/1999/xlink">
<g id="graph0" class="graph" transform="scale(1 1) rotate(0) translate(4 136)">
<title>qms_item.h</title>
<polygon fill="white" stroke="none" points="-4,4 -4,-136 246.5,-136 246.5,4 -4,4"/>
<!-- Node1 -->
<g id="node1" class="node"><title>Node1</title>
<polygon fill="#bfbfbf" stroke="black" points="79.5,-112.5 79.5,-131.5 147.5,-131.5 147.5,-112.5 79.5,-112.5"/>
<text text-anchor="middle" x="113.5" y="-119.5" font-family="Helvetica,sans-Serif" font-size="10.00">qms_item.h</text>
</g>
<!-- Node2 -->
<g id="node2" class="node"><title>Node2</title>
<g id="a_node2"><a xlink:href="qms__cs_8h.html" target="_top" xlink:title="qms_cs.h">
<polygon fill="white" stroke="black" points="0,-56.5 0,-75.5 59,-75.5 59,-56.5 0,-56.5"/>
<text text-anchor="middle" x="29.5" y="-63.5" font-family="Helvetica,sans-Serif" font-size="10.00">qms_cs.h</text>
</a>
</g>
</g>
<!-- Node1&#45;&gt;Node2 -->
<g id="edge1" class="edge"><title>Node1&#45;&gt;Node2</title>
<path fill="none" stroke="midnightblue" d="M100.004,-112.324C86.9004,-103.9 66.7881,-90.9709 51.3931,-81.0741"/>
<polygon fill="midnightblue" stroke="midnightblue" points="53.267,-78.118 42.9626,-75.6545 49.4817,-84.0063 53.267,-78.118"/>
</g>
<!-- Node3 -->
<g id="node3" class="node"><title>Node3</title>
<g id="a_node3"><a xlink:href="qms__string_8h.html" target="_top" xlink:title="qms_string.h">
<polygon fill="white" stroke="black" points="77,-56.5 77,-75.5 150,-75.5 150,-56.5 77,-56.5"/>
<text text-anchor="middle" x="113.5" y="-63.5" font-family="Helvetica,sans-Serif" font-size="10.00">qms_string.h</text>
</a>
</g>
</g>
<!-- Node1&#45;&gt;Node3 -->
<g id="edge2" class="edge"><title>Node1&#45;&gt;Node3</title>
<path fill="none" stroke="midnightblue" d="M113.5,-112.083C113.5,-105.006 113.5,-94.8611 113.5,-85.9865"/>
<polygon fill="midnightblue" stroke="midnightblue" points="117,-85.751 113.5,-75.7511 110,-85.7511 117,-85.751"/>
</g>
<!-- Node6 -->
<g id="node6" class="node"><title>Node6</title>
<g id="a_node6"><a xlink:href="qms__tarray_8h.html" target="_top" xlink:title="qms_tarray.h">
<polygon fill="white" stroke="black" points="168.5,-56.5 168.5,-75.5 242.5,-75.5 242.5,-56.5 168.5,-56.5"/>
<text text-anchor="middle" x="205.5" y="-63.5" font-family="Helvetica,sans-Serif" font-size="10.00">qms_tarray.h</text>
</a>
</g>
</g>
<!-- Node1&#45;&gt;Node6 -->
<g id="edge5" class="edge"><title>Node1&#45;&gt;Node6</title>
<path fill="none" stroke="midnightblue" d="M128.281,-112.324C142.767,-103.822 165.073,-90.7288 181.993,-80.7975"/>
<polygon fill="midnightblue" stroke="midnightblue" points="183.903,-83.735 190.755,-75.6545 180.359,-77.6981 183.903,-83.735"/>
</g>
<!-- Node4 -->
<g id="node4" class="node"><title>Node4</title>
<g id="a_node4"><a xlink:href="qms__exception_8h.html" target="_top" xlink:title="qms_exception.h">
<polygon fill="white" stroke="black" points="24,-0.5 24,-19.5 115,-19.5 115,-0.5 24,-0.5"/>
<text text-anchor="middle" x="69.5" y="-7.5" font-family="Helvetica,sans-Serif" font-size="10.00">qms_exception.h</text>
</a>
</g>
</g>
<!-- Node3&#45;&gt;Node4 -->
<g id="edge3" class="edge"><title>Node3&#45;&gt;Node4</title>
<path fill="none" stroke="midnightblue" d="M106.234,-56.083C99.9552,-48.3768 90.7124,-37.0333 83.0692,-27.6531"/>
<polygon fill="midnightblue" stroke="midnightblue" points="85.6606,-25.2926 76.6305,-19.7511 80.2339,-29.7143 85.6606,-25.2926"/>
</g>
<!-- Node5 -->
<g id="node5" class="node"><title>Node5</title>
<polygon fill="white" stroke="#bfbfbf" points="133,-0.5 133,-19.5 182,-19.5 182,-0.5 133,-0.5"/>
<text text-anchor="middle" x="157.5" y="-7.5" font-family="Helvetica,sans-Serif" font-size="10.00">stdint.h</text>
</g>
<!-- Node3&#45;&gt;Node5 -->
<g id="edge4" class="edge"><title>Node3&#45;&gt;Node5</title>
<path fill="none" stroke="midnightblue" d="M120.766,-56.083C127.045,-48.3768 136.288,-37.0333 143.931,-27.6531"/>
<polygon fill="midnightblue" stroke="midnightblue" points="146.766,-29.7143 150.369,-19.7511 141.339,-25.2926 146.766,-29.7143"/>
</g>
</g>
</svg>
