<?xml version="1.0" encoding="UTF-8" standalone="no"?>
<!DOCTYPE svg PUBLIC "-//W3C//DTD SVG 1.1//EN"
 "http://www.w3.org/Graphics/SVG/1.1/DTD/svg11.dtd">
<!-- Generated by graphviz version 2.38.0 (20140413.2041)
 -->
<!-- Title: qms_cs.h Pages: 1 -->
<svg width="378pt" height="252pt"
 viewBox="0.00 0.00 378.50 252.00" xmlns="http://www.w3.org/2000/svg" xmlns:xlink="http://www.w3.org/1999/xlink">
<g id="graph0" class="graph" transform="scale(1 1) rotate(0) translate(4 248)">
<title>qms_cs.h</title>
<polygon fill="white" stroke="none" points="-4,4 -4,-248 374.499,-248 374.499,4 -4,4"/>
<!-- Node1 -->
<g id="node1" class="node"><title>Node1</title>
<polygon fill="#bfbfbf" stroke="black" points="27.9995,-224.5 27.9995,-243.5 86.9995,-243.5 86.9995,-224.5 27.9995,-224.5"/>
<text text-anchor="middle" x="57.4995" y="-231.5" font-family="Helvetica,sans-Serif" font-size="10.00">qms_cs.h</text>
</g>
<!-- Node2 -->
<g id="node2" class="node"><title>Node2</title>
<g id="a_node2"><a xlink:href="qms_8h.html" target="_top" xlink:title="QMS API main header. ">
<polygon fill="white" stroke="black" points="116.499,-0.5 116.499,-19.5 160.499,-19.5 160.499,-0.5 116.499,-0.5"/>
<text text-anchor="middle" x="138.499" y="-7.5" font-family="Helvetica,sans-Serif" font-size="10.00">qms.h</text>
</a>
</g>
</g>
<!-- Node1&#45;&gt;Node2 -->
<g id="edge1" class="edge"><title>Node1&#45;&gt;Node2</title>
<path fill="none" stroke="midnightblue" d="M41.5635,-217.009C20.2713,-193.611 -12.7757,-148.826 5.49949,-112 28.9568,-64.7321 86.2832,-33.6246 117.465,-19.5902"/>
<polygon fill="midnightblue" stroke="midnightblue" points="39.0872,-219.484 48.5012,-224.345 44.1732,-214.675 39.0872,-219.484"/>
</g>
<!-- Node3 -->
<g id="node3" class="node"><title>Node3</title>
<g id="a_node3"><a xlink:href="qms__item_tree_8h_source.html" target="_top" xlink:title="qms_itemTree.h">
<polygon fill="white" stroke="black" points="14.4995,-112.5 14.4995,-131.5 100.499,-131.5 100.499,-112.5 14.4995,-112.5"/>
<text text-anchor="middle" x="57.4995" y="-119.5" font-family="Helvetica,sans-Serif" font-size="10.00">qms_itemTree.h</text>
</a>
</g>
</g>
<!-- Node1&#45;&gt;Node3 -->
<g id="edge2" class="edge"><title>Node1&#45;&gt;Node3</title>
<path fill="none" stroke="midnightblue" d="M57.4995,-214.348C57.4995,-190.254 57.4995,-149.308 57.4995,-131.591"/>
<polygon fill="midnightblue" stroke="midnightblue" points="53.9996,-214.368 57.4995,-224.368 60.9996,-214.369 53.9996,-214.368"/>
</g>
<!-- Node4 -->
<g id="node4" class="node"><title>Node4</title>
<g id="a_node4"><a xlink:href="qms__item_8h.html" target="_top" xlink:title="qms_item.h">
<polygon fill="white" stroke="black" points="129.499,-168.5 129.499,-187.5 197.499,-187.5 197.499,-168.5 129.499,-168.5"/>
<text text-anchor="middle" x="163.499" y="-175.5" font-family="Helvetica,sans-Serif" font-size="10.00">qms_item.h</text>
</a>
</g>
</g>
<!-- Node1&#45;&gt;Node4 -->
<g id="edge4" class="edge"><title>Node1&#45;&gt;Node4</title>
<path fill="none" stroke="midnightblue" d="M83.5557,-219.726C103.183,-209.727 129.527,-196.307 146.511,-187.655"/>
<polygon fill="midnightblue" stroke="midnightblue" points="81.8519,-216.666 74.5302,-224.324 85.0294,-222.903 81.8519,-216.666"/>
</g>
<!-- Node3&#45;&gt;Node2 -->
<g id="edge3" class="edge"><title>Node3&#45;&gt;Node2</title>
<path fill="none" stroke="midnightblue" d="M66.5336,-103.036C73.6458,-89.5734 84.2145,-70.9732 95.4995,-56 105.775,-42.3656 119.747,-28.4197 128.937,-19.7405"/>
<polygon fill="midnightblue" stroke="midnightblue" points="63.2886,-101.692 61.8139,-112.183 69.5094,-104.901 63.2886,-101.692"/>
</g>
<!-- Node4&#45;&gt;Node3 -->
<g id="edge5" class="edge"><title>Node4&#45;&gt;Node3</title>
<path fill="none" stroke="midnightblue" d="M137.443,-163.726C117.816,-153.727 91.4715,-140.307 74.488,-131.655"/>
<polygon fill="midnightblue" stroke="midnightblue" points="135.97,-166.903 146.469,-168.324 139.147,-160.666 135.97,-166.903"/>
</g>
<!-- Node5 -->
<g id="node5" class="node"><title>Node5</title>
<g id="a_node5"><a xlink:href="qms__plugin_info_8h.html" target="_top" xlink:title="qms_pluginInfo.h">
<polygon fill="white" stroke="black" points="118.999,-112.5 118.999,-131.5 207.999,-131.5 207.999,-112.5 118.999,-112.5"/>
<text text-anchor="middle" x="163.499" y="-119.5" font-family="Helvetica,sans-Serif" font-size="10.00">qms_pluginInfo.h</text>
</a>
</g>
</g>
<!-- Node4&#45;&gt;Node5 -->
<g id="edge6" class="edge"><title>Node4&#45;&gt;Node5</title>
<path fill="none" stroke="midnightblue" d="M163.499,-157.805C163.499,-148.91 163.499,-138.78 163.499,-131.751"/>
<polygon fill="midnightblue" stroke="midnightblue" points="160,-158.083 163.499,-168.083 167,-158.083 160,-158.083"/>
</g>
<!-- Node8 -->
<g id="node8" class="node"><title>Node8</title>
<g id="a_node8"><a xlink:href="qms__server_8h.html" target="_top" xlink:title="qms_server.h">
<polygon fill="white" stroke="black" points="296.499,-56.5 296.499,-75.5 370.499,-75.5 370.499,-56.5 296.499,-56.5"/>
<text text-anchor="middle" x="333.499" y="-63.5" font-family="Helvetica,sans-Serif" font-size="10.00">qms_server.h</text>
</a>
</g>
</g>
<!-- Node4&#45;&gt;Node8 -->
<g id="edge11" class="edge"><title>Node4&#45;&gt;Node8</title>
<path fill="none" stroke="midnightblue" d="M207.889,-175.573C242.433,-172.054 289.124,-161.621 317.499,-132 332.292,-116.558 334.086,-89.735 333.925,-75.8683"/>
<polygon fill="midnightblue" stroke="midnightblue" points="207.256,-172.114 197.592,-176.457 207.855,-179.089 207.256,-172.114"/>
</g>
<!-- Node9 -->
<g id="node9" class="node"><title>Node9</title>
<g id="a_node9"><a xlink:href="qms__bar_data_8h.html" target="_top" xlink:title="qms_barData.h">
<polygon fill="white" stroke="black" points="225.999,-112.5 225.999,-131.5 308.999,-131.5 308.999,-112.5 225.999,-112.5"/>
<text text-anchor="middle" x="267.499" y="-119.5" font-family="Helvetica,sans-Serif" font-size="10.00">qms_barData.h</text>
</a>
</g>
</g>
<!-- Node4&#45;&gt;Node9 -->
<g id="edge13" class="edge"><title>Node4&#45;&gt;Node9</title>
<path fill="none" stroke="midnightblue" d="M189.327,-163.59C208.556,-153.605 234.244,-140.267 250.832,-131.655"/>
<polygon fill="midnightblue" stroke="midnightblue" points="187.471,-160.61 180.209,-168.324 190.697,-166.822 187.471,-160.61"/>
</g>
<!-- Node6 -->
<g id="node6" class="node"><title>Node6</title>
<g id="a_node6"><a xlink:href="qms__msg_8h.html" target="_top" xlink:title="qms_msg.h">
<polygon fill="white" stroke="black" points="104.499,-56.5 104.499,-75.5 172.499,-75.5 172.499,-56.5 104.499,-56.5"/>
<text text-anchor="middle" x="138.499" y="-63.5" font-family="Helvetica,sans-Serif" font-size="10.00">qms_msg.h</text>
</a>
</g>
</g>
<!-- Node5&#45;&gt;Node6 -->
<g id="edge7" class="edge"><title>Node5&#45;&gt;Node6</title>
<path fill="none" stroke="midnightblue" d="M155.158,-102.983C150.915,-93.8168 145.95,-83.0922 142.551,-75.7511"/>
<polygon fill="midnightblue" stroke="midnightblue" points="151.994,-104.479 159.371,-112.083 158.346,-101.538 151.994,-104.479"/>
</g>
<!-- Node7 -->
<g id="node7" class="node"><title>Node7</title>
<g id="a_node7"><a xlink:href="qms__structs_8h.html" target="_top" xlink:title="qms_structs.h">
<polygon fill="white" stroke="black" points="190.999,-56.5 190.999,-75.5 269.999,-75.5 269.999,-56.5 190.999,-56.5"/>
<text text-anchor="middle" x="230.499" y="-63.5" font-family="Helvetica,sans-Serif" font-size="10.00">qms_structs.h</text>
</a>
</g>
</g>
<!-- Node5&#45;&gt;Node7 -->
<g id="edge9" class="edge"><title>Node5&#45;&gt;Node7</title>
<path fill="none" stroke="midnightblue" d="M182.334,-105.82C194.338,-96.1452 209.471,-83.9481 219.539,-75.8339"/>
<polygon fill="midnightblue" stroke="midnightblue" points="179.854,-103.324 174.264,-112.324 184.247,-108.774 179.854,-103.324"/>
</g>
<!-- Node6&#45;&gt;Node2 -->
<g id="edge8" class="edge"><title>Node6&#45;&gt;Node2</title>
<path fill="none" stroke="midnightblue" d="M138.499,-45.8045C138.499,-36.9102 138.499,-26.7798 138.499,-19.7511"/>
<polygon fill="midnightblue" stroke="midnightblue" points="135,-46.083 138.499,-56.083 142,-46.083 135,-46.083"/>
</g>
<!-- Node7&#45;&gt;Node2 -->
<g id="edge10" class="edge"><title>Node7&#45;&gt;Node2</title>
<path fill="none" stroke="midnightblue" d="M206.95,-51.1774C190.021,-41.2407 167.717,-28.1492 153.244,-19.6545"/>
<polygon fill="midnightblue" stroke="midnightblue" points="205.322,-54.2804 215.718,-56.324 208.866,-48.2435 205.322,-54.2804"/>
</g>
<!-- Node8&#45;&gt;Node2 -->
<g id="edge12" class="edge"><title>Node8&#45;&gt;Node2</title>
<path fill="none" stroke="midnightblue" d="M292.855,-53.7447C252.736,-42.6346 192.874,-26.0577 160.762,-17.1649"/>
<polygon fill="midnightblue" stroke="midnightblue" points="292.03,-57.1477 302.601,-56.4435 293.898,-50.4016 292.03,-57.1477"/>
</g>
<!-- Node9&#45;&gt;Node7 -->
<g id="edge14" class="edge"><title>Node9&#45;&gt;Node7</title>
<path fill="none" stroke="midnightblue" d="M255.554,-103.566C249.188,-94.2747 241.633,-83.2484 236.496,-75.7511"/>
<polygon fill="midnightblue" stroke="midnightblue" points="252.85,-105.812 261.39,-112.083 258.625,-101.855 252.85,-105.812"/>
</g>
</g>
</svg>
