<?xml version="1.0" encoding="UTF-8" standalone="no"?>
<!DOCTYPE svg PUBLIC "-//W3C//DTD SVG 1.1//EN"
 "http://www.w3.org/Graphics/SVG/1.1/DTD/svg11.dtd">
<!-- Generated by graphviz version 2.38.0 (20140413.2041)
 -->
<!-- Title: qms_msg.h Pages: 1 -->
<svg width="854pt" height="252pt"
 viewBox="0.00 0.00 854.00 252.00" xmlns="http://www.w3.org/2000/svg" xmlns:xlink="http://www.w3.org/1999/xlink">
<g id="graph0" class="graph" transform="scale(1 1) rotate(0) translate(4 248)">
<title>qms_msg.h</title>
<polygon fill="white" stroke="none" points="-4,4 -4,-248 850,-248 850,4 -4,4"/>
<!-- Node1 -->
<g id="node1" class="node"><title>Node1</title>
<polygon fill="#bfbfbf" stroke="black" points="357,-224.5 357,-243.5 425,-243.5 425,-224.5 357,-224.5"/>
<text text-anchor="middle" x="391" y="-231.5" font-family="Helvetica,sans-Serif" font-size="10.00">qms_msg.h</text>
</g>
<!-- Node2 -->
<g id="node2" class="node"><title>Node2</title>
<g id="a_node2"><a xlink:href="qms__market_depth_8h.html" target="_top" xlink:title="qms_marketDepth.h">
<polygon fill="white" stroke="black" points="0,-168.5 0,-187.5 104,-187.5 104,-168.5 0,-168.5"/>
<text text-anchor="middle" x="52" y="-175.5" font-family="Helvetica,sans-Serif" font-size="10.00">qms_marketDepth.h</text>
</a>
</g>
</g>
<!-- Node1&#45;&gt;Node2 -->
<g id="edge1" class="edge"><title>Node1&#45;&gt;Node2</title>
<path fill="none" stroke="midnightblue" d="M356.943,-227.575C300.292,-218.551 185.877,-200.326 114.433,-188.945"/>
<polygon fill="midnightblue" stroke="midnightblue" points="114.642,-185.434 104.216,-187.318 113.541,-192.347 114.642,-185.434"/>
</g>
<!-- Node4 -->
<g id="node4" class="node"><title>Node4</title>
<g id="a_node4"><a xlink:href="qms__group_8h.html" target="_top" xlink:title="qms_group.h">
<polygon fill="white" stroke="black" points="122.5,-168.5 122.5,-187.5 195.5,-187.5 195.5,-168.5 122.5,-168.5"/>
<text text-anchor="middle" x="159" y="-175.5" font-family="Helvetica,sans-Serif" font-size="10.00">qms_group.h</text>
</a>
</g>
</g>
<!-- Node1&#45;&gt;Node4 -->
<g id="edge3" class="edge"><title>Node1&#45;&gt;Node4</title>
<path fill="none" stroke="midnightblue" d="M356.768,-225.032C316.691,-215.704 250.122,-200.209 205.42,-189.805"/>
<polygon fill="midnightblue" stroke="midnightblue" points="206.206,-186.394 195.673,-187.536 204.619,-193.212 206.206,-186.394"/>
</g>
<!-- Node5 -->
<g id="node5" class="node"><title>Node5</title>
<g id="a_node5"><a xlink:href="qms__account_8h.html" target="_top" xlink:title="qms_account.h">
<polygon fill="white" stroke="black" points="213.5,-168.5 213.5,-187.5 296.5,-187.5 296.5,-168.5 213.5,-168.5"/>
<text text-anchor="middle" x="255" y="-175.5" font-family="Helvetica,sans-Serif" font-size="10.00">qms_account.h</text>
</a>
</g>
</g>
<!-- Node1&#45;&gt;Node5 -->
<g id="edge4" class="edge"><title>Node1&#45;&gt;Node5</title>
<path fill="none" stroke="midnightblue" d="M369.45,-224.444C346.969,-215.517 311.512,-201.439 286.02,-191.317"/>
<polygon fill="midnightblue" stroke="midnightblue" points="287.035,-187.954 276.449,-187.516 284.451,-194.46 287.035,-187.954"/>
</g>
<!-- Node6 -->
<g id="node6" class="node"><title>Node6</title>
<g id="a_node6"><a xlink:href="qms__deal_8h.html" target="_top" xlink:title="qms_deal.h">
<polygon fill="white" stroke="black" points="314.5,-168.5 314.5,-187.5 381.5,-187.5 381.5,-168.5 314.5,-168.5"/>
<text text-anchor="middle" x="348" y="-175.5" font-family="Helvetica,sans-Serif" font-size="10.00">qms_deal.h</text>
</a>
</g>
</g>
<!-- Node1&#45;&gt;Node6 -->
<g id="edge5" class="edge"><title>Node1&#45;&gt;Node6</title>
<path fill="none" stroke="midnightblue" d="M383.899,-224.083C377.763,-216.377 368.73,-205.033 361.261,-195.653"/>
<polygon fill="midnightblue" stroke="midnightblue" points="363.936,-193.394 354.968,-187.751 358.46,-197.754 363.936,-193.394"/>
</g>
<!-- Node7 -->
<g id="node7" class="node"><title>Node7</title>
<g id="a_node7"><a xlink:href="qms__order_8h.html" target="_top" xlink:title="qms_order.h">
<polygon fill="white" stroke="black" points="399.5,-168.5 399.5,-187.5 470.5,-187.5 470.5,-168.5 399.5,-168.5"/>
<text text-anchor="middle" x="435" y="-175.5" font-family="Helvetica,sans-Serif" font-size="10.00">qms_order.h</text>
</a>
</g>
</g>
<!-- Node1&#45;&gt;Node7 -->
<g id="edge6" class="edge"><title>Node1&#45;&gt;Node7</title>
<path fill="none" stroke="midnightblue" d="M398.266,-224.083C404.545,-216.377 413.788,-205.033 421.431,-195.653"/>
<polygon fill="midnightblue" stroke="midnightblue" points="424.266,-197.714 427.869,-187.751 418.839,-193.293 424.266,-197.714"/>
</g>
<!-- Node8 -->
<g id="node8" class="node"><title>Node8</title>
<g id="a_node8"><a xlink:href="qms__limit_8h.html" target="_top" xlink:title="qms_limit.h">
<polygon fill="white" stroke="black" points="488.5,-168.5 488.5,-187.5 555.5,-187.5 555.5,-168.5 488.5,-168.5"/>
<text text-anchor="middle" x="522" y="-175.5" font-family="Helvetica,sans-Serif" font-size="10.00">qms_limit.h</text>
</a>
</g>
</g>
<!-- Node1&#45;&gt;Node8 -->
<g id="edge7" class="edge"><title>Node1&#45;&gt;Node8</title>
<path fill="none" stroke="midnightblue" d="M411.757,-224.444C433.316,-215.557 467.263,-201.563 491.794,-191.451"/>
<polygon fill="midnightblue" stroke="midnightblue" points="493.428,-194.563 501.34,-187.516 490.761,-188.092 493.428,-194.563"/>
</g>
<!-- Node9 -->
<g id="node9" class="node"><title>Node9</title>
<g id="a_node9"><a xlink:href="qms__deposit_8h.html" target="_top" xlink:title="qms_deposit.h">
<polygon fill="white" stroke="black" points="574,-168.5 574,-187.5 654,-187.5 654,-168.5 574,-168.5"/>
<text text-anchor="middle" x="614" y="-175.5" font-family="Helvetica,sans-Serif" font-size="10.00">qms_deposit.h</text>
</a>
</g>
</g>
<!-- Node1&#45;&gt;Node9 -->
<g id="edge8" class="edge"><title>Node1&#45;&gt;Node9</title>
<path fill="none" stroke="midnightblue" d="M425.355,-224.681C463.924,-215.341 526.65,-200.152 569.079,-189.878"/>
<polygon fill="midnightblue" stroke="midnightblue" points="569.974,-193.262 578.87,-187.507 568.327,-186.459 569.974,-193.262"/>
</g>
<!-- Node10 -->
<g id="node10" class="node"><title>Node10</title>
<g id="a_node10"><a xlink:href="qms__plugin_info_8h.html" target="_top" xlink:title="qms_pluginInfo.h">
<polygon fill="white" stroke="black" points="672.5,-168.5 672.5,-187.5 761.5,-187.5 761.5,-168.5 672.5,-168.5"/>
<text text-anchor="middle" x="717" y="-175.5" font-family="Helvetica,sans-Serif" font-size="10.00">qms_pluginInfo.h</text>
</a>
</g>
</g>
<!-- Node1&#45;&gt;Node10 -->
<g id="edge9" class="edge"><title>Node1&#45;&gt;Node10</title>
<path fill="none" stroke="midnightblue" d="M425.352,-227.33C475.139,-219.11 570.524,-203.35 662.207,-188.13"/>
<polygon fill="midnightblue" stroke="midnightblue" points="662.92,-191.56 672.212,-186.469 661.773,-184.654 662.92,-191.56"/>
</g>
<!-- Node3 -->
<g id="node3" class="node"><title>Node3</title>
<g id="a_node3"><a xlink:href="qms__price_vol_8h_source.html" target="_top" xlink:title="qms_priceVol.h">
<polygon fill="white" stroke="black" points="10,-112.5 10,-131.5 94,-131.5 94,-112.5 10,-112.5"/>
<text text-anchor="middle" x="52" y="-119.5" font-family="Helvetica,sans-Serif" font-size="10.00">qms_priceVol.h</text>
</a>
</g>
</g>
<!-- Node2&#45;&gt;Node3 -->
<g id="edge2" class="edge"><title>Node2&#45;&gt;Node3</title>
<path fill="none" stroke="midnightblue" d="M52,-168.083C52,-161.006 52,-150.861 52,-141.986"/>
<polygon fill="midnightblue" stroke="midnightblue" points="55.5001,-141.751 52,-131.751 48.5001,-141.751 55.5001,-141.751"/>
</g>
<!-- Node11 -->
<g id="node11" class="node"><title>Node11</title>
<g id="a_node11"><a xlink:href="qms__item_8h.html" target="_top" xlink:title="qms_item.h">
<polygon fill="white" stroke="black" points="683,-112.5 683,-131.5 751,-131.5 751,-112.5 683,-112.5"/>
<text text-anchor="middle" x="717" y="-119.5" font-family="Helvetica,sans-Serif" font-size="10.00">qms_item.h</text>
</a>
</g>
</g>
<!-- Node10&#45;&gt;Node11 -->
<g id="edge10" class="edge"><title>Node10&#45;&gt;Node11</title>
<path fill="none" stroke="midnightblue" d="M717,-168.083C717,-161.006 717,-150.861 717,-141.986"/>
<polygon fill="midnightblue" stroke="midnightblue" points="720.5,-141.751 717,-131.751 713.5,-141.751 720.5,-141.751"/>
</g>
<!-- Node12 -->
<g id="node12" class="node"><title>Node12</title>
<g id="a_node12"><a xlink:href="qms__cs_8h.html" target="_top" xlink:title="qms_cs.h">
<polygon fill="white" stroke="black" points="603.5,-56.5 603.5,-75.5 662.5,-75.5 662.5,-56.5 603.5,-56.5"/>
<text text-anchor="middle" x="633" y="-63.5" font-family="Helvetica,sans-Serif" font-size="10.00">qms_cs.h</text>
</a>
</g>
</g>
<!-- Node11&#45;&gt;Node12 -->
<g id="edge11" class="edge"><title>Node11&#45;&gt;Node12</title>
<path fill="none" stroke="midnightblue" d="M703.504,-112.324C690.4,-103.9 670.288,-90.9709 654.893,-81.0741"/>
<polygon fill="midnightblue" stroke="midnightblue" points="656.767,-78.118 646.463,-75.6545 652.982,-84.0063 656.767,-78.118"/>
</g>
<!-- Node13 -->
<g id="node13" class="node"><title>Node13</title>
<g id="a_node13"><a xlink:href="qms__string_8h.html" target="_top" xlink:title="qms_string.h">
<polygon fill="white" stroke="black" points="680.5,-56.5 680.5,-75.5 753.5,-75.5 753.5,-56.5 680.5,-56.5"/>
<text text-anchor="middle" x="717" y="-63.5" font-family="Helvetica,sans-Serif" font-size="10.00">qms_string.h</text>
</a>
</g>
</g>
<!-- Node11&#45;&gt;Node13 -->
<g id="edge12" class="edge"><title>Node11&#45;&gt;Node13</title>
<path fill="none" stroke="midnightblue" d="M717,-112.083C717,-105.006 717,-94.8611 717,-85.9865"/>
<polygon fill="midnightblue" stroke="midnightblue" points="720.5,-85.751 717,-75.7511 713.5,-85.7511 720.5,-85.751"/>
</g>
<!-- Node16 -->
<g id="node16" class="node"><title>Node16</title>
<g id="a_node16"><a xlink:href="qms__tarray_8h.html" target="_top" xlink:title="qms_tarray.h">
<polygon fill="white" stroke="black" points="772,-56.5 772,-75.5 846,-75.5 846,-56.5 772,-56.5"/>
<text text-anchor="middle" x="809" y="-63.5" font-family="Helvetica,sans-Serif" font-size="10.00">qms_tarray.h</text>
</a>
</g>
</g>
<!-- Node11&#45;&gt;Node16 -->
<g id="edge15" class="edge"><title>Node11&#45;&gt;Node16</title>
<path fill="none" stroke="midnightblue" d="M731.781,-112.324C746.267,-103.822 768.573,-90.7288 785.493,-80.7975"/>
<polygon fill="midnightblue" stroke="midnightblue" points="787.403,-83.735 794.255,-75.6545 783.859,-77.6981 787.403,-83.735"/>
</g>
<!-- Node14 -->
<g id="node14" class="node"><title>Node14</title>
<g id="a_node14"><a xlink:href="qms__exception_8h.html" target="_top" xlink:title="qms_exception.h">
<polygon fill="white" stroke="black" points="627.5,-0.5 627.5,-19.5 718.5,-19.5 718.5,-0.5 627.5,-0.5"/>
<text text-anchor="middle" x="673" y="-7.5" font-family="Helvetica,sans-Serif" font-size="10.00">qms_exception.h</text>
</a>
</g>
</g>
<!-- Node13&#45;&gt;Node14 -->
<g id="edge13" class="edge"><title>Node13&#45;&gt;Node14</title>
<path fill="none" stroke="midnightblue" d="M709.734,-56.083C703.455,-48.3768 694.212,-37.0333 686.569,-27.6531"/>
<polygon fill="midnightblue" stroke="midnightblue" points="689.161,-25.2926 680.131,-19.7511 683.734,-29.7143 689.161,-25.2926"/>
</g>
<!-- Node15 -->
<g id="node15" class="node"><title>Node15</title>
<polygon fill="white" stroke="#bfbfbf" points="736.5,-0.5 736.5,-19.5 785.5,-19.5 785.5,-0.5 736.5,-0.5"/>
<text text-anchor="middle" x="761" y="-7.5" font-family="Helvetica,sans-Serif" font-size="10.00">stdint.h</text>
</g>
<!-- Node13&#45;&gt;Node15 -->
<g id="edge14" class="edge"><title>Node13&#45;&gt;Node15</title>
<path fill="none" stroke="midnightblue" d="M724.266,-56.083C730.545,-48.3768 739.788,-37.0333 747.431,-27.6531"/>
<polygon fill="midnightblue" stroke="midnightblue" points="750.266,-29.7143 753.869,-19.7511 744.839,-25.2926 750.266,-29.7143"/>
</g>
</g>
</svg>
