<?xml version="1.0" encoding="UTF-8" standalone="no"?>
<!DOCTYPE svg PUBLIC "-//W3C//DTD SVG 1.1//EN"
 "http://www.w3.org/Graphics/SVG/1.1/DTD/svg11.dtd">
<!-- Generated by graphviz version 2.38.0 (20140413.2041)
 -->
<!-- Title: qms_limit.h Pages: 1 -->
<svg width="174pt" height="140pt"
 viewBox="0.00 0.00 173.50 140.00" xmlns="http://www.w3.org/2000/svg" xmlns:xlink="http://www.w3.org/1999/xlink">
<g id="graph0" class="graph" transform="scale(1 1) rotate(0) translate(4 136)">
<title>qms_limit.h</title>
<polygon fill="white" stroke="none" points="-4,4 -4,-136 169.5,-136 169.5,4 -4,4"/>
<!-- Node1 -->
<g id="node1" class="node"><title>Node1</title>
<polygon fill="#bfbfbf" stroke="black" points="46.5,-112.5 46.5,-131.5 113.5,-131.5 113.5,-112.5 46.5,-112.5"/>
<text text-anchor="middle" x="80" y="-119.5" font-family="Helvetica,sans-Serif" font-size="10.00">qms_limit.h</text>
</g>
<!-- Node2 -->
<g id="node2" class="node"><title>Node2</title>
<g id="a_node2"><a xlink:href="qms__msg_8h.html" target="_top" xlink:title="qms_msg.h">
<polygon fill="white" stroke="black" points="0,-56.5 0,-75.5 68,-75.5 68,-56.5 0,-56.5"/>
<text text-anchor="middle" x="34" y="-63.5" font-family="Helvetica,sans-Serif" font-size="10.00">qms_msg.h</text>
</a>
</g>
</g>
<!-- Node1&#45;&gt;Node2 -->
<g id="edge1" class="edge"><title>Node1&#45;&gt;Node2</title>
<path fill="none" stroke="midnightblue" d="M65.886,-104.431C57.824,-94.9673 48.0408,-83.4827 41.4546,-75.7511"/>
<polygon fill="midnightblue" stroke="midnightblue" points="63.255,-106.74 72.404,-112.083 68.5837,-102.201 63.255,-106.74"/>
</g>
<!-- Node4 -->
<g id="node4" class="node"><title>Node4</title>
<g id="a_node4"><a xlink:href="qms__structs_8h.html" target="_top" xlink:title="qms_structs.h">
<polygon fill="white" stroke="black" points="86.5,-56.5 86.5,-75.5 165.5,-75.5 165.5,-56.5 86.5,-56.5"/>
<text text-anchor="middle" x="126" y="-63.5" font-family="Helvetica,sans-Serif" font-size="10.00">qms_structs.h</text>
</a>
</g>
</g>
<!-- Node1&#45;&gt;Node4 -->
<g id="edge3" class="edge"><title>Node1&#45;&gt;Node4</title>
<path fill="none" stroke="midnightblue" d="M94.114,-104.431C102.176,-94.9673 111.959,-83.4827 118.545,-75.7511"/>
<polygon fill="midnightblue" stroke="midnightblue" points="91.4163,-102.201 87.596,-112.083 96.745,-106.74 91.4163,-102.201"/>
</g>
<!-- Node3 -->
<g id="node3" class="node"><title>Node3</title>
<g id="a_node3"><a xlink:href="qms_8h.html" target="_top" xlink:title="QMS API main header. ">
<polygon fill="white" stroke="black" points="58,-0.5 58,-19.5 102,-19.5 102,-0.5 58,-0.5"/>
<text text-anchor="middle" x="80" y="-7.5" font-family="Helvetica,sans-Serif" font-size="10.00">qms.h</text>
</a>
</g>
</g>
<!-- Node2&#45;&gt;Node3 -->
<g id="edge2" class="edge"><title>Node2&#45;&gt;Node3</title>
<path fill="none" stroke="midnightblue" d="M48.114,-48.4314C56.176,-38.9673 65.9592,-27.4827 72.5454,-19.7511"/>
<polygon fill="midnightblue" stroke="midnightblue" points="45.4163,-46.2009 41.596,-56.083 50.745,-50.7402 45.4163,-46.2009"/>
</g>
<!-- Node4&#45;&gt;Node3 -->
<g id="edge4" class="edge"><title>Node4&#45;&gt;Node3</title>
<path fill="none" stroke="midnightblue" d="M111.886,-48.4314C103.824,-38.9673 94.0408,-27.4827 87.4546,-19.7511"/>
<polygon fill="midnightblue" stroke="midnightblue" points="109.255,-50.7402 118.404,-56.083 114.584,-46.2009 109.255,-50.7402"/>
</g>
</g>
</svg>
