<?xml version="1.0" encoding="UTF-8" standalone="no"?>
<!DOCTYPE svg PUBLIC "-//W3C//DTD SVG 1.1//EN"
 "http://www.w3.org/Graphics/SVG/1.1/DTD/svg11.dtd">
<!-- Generated by graphviz version 2.38.0 (20140413.2041)
 -->
<!-- Title: qms_structs.h Pages: 1 -->
<!--zoomable 252 -->
<svg id="main" version="1.1" xmlns="http://www.w3.org/2000/svg" xmlns:xlink="http://www.w3.org/1999/xlink" xml:space="preserve" onload="init(evt)">
<style type="text/css"><![CDATA[
.edge:hover path { stroke: red; }
.edge:hover polygon { stroke: red; fill: red; }
]]></style>
<script type="text/javascript"><![CDATA[
var edges = document.getElementsByTagName('g');
if (edges && edges.length) {
  for (var i=0;i<edges.length;i++) {
    if (edges[i].id.substr(0,4)=='edge') {
      edges[i].setAttribute('class','edge');
    }
  }
}
]]></script>
        <defs>
                <circle id="rim" cx="0" cy="0" r="7"/>
                <circle id="rim2" cx="0" cy="0" r="3.5"/>
                <g id="zoomPlus">
                        <use xlink:href="#rim" fill="#404040">
                                <set attributeName="fill" to="#808080" begin="zoomplus.mouseover" end="zoomplus.mouseout"/>
                        </use>
                        <path d="M-4,0h8M0,-4v8" fill="none" stroke="white" stroke-width="1.5" pointer-events="none"/>
                </g>
                <g id="zoomMin">
                        <use xlink:href="#rim" fill="#404040">
                                <set attributeName="fill" to="#808080" begin="zoomminus.mouseover" end="zoomminus.mouseout"/>
                        </use>
                        <path d="M-4,0h8" fill="none" stroke="white" stroke-width="1.5" pointer-events="none"/>
                </g>
                <g id="dirArrow">
                        <path fill="none" stroke="white" stroke-width="1.5" d="M0,-3.0v7 M-2.5,-0.5L0,-3.0L2.5,-0.5"/>
                </g>
               <g id="resetDef">
                       <use xlink:href="#rim2" fill="#404040">
                               <set attributeName="fill" to="#808080" begin="reset.mouseover" end="reset.mouseout"/>
                       </use>
               </g>
        </defs>

<script type="text/javascript">
var viewWidth = 1390;
var viewHeight = 252;
var sectionId = 'dynsection-0';
</script>
<script xlink:href="svgpan.js"/>
<svg id="graph" class="graph">
<g id="viewport">
<title>qms_structs.h</title>
<polygon fill="white" stroke="none" points="-4,4 -4,-248 1385.5,-248 1385.5,4 -4,4"/>
<!-- Node1 -->
<g id="node1" class="node"><title>Node1</title>
<polygon fill="#bfbfbf" stroke="black" points="654,-224.5 654,-243.5 733,-243.5 733,-224.5 654,-224.5"/>
<text text-anchor="middle" x="693.5" y="-231.5" font-family="Helvetica,sans-Serif" font-size="10.00">qms_structs.h</text>
</g>
<!-- Node2 -->
<g id="node2" class="node"><title>Node2</title>
<g id="a_node2"><a xlink:href="qms__account_8h.html" target="_top" xlink:title="qms_account.h">
<polygon fill="white" stroke="black" points="0,-168.5 0,-187.5 83,-187.5 83,-168.5 0,-168.5"/>
<text text-anchor="middle" x="41.5" y="-175.5" font-family="Helvetica,sans-Serif" font-size="10.00">qms_account.h</text>
</a>
</g>
</g>
<!-- Node1&#45;&gt;Node2 -->
<g id="edge1" class="edge"><title>Node1&#45;&gt;Node2</title>
<path fill="none" stroke="midnightblue" d="M653.987,-231.166C558.264,-226.474 306.44,-212.634 97.5,-188 96.0331,-187.827 94.5459,-187.643 93.0457,-187.451"/>
<polygon fill="midnightblue" stroke="midnightblue" points="93.4195,-183.97 83.0356,-186.073 92.465,-190.904 93.4195,-183.97"/>
</g>
<!-- Node3 -->
<g id="node3" class="node"><title>Node3</title>
<g id="a_node3"><a xlink:href="qms__bank_info_8h.html" target="_top" xlink:title="qms_bankInfo.h">
<polygon fill="white" stroke="black" points="51,-112.5 51,-131.5 136,-131.5 136,-112.5 51,-112.5"/>
<text text-anchor="middle" x="93.5" y="-119.5" font-family="Helvetica,sans-Serif" font-size="10.00">qms_bankInfo.h</text>
</a>
</g>
</g>
<!-- Node1&#45;&gt;Node3 -->
<g id="edge2" class="edge"><title>Node1&#45;&gt;Node3</title>
<path fill="none" stroke="midnightblue" d="M653.637,-231.953C532.517,-228.478 174.401,-215.925 130.5,-188 113.925,-177.457 104.019,-156.676 98.6881,-141.438"/>
<polygon fill="midnightblue" stroke="midnightblue" points="101.918,-140.042 95.585,-131.549 95.2394,-142.138 101.918,-140.042"/>
</g>
<!-- Node7 -->
<g id="node7" class="node"><title>Node7</title>
<g id="a_node7"><a xlink:href="qms__bar_data_8h.html" target="_top" xlink:title="qms_barData.h">
<polygon fill="white" stroke="black" points="140,-168.5 140,-187.5 223,-187.5 223,-168.5 140,-168.5"/>
<text text-anchor="middle" x="181.5" y="-175.5" font-family="Helvetica,sans-Serif" font-size="10.00">qms_barData.h</text>
</a>
</g>
</g>
<!-- Node1&#45;&gt;Node7 -->
<g id="edge7" class="edge"><title>Node1&#45;&gt;Node7</title>
<path fill="none" stroke="midnightblue" d="M653.913,-230.174C575.657,-224.362 395.452,-209.869 233.363,-188.013"/>
<polygon fill="midnightblue" stroke="midnightblue" points="233.588,-184.512 223.207,-186.631 232.644,-191.448 233.588,-184.512"/>
</g>
<!-- Node13 -->
<g id="node13" class="node"><title>Node13</title>
<g id="a_node13"><a xlink:href="qms__currency_8h.html" target="_top" xlink:title="qms_currency.h">
<polygon fill="white" stroke="black" points="241.5,-168.5 241.5,-187.5 327.5,-187.5 327.5,-168.5 241.5,-168.5"/>
<text text-anchor="middle" x="284.5" y="-175.5" font-family="Helvetica,sans-Serif" font-size="10.00">qms_currency.h</text>
</a>
</g>
</g>
<!-- Node1&#45;&gt;Node13 -->
<g id="edge15" class="edge"><title>Node1&#45;&gt;Node13</title>
<path fill="none" stroke="midnightblue" d="M653.797,-228.599C589.607,-221.353 458.823,-206.045 337.788,-188.134"/>
<polygon fill="midnightblue" stroke="midnightblue" points="338.012,-184.629 327.606,-186.618 336.981,-191.553 338.012,-184.629"/>
</g>
<!-- Node14 -->
<g id="node14" class="node"><title>Node14</title>
<g id="a_node14"><a xlink:href="qms__deal_8h.html" target="_top" xlink:title="qms_deal.h">
<polygon fill="white" stroke="black" points="346,-168.5 346,-187.5 413,-187.5 413,-168.5 346,-168.5"/>
<text text-anchor="middle" x="379.5" y="-175.5" font-family="Helvetica,sans-Serif" font-size="10.00">qms_deal.h</text>
</a>
</g>
</g>
<!-- Node1&#45;&gt;Node14 -->
<g id="edge16" class="edge"><title>Node1&#45;&gt;Node14</title>
<path fill="none" stroke="midnightblue" d="M653.914,-226.957C602.959,-219.063 511.449,-204.49 423.185,-188.063"/>
<polygon fill="midnightblue" stroke="midnightblue" points="423.748,-184.608 413.275,-186.208 422.46,-191.488 423.748,-184.608"/>
</g>
<!-- Node15 -->
<g id="node15" class="node"><title>Node15</title>
<g id="a_node15"><a xlink:href="qms__deposit_8h.html" target="_top" xlink:title="qms_deposit.h">
<polygon fill="white" stroke="black" points="431.5,-168.5 431.5,-187.5 511.5,-187.5 511.5,-168.5 431.5,-168.5"/>
<text text-anchor="middle" x="471.5" y="-175.5" font-family="Helvetica,sans-Serif" font-size="10.00">qms_deposit.h</text>
</a>
</g>
</g>
<!-- Node1&#45;&gt;Node15 -->
<g id="edge17" class="edge"><title>Node1&#45;&gt;Node15</title>
<path fill="none" stroke="midnightblue" d="M658.323,-224.444C619.921,-215.102 558.324,-200.119 516.445,-189.933"/>
<polygon fill="midnightblue" stroke="midnightblue" points="517.056,-186.479 506.512,-187.516 515.401,-193.281 517.056,-186.479"/>
</g>
<!-- Node16 -->
<g id="node16" class="node"><title>Node16</title>
<g id="a_node16"><a xlink:href="qms__exposure_8h.html" target="_top" xlink:title="qms_exposure.h">
<polygon fill="white" stroke="black" points="530,-168.5 530,-187.5 619,-187.5 619,-168.5 530,-168.5"/>
<text text-anchor="middle" x="574.5" y="-175.5" font-family="Helvetica,sans-Serif" font-size="10.00">qms_exposure.h</text>
</a>
</g>
</g>
<!-- Node1&#45;&gt;Node16 -->
<g id="edge18" class="edge"><title>Node1&#45;&gt;Node16</title>
<path fill="none" stroke="midnightblue" d="M674.644,-224.444C655.234,-215.636 624.77,-201.812 602.535,-191.722"/>
<polygon fill="midnightblue" stroke="midnightblue" points="603.82,-188.462 593.268,-187.516 600.928,-194.836 603.82,-188.462"/>
</g>
<!-- Node17 -->
<g id="node17" class="node"><title>Node17</title>
<g id="a_node17"><a xlink:href="qms__exposure_trade_8h.html" target="_top" xlink:title="qms_exposureTrade.h">
<polygon fill="white" stroke="black" points="637,-168.5 637,-187.5 750,-187.5 750,-168.5 637,-168.5"/>
<text text-anchor="middle" x="693.5" y="-175.5" font-family="Helvetica,sans-Serif" font-size="10.00">qms_exposureTrade.h</text>
</a>
</g>
</g>
<!-- Node1&#45;&gt;Node17 -->
<g id="edge19" class="edge"><title>Node1&#45;&gt;Node17</title>
<path fill="none" stroke="midnightblue" d="M693.5,-224.083C693.5,-217.006 693.5,-206.861 693.5,-197.986"/>
<polygon fill="midnightblue" stroke="midnightblue" points="697,-197.751 693.5,-187.751 690,-197.751 697,-197.751"/>
</g>
<!-- Node18 -->
<g id="node18" class="node"><title>Node18</title>
<g id="a_node18"><a xlink:href="qms__group_8h.html" target="_top" xlink:title="qms_group.h">
<polygon fill="white" stroke="black" points="768,-168.5 768,-187.5 841,-187.5 841,-168.5 768,-168.5"/>
<text text-anchor="middle" x="804.5" y="-175.5" font-family="Helvetica,sans-Serif" font-size="10.00">qms_group.h</text>
</a>
</g>
</g>
<!-- Node1&#45;&gt;Node18 -->
<g id="edge20" class="edge"><title>Node1&#45;&gt;Node18</title>
<path fill="none" stroke="midnightblue" d="M711.334,-224.324C729.216,-215.625 756.975,-202.12 777.546,-192.113"/>
<polygon fill="midnightblue" stroke="midnightblue" points="779.249,-195.177 786.71,-187.655 776.187,-188.882 779.249,-195.177"/>
</g>
<!-- Node19 -->
<g id="node19" class="node"><title>Node19</title>
<g id="a_node19"><a xlink:href="qms__limit_8h.html" target="_top" xlink:title="qms_limit.h">
<polygon fill="white" stroke="black" points="859,-168.5 859,-187.5 926,-187.5 926,-168.5 859,-168.5"/>
<text text-anchor="middle" x="892.5" y="-175.5" font-family="Helvetica,sans-Serif" font-size="10.00">qms_limit.h</text>
</a>
</g>
</g>
<!-- Node1&#45;&gt;Node19 -->
<g id="edge21" class="edge"><title>Node1&#45;&gt;Node19</title>
<path fill="none" stroke="midnightblue" d="M725.032,-224.444C759.092,-215.201 813.506,-200.436 851.015,-190.257"/>
<polygon fill="midnightblue" stroke="midnightblue" points="852.381,-193.513 861.115,-187.516 850.548,-186.758 852.381,-193.513"/>
</g>
<!-- Node20 -->
<g id="node20" class="node"><title>Node20</title>
<g id="a_node20"><a xlink:href="qms__market_depth_8h.html" target="_top" xlink:title="qms_marketDepth.h">
<polygon fill="white" stroke="black" points="1179.5,-168.5 1179.5,-187.5 1283.5,-187.5 1283.5,-168.5 1179.5,-168.5"/>
<text text-anchor="middle" x="1231.5" y="-175.5" font-family="Helvetica,sans-Serif" font-size="10.00">qms_marketDepth.h</text>
</a>
</g>
</g>
<!-- Node1&#45;&gt;Node20 -->
<g id="edge22" class="edge"><title>Node1&#45;&gt;Node20</title>
<path fill="none" stroke="midnightblue" d="M733.152,-229.967C813.423,-223.673 1001.12,-208.182 1169.26,-188.094"/>
<polygon fill="midnightblue" stroke="midnightblue" points="1169.77,-191.558 1179.28,-186.888 1168.93,-184.608 1169.77,-191.558"/>
</g>
<!-- Node21 -->
<g id="node21" class="node"><title>Node21</title>
<g id="a_node21"><a xlink:href="qms__price_vol_8h_source.html" target="_top" xlink:title="qms_priceVol.h">
<polygon fill="white" stroke="black" points="1104.5,-112.5 1104.5,-131.5 1188.5,-131.5 1188.5,-112.5 1104.5,-112.5"/>
<text text-anchor="middle" x="1146.5" y="-119.5" font-family="Helvetica,sans-Serif" font-size="10.00">qms_priceVol.h</text>
</a>
</g>
</g>
<!-- Node1&#45;&gt;Node21 -->
<g id="edge27" class="edge"><title>Node1&#45;&gt;Node21</title>
<path fill="none" stroke="midnightblue" d="M733.114,-233.26C799.04,-232.523 934.587,-225.994 1041.5,-188 1058.86,-181.83 1100.25,-154.641 1125.57,-137.441"/>
<polygon fill="midnightblue" stroke="midnightblue" points="1127.81,-140.145 1134.09,-131.613 1123.86,-134.366 1127.81,-140.145"/>
</g>
<!-- Node22 -->
<g id="node22" class="node"><title>Node22</title>
<g id="a_node22"><a xlink:href="qms__order_8h.html" target="_top" xlink:title="qms_order.h">
<polygon fill="white" stroke="black" points="1090,-168.5 1090,-187.5 1161,-187.5 1161,-168.5 1090,-168.5"/>
<text text-anchor="middle" x="1125.5" y="-175.5" font-family="Helvetica,sans-Serif" font-size="10.00">qms_order.h</text>
</a>
</g>
</g>
<!-- Node1&#45;&gt;Node22 -->
<g id="edge24" class="edge"><title>Node1&#45;&gt;Node22</title>
<path fill="none" stroke="midnightblue" d="M733.2,-229.127C802.73,-222.165 950.994,-206.522 1075.5,-188 1076.94,-187.785 1078.41,-187.56 1079.89,-187.328"/>
<polygon fill="midnightblue" stroke="midnightblue" points="1080.46,-190.781 1089.76,-185.705 1079.33,-183.874 1080.46,-190.781"/>
</g>
<!-- Node23 -->
<g id="node23" class="node"><title>Node23</title>
<g id="a_node23"><a xlink:href="qms__plugin_info_8h.html" target="_top" xlink:title="qms_pluginInfo.h">
<polygon fill="white" stroke="black" points="944,-168.5 944,-187.5 1033,-187.5 1033,-168.5 944,-168.5"/>
<text text-anchor="middle" x="988.5" y="-175.5" font-family="Helvetica,sans-Serif" font-size="10.00">qms_pluginInfo.h</text>
</a>
</g>
</g>
<!-- Node1&#45;&gt;Node23 -->
<g id="edge25" class="edge"><title>Node1&#45;&gt;Node23</title>
<path fill="none" stroke="midnightblue" d="M733.285,-225.717C784.915,-216.266 875.261,-199.729 933.448,-189.077"/>
<polygon fill="midnightblue" stroke="midnightblue" points="934.359,-192.469 943.565,-187.225 933.099,-185.583 934.359,-192.469"/>
</g>
<!-- Node24 -->
<g id="node24" class="node"><title>Node24</title>
<g id="a_node24"><a xlink:href="qms__symbol_8h.html" target="_top" xlink:title="qms_symbol.h">
<polygon fill="white" stroke="black" points="1301.5,-168.5 1301.5,-187.5 1381.5,-187.5 1381.5,-168.5 1301.5,-168.5"/>
<text text-anchor="middle" x="1341.5" y="-175.5" font-family="Helvetica,sans-Serif" font-size="10.00">qms_symbol.h</text>
</a>
</g>
</g>
<!-- Node1&#45;&gt;Node24 -->
<g id="edge28" class="edge"><title>Node1&#45;&gt;Node24</title>
<path fill="none" stroke="midnightblue" d="M733.25,-231.481C828.08,-227.543 1075.17,-215.431 1291.49,-187.993"/>
<polygon fill="midnightblue" stroke="midnightblue" points="1291.97,-191.46 1301.44,-186.717 1291.08,-184.517 1291.97,-191.46"/>
</g>
<!-- Node4 -->
<g id="node4" class="node"><title>Node4</title>
<g id="a_node4"><a xlink:href="qms__mm_8h.html" target="_top" xlink:title="qms_mm.h">
<polygon fill="white" stroke="black" points="23,-56.5 23,-75.5 88,-75.5 88,-56.5 23,-56.5"/>
<text text-anchor="middle" x="55.5" y="-63.5" font-family="Helvetica,sans-Serif" font-size="10.00">qms_mm.h</text>
</a>
</g>
</g>
<!-- Node3&#45;&gt;Node4 -->
<g id="edge3" class="edge"><title>Node3&#45;&gt;Node4</title>
<path fill="none" stroke="midnightblue" d="M87.2251,-112.083C81.8575,-104.455 73.9824,-93.2645 67.4213,-83.9408"/>
<polygon fill="midnightblue" stroke="midnightblue" points="70.2755,-81.9149 61.6582,-75.7511 64.5508,-85.9434 70.2755,-81.9149"/>
</g>
<!-- Node5 -->
<g id="node5" class="node"><title>Node5</title>
<polygon fill="white" stroke="#bfbfbf" points="92,-0.5 92,-19.5 141,-19.5 141,-0.5 92,-0.5"/>
<text text-anchor="middle" x="116.5" y="-7.5" font-family="Helvetica,sans-Serif" font-size="10.00">stdint.h</text>
</g>
<!-- Node3&#45;&gt;Node5 -->
<g id="edge6" class="edge"><title>Node3&#45;&gt;Node5</title>
<path fill="none" stroke="midnightblue" d="M95.3048,-112.368C99.0165,-94.617 107.579,-53.6664 112.611,-29.5974"/>
<polygon fill="midnightblue" stroke="midnightblue" points="116.083,-30.0961 114.704,-19.5914 109.231,-28.6634 116.083,-30.0961"/>
</g>
<!-- Node6 -->
<g id="node6" class="node"><title>Node6</title>
<g id="a_node6"><a xlink:href="qms__tarray_8h.html" target="_top" xlink:title="qms_tarray.h">
<polygon fill="white" stroke="black" points="144.5,-56.5 144.5,-75.5 218.5,-75.5 218.5,-56.5 144.5,-56.5"/>
<text text-anchor="middle" x="181.5" y="-63.5" font-family="Helvetica,sans-Serif" font-size="10.00">qms_tarray.h</text>
</a>
</g>
</g>
<!-- Node3&#45;&gt;Node6 -->
<g id="edge5" class="edge"><title>Node3&#45;&gt;Node6</title>
<path fill="none" stroke="midnightblue" d="M107.639,-112.324C121.366,-103.9 142.436,-90.9709 158.564,-81.0741"/>
<polygon fill="midnightblue" stroke="midnightblue" points="160.704,-83.8678 167.396,-75.6545 157.043,-77.9016 160.704,-83.8678"/>
</g>
<!-- Node4&#45;&gt;Node5 -->
<g id="edge4" class="edge"><title>Node4&#45;&gt;Node5</title>
<path fill="none" stroke="midnightblue" d="M65.3007,-56.324C74.3181,-48.3414 87.906,-36.3128 98.818,-26.6529"/>
<polygon fill="midnightblue" stroke="midnightblue" points="101.353,-29.083 106.521,-19.8339 96.7134,-23.8416 101.353,-29.083"/>
</g>
<!-- Node8 -->
<g id="node8" class="node"><title>Node8</title>
<g id="a_node8"><a xlink:href="qms__item_8h.html" target="_top" xlink:title="qms_item.h">
<polygon fill="white" stroke="black" points="262.5,-112.5 262.5,-131.5 330.5,-131.5 330.5,-112.5 262.5,-112.5"/>
<text text-anchor="middle" x="296.5" y="-119.5" font-family="Helvetica,sans-Serif" font-size="10.00">qms_item.h</text>
</a>
</g>
</g>
<!-- Node7&#45;&gt;Node8 -->
<g id="edge8" class="edge"><title>Node7&#45;&gt;Node8</title>
<path fill="none" stroke="midnightblue" d="M199.722,-168.444C218.396,-159.675 247.656,-145.935 269.117,-135.858"/>
<polygon fill="midnightblue" stroke="midnightblue" points="270.799,-138.935 278.363,-131.516 267.824,-132.599 270.799,-138.935"/>
</g>
<!-- Node12 -->
<g id="node12" class="node"><title>Node12</title>
<g id="a_node12"><a xlink:href="qms__price_data_8h.html" target="_top" xlink:title="qms_priceData.h">
<polygon fill="white" stroke="black" points="154.5,-112.5 154.5,-131.5 244.5,-131.5 244.5,-112.5 154.5,-112.5"/>
<text text-anchor="middle" x="199.5" y="-119.5" font-family="Helvetica,sans-Serif" font-size="10.00">qms_priceData.h</text>
</a>
</g>
</g>
<!-- Node7&#45;&gt;Node12 -->
<g id="edge14" class="edge"><title>Node7&#45;&gt;Node12</title>
<path fill="none" stroke="midnightblue" d="M184.472,-168.083C186.884,-160.849 190.364,-150.409 193.368,-141.397"/>
<polygon fill="midnightblue" stroke="midnightblue" points="196.741,-142.345 196.583,-131.751 190.1,-140.131 196.741,-142.345"/>
</g>
<!-- Node8&#45;&gt;Node6 -->
<g id="edge13" class="edge"><title>Node8&#45;&gt;Node6</title>
<path fill="none" stroke="midnightblue" d="M278.278,-112.444C259.604,-103.675 230.344,-89.9355 208.883,-79.8579"/>
<polygon fill="midnightblue" stroke="midnightblue" points="210.176,-76.5988 199.637,-75.5164 207.201,-82.935 210.176,-76.5988"/>
</g>
<!-- Node9 -->
<g id="node9" class="node"><title>Node9</title>
<g id="a_node9"><a xlink:href="qms__cs_8h.html" target="_top" xlink:title="qms_cs.h">
<polygon fill="white" stroke="black" points="328,-56.5 328,-75.5 387,-75.5 387,-56.5 328,-56.5"/>
<text text-anchor="middle" x="357.5" y="-63.5" font-family="Helvetica,sans-Serif" font-size="10.00">qms_cs.h</text>
</a>
</g>
</g>
<!-- Node8&#45;&gt;Node9 -->
<g id="edge9" class="edge"><title>Node8&#45;&gt;Node9</title>
<path fill="none" stroke="midnightblue" d="M306.301,-112.324C315.318,-104.341 328.906,-92.3128 339.818,-82.6529"/>
<polygon fill="midnightblue" stroke="midnightblue" points="342.353,-85.083 347.521,-75.8339 337.713,-79.8416 342.353,-85.083"/>
</g>
<!-- Node10 -->
<g id="node10" class="node"><title>Node10</title>
<g id="a_node10"><a xlink:href="qms__string_8h.html" target="_top" xlink:title="qms_string.h">
<polygon fill="white" stroke="black" points="237,-56.5 237,-75.5 310,-75.5 310,-56.5 237,-56.5"/>
<text text-anchor="middle" x="273.5" y="-63.5" font-family="Helvetica,sans-Serif" font-size="10.00">qms_string.h</text>
</a>
</g>
</g>
<!-- Node8&#45;&gt;Node10 -->
<g id="edge10" class="edge"><title>Node8&#45;&gt;Node10</title>
<path fill="none" stroke="midnightblue" d="M292.702,-112.083C289.587,-104.77 285.077,-94.1814 281.211,-85.1034"/>
<polygon fill="midnightblue" stroke="midnightblue" points="284.366,-83.5798 277.227,-75.7511 277.926,-86.3229 284.366,-83.5798"/>
</g>
<!-- Node10&#45;&gt;Node5 -->
<g id="edge12" class="edge"><title>Node10&#45;&gt;Node5</title>
<path fill="none" stroke="midnightblue" d="M248.623,-56.4435C222.133,-47.3324 180.038,-32.8539 150.498,-22.6936"/>
<polygon fill="midnightblue" stroke="midnightblue" points="151.597,-19.3704 141.002,-19.4275 149.32,-25.9898 151.597,-19.3704"/>
</g>
<!-- Node11 -->
<g id="node11" class="node"><title>Node11</title>
<g id="a_node11"><a xlink:href="qms__exception_8h.html" target="_top" xlink:title="qms_exception.h">
<polygon fill="white" stroke="black" points="228,-0.5 228,-19.5 319,-19.5 319,-0.5 228,-0.5"/>
<text text-anchor="middle" x="273.5" y="-7.5" font-family="Helvetica,sans-Serif" font-size="10.00">qms_exception.h</text>
</a>
</g>
</g>
<!-- Node10&#45;&gt;Node11 -->
<g id="edge11" class="edge"><title>Node10&#45;&gt;Node11</title>
<path fill="none" stroke="midnightblue" d="M273.5,-56.083C273.5,-49.0059 273.5,-38.8611 273.5,-29.9865"/>
<polygon fill="midnightblue" stroke="midnightblue" points="277,-29.751 273.5,-19.7511 270,-29.7511 277,-29.751"/>
</g>
<!-- Node20&#45;&gt;Node21 -->
<g id="edge23" class="edge"><title>Node20&#45;&gt;Node21</title>
<path fill="none" stroke="midnightblue" d="M1217.84,-168.324C1204.58,-159.9 1184.23,-146.971 1168.65,-137.074"/>
<polygon fill="midnightblue" stroke="midnightblue" points="1170.44,-134.063 1160.12,-131.655 1166.69,-139.971 1170.44,-134.063"/>
</g>
<!-- Node23&#45;&gt;Node8 -->
<g id="edge26" class="edge"><title>Node23&#45;&gt;Node8</title>
<path fill="none" stroke="midnightblue" d="M943.758,-169.208C940.629,-168.766 937.52,-168.357 934.5,-168 712.488,-141.729 445.064,-128.947 340.979,-124.686"/>
<polygon fill="midnightblue" stroke="midnightblue" points="340.975,-121.183 330.842,-124.277 340.692,-128.177 340.975,-121.183"/>
</g>
</g>
</svg>
        <g id="navigator" transform="translate(0 0)" fill="#404254">
                <rect fill="#f2f5e9" fill-opacity="0.5" stroke="#606060" stroke-width=".5" x="0" y="0" width="60" height="60"/>
                <use id="zoomplus" xlink:href="#zoomPlus" x="17" y="9" onmousedown="handleZoom(evt,'in')"/>
                <use id="zoomminus" xlink:href="#zoomMin" x="42" y="9" onmousedown="handleZoom(evt,'out')"/>
                <use id="reset" xlink:href="#resetDef" x="30" y="36" onmousedown="handleReset()"/>
                <g id="arrowUp" xlink:href="#dirArrow" transform="translate(30 24)" onmousedown="handlePan(0,-1)">
                  <use xlink:href="#rim" fill="#404040">
                        <set attributeName="fill" to="#808080" begin="arrowUp.mouseover" end="arrowUp.mouseout"/>
                  </use>
                  <path fill="none" stroke="white" stroke-width="1.5" d="M0,-3.0v7 M-2.5,-0.5L0,-3.0L2.5,-0.5"/>
                </g>
                <g id="arrowRight" xlink:href="#dirArrow" transform="rotate(90) translate(36 -43)" onmousedown="handlePan(1,0)">
                  <use xlink:href="#rim" fill="#404040">
                        <set attributeName="fill" to="#808080" begin="arrowRight.mouseover" end="arrowRight.mouseout"/>
                  </use>
                  <path fill="none" stroke="white" stroke-width="1.5" d="M0,-3.0v7 M-2.5,-0.5L0,-3.0L2.5,-0.5"/>
                </g>
                <g id="arrowDown" xlink:href="#dirArrow" transform="rotate(180) translate(-30 -48)" onmousedown="handlePan(0,1)">
                  <use xlink:href="#rim" fill="#404040">
                        <set attributeName="fill" to="#808080" begin="arrowDown.mouseover" end="arrowDown.mouseout"/>
                  </use>
                  <path fill="none" stroke="white" stroke-width="1.5" d="M0,-3.0v7 M-2.5,-0.5L0,-3.0L2.5,-0.5"/>
                </g>
                <g id="arrowLeft" xlink:href="#dirArrow" transform="rotate(270) translate(-36 17)" onmousedown="handlePan(-1,0)">
                  <use xlink:href="#rim" fill="#404040">
                        <set attributeName="fill" to="#808080" begin="arrowLeft.mouseover" end="arrowLeft.mouseout"/>
                  </use>
                  <path fill="none" stroke="white" stroke-width="1.5" d="M0,-3.0v7 M-2.5,-0.5L0,-3.0L2.5,-0.5"/>
                </g>
        </g>
        <svg viewBox="0 0 15 15" width="100%" height="30px" preserveAspectRatio="xMaxYMin meet">
         <g id="arrow_out" transform="scale(0.3 0.3)">
          <a xlink:href="qms__structs_8h__incl_org.svg" target="_base">
           <rect id="button" ry="5" rx="5" y="6" x="6" height="38" width="38"
                fill="#f2f5e9" fill-opacity="0.5" stroke="#606060" stroke-width="1.0"/>
           <path id="arrow"
             d="M 11.500037,31.436501 C 11.940474,20.09759 22.043105,11.32322 32.158766,21.979434 L 37.068811,17.246167 C 37.068811,17.246167 37.088388,32 37.088388,32 L 22.160133,31.978069 C 22.160133,31.978069 26.997745,27.140456 26.997745,27.140456 C 18.528582,18.264221 13.291696,25.230495 11.500037,31.436501 z"
             style="fill:#404040;"/>
          </a>
         </g>
        </svg>
</svg>
