<?xml version="1.0" encoding="UTF-8" standalone="no"?>
<!DOCTYPE svg PUBLIC "-//W3C//DTD SVG 1.1//EN"
 "http://www.w3.org/Graphics/SVG/1.1/DTD/svg11.dtd">
<!-- Generated by graphviz version 2.38.0 (20140413.2041)
 -->
<!-- Title: qms_currency.h Pages: 1 -->
<svg width="180pt" height="140pt"
 viewBox="0.00 0.00 179.50 140.00" xmlns="http://www.w3.org/2000/svg" xmlns:xlink="http://www.w3.org/1999/xlink">
<g id="graph0" class="graph" transform="scale(1 1) rotate(0) translate(4 136)">
<title>qms_currency.h</title>
<polygon fill="white" stroke="none" points="-4,4 -4,-136 175.5,-136 175.5,4 -4,4"/>
<!-- Node1 -->
<g id="node1" class="node"><title>Node1</title>
<polygon fill="#bfbfbf" stroke="black" points="41,-112.5 41,-131.5 127,-131.5 127,-112.5 41,-112.5"/>
<text text-anchor="middle" x="84" y="-119.5" font-family="Helvetica,sans-Serif" font-size="10.00">qms_currency.h</text>
</g>
<!-- Node2 -->
<g id="node2" class="node"><title>Node2</title>
<g id="a_node2"><a xlink:href="qms__server_8h.html" target="_top" xlink:title="qms_server.h">
<polygon fill="white" stroke="black" points="0,-56.5 0,-75.5 74,-75.5 74,-56.5 0,-56.5"/>
<text text-anchor="middle" x="37" y="-63.5" font-family="Helvetica,sans-Serif" font-size="10.00">qms_server.h</text>
</a>
</g>
</g>
<!-- Node1&#45;&gt;Node2 -->
<g id="edge1" class="edge"><title>Node1&#45;&gt;Node2</title>
<path fill="none" stroke="midnightblue" d="M69.5792,-104.431C61.3419,-94.9673 51.3461,-83.4827 44.6167,-75.7511"/>
<polygon fill="midnightblue" stroke="midnightblue" points="67.0336,-106.838 76.2389,-112.083 72.3137,-102.242 67.0336,-106.838"/>
</g>
<!-- Node4 -->
<g id="node4" class="node"><title>Node4</title>
<g id="a_node4"><a xlink:href="qms__structs_8h.html" target="_top" xlink:title="qms_structs.h">
<polygon fill="white" stroke="black" points="92.5,-56.5 92.5,-75.5 171.5,-75.5 171.5,-56.5 92.5,-56.5"/>
<text text-anchor="middle" x="132" y="-63.5" font-family="Helvetica,sans-Serif" font-size="10.00">qms_structs.h</text>
</a>
</g>
</g>
<!-- Node1&#45;&gt;Node4 -->
<g id="edge3" class="edge"><title>Node1&#45;&gt;Node4</title>
<path fill="none" stroke="midnightblue" d="M98.7277,-104.431C107.14,-94.9673 117.349,-83.4827 124.221,-75.7511"/>
<polygon fill="midnightblue" stroke="midnightblue" points="95.954,-102.284 91.9262,-112.083 101.186,-106.934 95.954,-102.284"/>
</g>
<!-- Node3 -->
<g id="node3" class="node"><title>Node3</title>
<g id="a_node3"><a xlink:href="qms_8h.html" target="_top" xlink:title="QMS API main header. ">
<polygon fill="white" stroke="black" points="62,-0.5 62,-19.5 106,-19.5 106,-0.5 62,-0.5"/>
<text text-anchor="middle" x="84" y="-7.5" font-family="Helvetica,sans-Serif" font-size="10.00">qms.h</text>
</a>
</g>
</g>
<!-- Node2&#45;&gt;Node3 -->
<g id="edge2" class="edge"><title>Node2&#45;&gt;Node3</title>
<path fill="none" stroke="midnightblue" d="M51.4208,-48.4314C59.6581,-38.9673 69.6539,-27.4827 76.3833,-19.7511"/>
<polygon fill="midnightblue" stroke="midnightblue" points="48.6863,-46.2421 44.7611,-56.083 53.9664,-50.8378 48.6863,-46.2421"/>
</g>
<!-- Node4&#45;&gt;Node3 -->
<g id="edge4" class="edge"><title>Node4&#45;&gt;Node3</title>
<path fill="none" stroke="midnightblue" d="M117.272,-48.4314C108.86,-38.9673 98.6513,-27.4827 91.7787,-19.7511"/>
<polygon fill="midnightblue" stroke="midnightblue" points="114.814,-50.9342 124.074,-56.083 120.046,-46.2836 114.814,-50.9342"/>
</g>
</g>
</svg>
