<?xml version="1.0" encoding="UTF-8" standalone="no"?>
<!DOCTYPE svg PUBLIC "-//W3C//DTD SVG 1.1//EN"
 "http://www.w3.org/Graphics/SVG/1.1/DTD/svg11.dtd">
<!-- Generated by graphviz version 2.38.0 (20140413.2041)
 -->
<!-- Title: qms_string.h Pages: 1 -->
<svg width="372pt" height="252pt"
 viewBox="0.00 0.00 372.00 252.00" xmlns="http://www.w3.org/2000/svg" xmlns:xlink="http://www.w3.org/1999/xlink">
<g id="graph0" class="graph" transform="scale(1 1) rotate(0) translate(4 248)">
<title>qms_string.h</title>
<polygon fill="white" stroke="none" points="-4,4 -4,-248 368,-248 368,4 -4,4"/>
<!-- Node1 -->
<g id="node1" class="node"><title>Node1</title>
<polygon fill="#bfbfbf" stroke="black" points="141.5,-224.5 141.5,-243.5 214.5,-243.5 214.5,-224.5 141.5,-224.5"/>
<text text-anchor="middle" x="178" y="-231.5" font-family="Helvetica,sans-Serif" font-size="10.00">qms_string.h</text>
</g>
<!-- Node2 -->
<g id="node2" class="node"><title>Node2</title>
<g id="a_node2"><a xlink:href="qms__item_8h.html" target="_top" xlink:title="qms_item.h">
<polygon fill="white" stroke="black" points="144,-168.5 144,-187.5 212,-187.5 212,-168.5 144,-168.5"/>
<text text-anchor="middle" x="178" y="-175.5" font-family="Helvetica,sans-Serif" font-size="10.00">qms_item.h</text>
</a>
</g>
</g>
<!-- Node1&#45;&gt;Node2 -->
<g id="edge1" class="edge"><title>Node1&#45;&gt;Node2</title>
<path fill="none" stroke="midnightblue" d="M178,-213.805C178,-204.91 178,-194.78 178,-187.751"/>
<polygon fill="midnightblue" stroke="midnightblue" points="174.5,-214.083 178,-224.083 181.5,-214.083 174.5,-214.083"/>
</g>
<!-- Node3 -->
<g id="node3" class="node"><title>Node3</title>
<g id="a_node3"><a xlink:href="qms__item_tree_8h_source.html" target="_top" xlink:title="qms_itemTree.h">
<polygon fill="white" stroke="black" points="0,-56.5 0,-75.5 86,-75.5 86,-56.5 0,-56.5"/>
<text text-anchor="middle" x="43" y="-63.5" font-family="Helvetica,sans-Serif" font-size="10.00">qms_itemTree.h</text>
</a>
</g>
</g>
<!-- Node2&#45;&gt;Node3 -->
<g id="edge2" class="edge"><title>Node2&#45;&gt;Node3</title>
<path fill="none" stroke="midnightblue" d="M134.074,-166.476C113.127,-159.589 88.9939,-148.688 72,-132 55.7772,-116.07 47.8932,-89.46 44.7418,-75.7523"/>
<polygon fill="midnightblue" stroke="midnightblue" points="133.158,-169.856 143.746,-169.453 135.218,-163.166 133.158,-169.856"/>
</g>
<!-- Node5 -->
<g id="node5" class="node"><title>Node5</title>
<g id="a_node5"><a xlink:href="qms__plugin_info_8h.html" target="_top" xlink:title="qms_pluginInfo.h">
<polygon fill="white" stroke="black" points="81.5,-112.5 81.5,-131.5 170.5,-131.5 170.5,-112.5 81.5,-112.5"/>
<text text-anchor="middle" x="126" y="-119.5" font-family="Helvetica,sans-Serif" font-size="10.00">qms_pluginInfo.h</text>
</a>
</g>
</g>
<!-- Node2&#45;&gt;Node5 -->
<g id="edge4" class="edge"><title>Node2&#45;&gt;Node5</title>
<path fill="none" stroke="midnightblue" d="M162.321,-160.718C153.155,-151.2 141.947,-139.561 134.427,-131.751"/>
<polygon fill="midnightblue" stroke="midnightblue" points="159.956,-163.308 169.413,-168.083 164.998,-158.452 159.956,-163.308"/>
</g>
<!-- Node8 -->
<g id="node8" class="node"><title>Node8</title>
<g id="a_node8"><a xlink:href="qms__server_8h.html" target="_top" xlink:title="qms_server.h">
<polygon fill="white" stroke="black" points="290,-112.5 290,-131.5 364,-131.5 364,-112.5 290,-112.5"/>
<text text-anchor="middle" x="327" y="-119.5" font-family="Helvetica,sans-Serif" font-size="10.00">qms_server.h</text>
</a>
</g>
</g>
<!-- Node2&#45;&gt;Node8 -->
<g id="edge9" class="edge"><title>Node2&#45;&gt;Node8</title>
<path fill="none" stroke="midnightblue" d="M211.371,-164.906C239.384,-154.754 278.696,-140.506 303.501,-131.516"/>
<polygon fill="midnightblue" stroke="midnightblue" points="209.819,-161.746 201.609,-168.444 212.204,-168.327 209.819,-161.746"/>
</g>
<!-- Node9 -->
<g id="node9" class="node"><title>Node9</title>
<g id="a_node9"><a xlink:href="qms__bar_data_8h.html" target="_top" xlink:title="qms_barData.h">
<polygon fill="white" stroke="black" points="188.5,-112.5 188.5,-131.5 271.5,-131.5 271.5,-112.5 188.5,-112.5"/>
<text text-anchor="middle" x="230" y="-119.5" font-family="Helvetica,sans-Serif" font-size="10.00">qms_barData.h</text>
</a>
</g>
</g>
<!-- Node2&#45;&gt;Node9 -->
<g id="edge11" class="edge"><title>Node2&#45;&gt;Node9</title>
<path fill="none" stroke="midnightblue" d="M193.679,-160.718C202.845,-151.2 214.053,-139.561 221.573,-131.751"/>
<polygon fill="midnightblue" stroke="midnightblue" points="191.002,-158.452 186.587,-168.083 196.044,-163.308 191.002,-158.452"/>
</g>
<!-- Node4 -->
<g id="node4" class="node"><title>Node4</title>
<g id="a_node4"><a xlink:href="qms_8h.html" target="_top" xlink:title="QMS API main header. ">
<polygon fill="white" stroke="black" points="162,-0.5 162,-19.5 206,-19.5 206,-0.5 162,-0.5"/>
<text text-anchor="middle" x="184" y="-7.5" font-family="Helvetica,sans-Serif" font-size="10.00">qms.h</text>
</a>
</g>
</g>
<!-- Node3&#45;&gt;Node4 -->
<g id="edge3" class="edge"><title>Node3&#45;&gt;Node4</title>
<path fill="none" stroke="midnightblue" d="M74.9286,-52.772C101.414,-42.6287 138.392,-28.4669 161.763,-19.5164"/>
<polygon fill="midnightblue" stroke="midnightblue" points="73.4287,-49.5985 65.3419,-56.4435 75.9322,-56.1355 73.4287,-49.5985"/>
</g>
<!-- Node6 -->
<g id="node6" class="node"><title>Node6</title>
<g id="a_node6"><a xlink:href="qms__msg_8h.html" target="_top" xlink:title="qms_msg.h">
<polygon fill="white" stroke="black" points="104,-56.5 104,-75.5 172,-75.5 172,-56.5 104,-56.5"/>
<text text-anchor="middle" x="138" y="-63.5" font-family="Helvetica,sans-Serif" font-size="10.00">qms_msg.h</text>
</a>
</g>
</g>
<!-- Node5&#45;&gt;Node6 -->
<g id="edge5" class="edge"><title>Node5&#45;&gt;Node6</title>
<path fill="none" stroke="midnightblue" d="M130.2,-102.101C132.192,-93.1357 134.476,-82.8579 136.055,-75.7511"/>
<polygon fill="midnightblue" stroke="midnightblue" points="126.734,-101.562 127.982,-112.083 133.568,-103.08 126.734,-101.562"/>
</g>
<!-- Node7 -->
<g id="node7" class="node"><title>Node7</title>
<g id="a_node7"><a xlink:href="qms__structs_8h.html" target="_top" xlink:title="qms_structs.h">
<polygon fill="white" stroke="black" points="190.5,-56.5 190.5,-75.5 269.5,-75.5 269.5,-56.5 190.5,-56.5"/>
<text text-anchor="middle" x="230" y="-63.5" font-family="Helvetica,sans-Serif" font-size="10.00">qms_structs.h</text>
</a>
</g>
</g>
<!-- Node5&#45;&gt;Node7 -->
<g id="edge7" class="edge"><title>Node5&#45;&gt;Node7</title>
<path fill="none" stroke="midnightblue" d="M151.828,-107.59C171.057,-97.6052 196.745,-84.2672 213.332,-75.6545"/>
<polygon fill="midnightblue" stroke="midnightblue" points="149.971,-104.61 142.709,-112.324 153.197,-110.822 149.971,-104.61"/>
</g>
<!-- Node6&#45;&gt;Node4 -->
<g id="edge6" class="edge"><title>Node6&#45;&gt;Node4</title>
<path fill="none" stroke="midnightblue" d="M152.114,-48.4314C160.176,-38.9673 169.959,-27.4827 176.545,-19.7511"/>
<polygon fill="midnightblue" stroke="midnightblue" points="149.416,-46.2009 145.596,-56.083 154.745,-50.7402 149.416,-46.2009"/>
</g>
<!-- Node7&#45;&gt;Node4 -->
<g id="edge8" class="edge"><title>Node7&#45;&gt;Node4</title>
<path fill="none" stroke="midnightblue" d="M215.886,-48.4314C207.824,-38.9673 198.041,-27.4827 191.455,-19.7511"/>
<polygon fill="midnightblue" stroke="midnightblue" points="213.255,-50.7402 222.404,-56.083 218.584,-46.2009 213.255,-50.7402"/>
</g>
<!-- Node8&#45;&gt;Node4 -->
<g id="edge10" class="edge"><title>Node8&#45;&gt;Node4</title>
<path fill="none" stroke="midnightblue" d="M317.105,-103.557C308.317,-89.2979 294.353,-69.3775 278,-56 256.294,-38.2428 226.413,-25.4918 206.213,-18.1945"/>
<polygon fill="midnightblue" stroke="midnightblue" points="314.22,-105.555 322.328,-112.374 320.243,-101.987 314.22,-105.555"/>
</g>
<!-- Node9&#45;&gt;Node7 -->
<g id="edge12" class="edge"><title>Node9&#45;&gt;Node7</title>
<path fill="none" stroke="midnightblue" d="M230,-101.805C230,-92.9102 230,-82.7798 230,-75.7511"/>
<polygon fill="midnightblue" stroke="midnightblue" points="226.5,-102.083 230,-112.083 233.5,-102.083 226.5,-102.083"/>
</g>
</g>
</svg>
