<?xml version="1.0" encoding="UTF-8" standalone="no"?>
<!DOCTYPE svg PUBLIC "-//W3C//DTD SVG 1.1//EN"
 "http://www.w3.org/Graphics/SVG/1.1/DTD/svg11.dtd">
<!-- Generated by graphviz version 2.38.0 (20140413.2041)
 -->
<!-- Title: qms_server.h Pages: 1 -->
<!--zoomable 196 -->
<svg id="main" version="1.1" xmlns="http://www.w3.org/2000/svg" xmlns:xlink="http://www.w3.org/1999/xlink" xml:space="preserve" onload="init(evt)">
<style type="text/css"><![CDATA[
.edge:hover path { stroke: red; }
.edge:hover polygon { stroke: red; fill: red; }
]]></style>
<script type="text/javascript"><![CDATA[
var edges = document.getElementsByTagName('g');
if (edges && edges.length) {
  for (var i=0;i<edges.length;i++) {
    if (edges[i].id.substr(0,4)=='edge') {
      edges[i].setAttribute('class','edge');
    }
  }
}
]]></script>
        <defs>
                <circle id="rim" cx="0" cy="0" r="7"/>
                <circle id="rim2" cx="0" cy="0" r="3.5"/>
                <g id="zoomPlus">
                        <use xlink:href="#rim" fill="#404040">
                                <set attributeName="fill" to="#808080" begin="zoomplus.mouseover" end="zoomplus.mouseout"/>
                        </use>
                        <path d="M-4,0h8M0,-4v8" fill="none" stroke="white" stroke-width="1.5" pointer-events="none"/>
                </g>
                <g id="zoomMin">
                        <use xlink:href="#rim" fill="#404040">
                                <set attributeName="fill" to="#808080" begin="zoomminus.mouseover" end="zoomminus.mouseout"/>
                        </use>
                        <path d="M-4,0h8" fill="none" stroke="white" stroke-width="1.5" pointer-events="none"/>
                </g>
                <g id="dirArrow">
                        <path fill="none" stroke="white" stroke-width="1.5" d="M0,-3.0v7 M-2.5,-0.5L0,-3.0L2.5,-0.5"/>
                </g>
               <g id="resetDef">
                       <use xlink:href="#rim2" fill="#404040">
                               <set attributeName="fill" to="#808080" begin="reset.mouseover" end="reset.mouseout"/>
                       </use>
               </g>
        </defs>

<script type="text/javascript">
var viewWidth = 611;
var viewHeight = 196;
var sectionId = 'dynsection-0';
</script>
<script xlink:href="svgpan.js"/>
<svg id="graph" class="graph">
<g id="viewport">
<title>qms_server.h</title>
<polygon fill="white" stroke="none" points="-4,4 -4,-192 607,-192 607,4 -4,4"/>
<!-- Node1 -->
<g id="node1" class="node"><title>Node1</title>
<polygon fill="#bfbfbf" stroke="black" points="243,-168.5 243,-187.5 317,-187.5 317,-168.5 243,-168.5"/>
<text text-anchor="middle" x="280" y="-175.5" font-family="Helvetica,sans-Serif" font-size="10.00">qms_server.h</text>
</g>
<!-- Node2 -->
<g id="node2" class="node"><title>Node2</title>
<g id="a_node2"><a xlink:href="qms__item_8h.html" target="_top" xlink:title="qms_item.h">
<polygon fill="white" stroke="black" points="0,-112.5 0,-131.5 68,-131.5 68,-112.5 0,-112.5"/>
<text text-anchor="middle" x="34" y="-119.5" font-family="Helvetica,sans-Serif" font-size="10.00">qms_item.h</text>
</a>
</g>
</g>
<!-- Node1&#45;&gt;Node2 -->
<g id="edge1" class="edge"><title>Node1&#45;&gt;Node2</title>
<path fill="none" stroke="midnightblue" d="M242.905,-168.857C198.763,-159.167 125.138,-143.006 78.1175,-132.684"/>
<polygon fill="midnightblue" stroke="midnightblue" points="78.7368,-129.237 68.2189,-130.511 77.2359,-136.074 78.7368,-129.237"/>
</g>
<!-- Node8 -->
<g id="node8" class="node"><title>Node8</title>
<g id="a_node8"><a xlink:href="qms__currency_8h.html" target="_top" xlink:title="qms_currency.h">
<polygon fill="white" stroke="black" points="86,-112.5 86,-131.5 172,-131.5 172,-112.5 86,-112.5"/>
<text text-anchor="middle" x="129" y="-119.5" font-family="Helvetica,sans-Serif" font-size="10.00">qms_currency.h</text>
</a>
</g>
</g>
<!-- Node1&#45;&gt;Node8 -->
<g id="edge7" class="edge"><title>Node1&#45;&gt;Node8</title>
<path fill="none" stroke="midnightblue" d="M256.074,-168.444C230.781,-159.399 190.698,-145.064 162.32,-134.916"/>
<polygon fill="midnightblue" stroke="midnightblue" points="163.409,-131.588 152.814,-131.516 161.052,-138.179 163.409,-131.588"/>
</g>
<!-- Node9 -->
<g id="node9" class="node"><title>Node9</title>
<g id="a_node9"><a xlink:href="qms__symbol_8h.html" target="_top" xlink:title="qms_symbol.h">
<polygon fill="white" stroke="black" points="190,-112.5 190,-131.5 270,-131.5 270,-112.5 190,-112.5"/>
<text text-anchor="middle" x="230" y="-119.5" font-family="Helvetica,sans-Serif" font-size="10.00">qms_symbol.h</text>
</a>
</g>
</g>
<!-- Node1&#45;&gt;Node9 -->
<g id="edge8" class="edge"><title>Node1&#45;&gt;Node9</title>
<path fill="none" stroke="midnightblue" d="M271.744,-168.083C264.535,-160.298 253.89,-148.801 245.154,-139.367"/>
<polygon fill="midnightblue" stroke="midnightblue" points="247.465,-136.711 238.103,-131.751 242.329,-141.467 247.465,-136.711"/>
</g>
<!-- Node10 -->
<g id="node10" class="node"><title>Node10</title>
<g id="a_node10"><a xlink:href="qms__bank_info_8h.html" target="_top" xlink:title="qms_bankInfo.h">
<polygon fill="white" stroke="black" points="288.5,-112.5 288.5,-131.5 373.5,-131.5 373.5,-112.5 288.5,-112.5"/>
<text text-anchor="middle" x="331" y="-119.5" font-family="Helvetica,sans-Serif" font-size="10.00">qms_bankInfo.h</text>
</a>
</g>
</g>
<!-- Node1&#45;&gt;Node10 -->
<g id="edge9" class="edge"><title>Node1&#45;&gt;Node10</title>
<path fill="none" stroke="midnightblue" d="M288.422,-168.083C295.848,-160.22 306.852,-148.569 315.812,-139.081"/>
<polygon fill="midnightblue" stroke="midnightblue" points="318.413,-141.424 322.735,-131.751 313.324,-136.618 318.413,-141.424"/>
</g>
<!-- Node12 -->
<g id="node12" class="node"><title>Node12</title>
<g id="a_node12"><a xlink:href="qms__exposure_8h.html" target="_top" xlink:title="qms_exposure.h">
<polygon fill="white" stroke="black" points="391.5,-112.5 391.5,-131.5 480.5,-131.5 480.5,-112.5 391.5,-112.5"/>
<text text-anchor="middle" x="436" y="-119.5" font-family="Helvetica,sans-Serif" font-size="10.00">qms_exposure.h</text>
</a>
</g>
</g>
<!-- Node1&#45;&gt;Node12 -->
<g id="edge14" class="edge"><title>Node1&#45;&gt;Node12</title>
<path fill="none" stroke="midnightblue" d="M304.719,-168.444C330.848,-159.399 372.259,-145.064 401.576,-134.916"/>
<polygon fill="midnightblue" stroke="midnightblue" points="403.092,-138.095 411.397,-131.516 400.802,-131.48 403.092,-138.095"/>
</g>
<!-- Node13 -->
<g id="node13" class="node"><title>Node13</title>
<g id="a_node13"><a xlink:href="qms__market_depth_8h.html" target="_top" xlink:title="qms_marketDepth.h">
<polygon fill="white" stroke="black" points="499,-112.5 499,-131.5 603,-131.5 603,-112.5 499,-112.5"/>
<text text-anchor="middle" x="551" y="-119.5" font-family="Helvetica,sans-Serif" font-size="10.00">qms_marketDepth.h</text>
</a>
</g>
</g>
<!-- Node1&#45;&gt;Node13 -->
<g id="edge15" class="edge"><title>Node1&#45;&gt;Node13</title>
<path fill="none" stroke="midnightblue" d="M317.113,-169.605C363.961,-160.27 444.85,-144.152 498.144,-133.532"/>
<polygon fill="midnightblue" stroke="midnightblue" points="498.964,-136.938 508.087,-131.551 497.596,-130.073 498.964,-136.938"/>
</g>
<!-- Node3 -->
<g id="node3" class="node"><title>Node3</title>
<g id="a_node3"><a xlink:href="qms__cs_8h.html" target="_top" xlink:title="qms_cs.h">
<polygon fill="white" stroke="black" points="2.5,-56.5 2.5,-75.5 61.5,-75.5 61.5,-56.5 2.5,-56.5"/>
<text text-anchor="middle" x="32" y="-63.5" font-family="Helvetica,sans-Serif" font-size="10.00">qms_cs.h</text>
</a>
</g>
</g>
<!-- Node2&#45;&gt;Node3 -->
<g id="edge2" class="edge"><title>Node2&#45;&gt;Node3</title>
<path fill="none" stroke="midnightblue" d="M33.6697,-112.083C33.4076,-105.006 33.0319,-94.8611 32.7032,-85.9865"/>
<polygon fill="midnightblue" stroke="midnightblue" points="36.1919,-85.6147 32.3241,-75.7511 29.1967,-85.8738 36.1919,-85.6147"/>
</g>
<!-- Node4 -->
<g id="node4" class="node"><title>Node4</title>
<g id="a_node4"><a xlink:href="qms__string_8h.html" target="_top" xlink:title="qms_string.h">
<polygon fill="white" stroke="black" points="79.5,-56.5 79.5,-75.5 152.5,-75.5 152.5,-56.5 79.5,-56.5"/>
<text text-anchor="middle" x="116" y="-63.5" font-family="Helvetica,sans-Serif" font-size="10.00">qms_string.h</text>
</a>
</g>
</g>
<!-- Node2&#45;&gt;Node4 -->
<g id="edge3" class="edge"><title>Node2&#45;&gt;Node4</title>
<path fill="none" stroke="midnightblue" d="M47.1747,-112.324C59.8468,-103.979 79.2334,-91.2122 94.2056,-81.3524"/>
<polygon fill="midnightblue" stroke="midnightblue" points="96.4312,-84.0776 102.858,-75.6545 92.5813,-78.2313 96.4312,-84.0776"/>
</g>
<!-- Node7 -->
<g id="node7" class="node"><title>Node7</title>
<g id="a_node7"><a xlink:href="qms__tarray_8h.html" target="_top" xlink:title="qms_tarray.h">
<polygon fill="white" stroke="black" points="171,-56.5 171,-75.5 245,-75.5 245,-56.5 171,-56.5"/>
<text text-anchor="middle" x="208" y="-63.5" font-family="Helvetica,sans-Serif" font-size="10.00">qms_tarray.h</text>
</a>
</g>
</g>
<!-- Node2&#45;&gt;Node7 -->
<g id="edge6" class="edge"><title>Node2&#45;&gt;Node7</title>
<path fill="none" stroke="midnightblue" d="M61.5708,-112.444C91.0974,-103.28 138.118,-88.6876 170.883,-78.5192"/>
<polygon fill="midnightblue" stroke="midnightblue" points="172.045,-81.8232 180.558,-75.5164 169.97,-75.1378 172.045,-81.8232"/>
</g>
<!-- Node5 -->
<g id="node5" class="node"><title>Node5</title>
<g id="a_node5"><a xlink:href="qms__exception_8h.html" target="_top" xlink:title="qms_exception.h">
<polygon fill="white" stroke="black" points="70.5,-0.5 70.5,-19.5 161.5,-19.5 161.5,-0.5 70.5,-0.5"/>
<text text-anchor="middle" x="116" y="-7.5" font-family="Helvetica,sans-Serif" font-size="10.00">qms_exception.h</text>
</a>
</g>
</g>
<!-- Node4&#45;&gt;Node5 -->
<g id="edge4" class="edge"><title>Node4&#45;&gt;Node5</title>
<path fill="none" stroke="midnightblue" d="M116,-56.083C116,-49.0059 116,-38.8611 116,-29.9865"/>
<polygon fill="midnightblue" stroke="midnightblue" points="119.5,-29.751 116,-19.7511 112.5,-29.7511 119.5,-29.751"/>
</g>
<!-- Node6 -->
<g id="node6" class="node"><title>Node6</title>
<polygon fill="white" stroke="#bfbfbf" points="248.5,-0.5 248.5,-19.5 297.5,-19.5 297.5,-0.5 248.5,-0.5"/>
<text text-anchor="middle" x="273" y="-7.5" font-family="Helvetica,sans-Serif" font-size="10.00">stdint.h</text>
</g>
<!-- Node4&#45;&gt;Node6 -->
<g id="edge5" class="edge"><title>Node4&#45;&gt;Node6</title>
<path fill="none" stroke="midnightblue" d="M140.877,-56.4435C167.367,-47.3324 209.462,-32.8539 239.002,-22.6936"/>
<polygon fill="midnightblue" stroke="midnightblue" points="240.18,-25.9898 248.498,-19.4275 237.903,-19.3704 240.18,-25.9898"/>
</g>
<!-- Node10&#45;&gt;Node6 -->
<g id="edge13" class="edge"><title>Node10&#45;&gt;Node6</title>
<path fill="none" stroke="midnightblue" d="M321.331,-112.247C312.514,-103.772 299.721,-90.1592 292,-76 284.085,-61.4847 279.132,-43.3027 276.276,-29.8624"/>
<polygon fill="midnightblue" stroke="midnightblue" points="279.68,-29.0293 274.351,-19.8723 272.806,-30.354 279.68,-29.0293"/>
</g>
<!-- Node10&#45;&gt;Node7 -->
<g id="edge12" class="edge"><title>Node10&#45;&gt;Node7</title>
<path fill="none" stroke="midnightblue" d="M311.51,-112.444C291.358,-103.596 259.677,-89.6875 236.669,-79.5865"/>
<polygon fill="midnightblue" stroke="midnightblue" points="237.962,-76.3316 227.399,-75.5164 235.148,-82.7411 237.962,-76.3316"/>
</g>
<!-- Node11 -->
<g id="node11" class="node"><title>Node11</title>
<g id="a_node11"><a xlink:href="qms__mm_8h.html" target="_top" xlink:title="qms_mm.h">
<polygon fill="white" stroke="black" points="301.5,-56.5 301.5,-75.5 366.5,-75.5 366.5,-56.5 301.5,-56.5"/>
<text text-anchor="middle" x="334" y="-63.5" font-family="Helvetica,sans-Serif" font-size="10.00">qms_mm.h</text>
</a>
</g>
</g>
<!-- Node10&#45;&gt;Node11 -->
<g id="edge10" class="edge"><title>Node10&#45;&gt;Node11</title>
<path fill="none" stroke="midnightblue" d="M331.495,-112.083C331.889,-105.006 332.452,-94.8611 332.945,-85.9865"/>
<polygon fill="midnightblue" stroke="midnightblue" points="336.454,-85.9299 333.514,-75.7511 329.464,-85.5415 336.454,-85.9299"/>
</g>
<!-- Node11&#45;&gt;Node6 -->
<g id="edge11" class="edge"><title>Node11&#45;&gt;Node6</title>
<path fill="none" stroke="midnightblue" d="M324.199,-56.324C315.182,-48.3414 301.594,-36.3128 290.682,-26.6529"/>
<polygon fill="midnightblue" stroke="midnightblue" points="292.787,-23.8416 282.979,-19.8339 288.147,-29.083 292.787,-23.8416"/>
</g>
<!-- Node14 -->
<g id="node14" class="node"><title>Node14</title>
<g id="a_node14"><a xlink:href="qms__price_vol_8h_source.html" target="_top" xlink:title="qms_priceVol.h">
<polygon fill="white" stroke="black" points="509,-56.5 509,-75.5 593,-75.5 593,-56.5 509,-56.5"/>
<text text-anchor="middle" x="551" y="-63.5" font-family="Helvetica,sans-Serif" font-size="10.00">qms_priceVol.h</text>
</a>
</g>
</g>
<!-- Node13&#45;&gt;Node14 -->
<g id="edge16" class="edge"><title>Node13&#45;&gt;Node14</title>
<path fill="none" stroke="midnightblue" d="M551,-112.083C551,-105.006 551,-94.8611 551,-85.9865"/>
<polygon fill="midnightblue" stroke="midnightblue" points="554.5,-85.751 551,-75.7511 547.5,-85.7511 554.5,-85.751"/>
</g>
</g>
</svg>
        <g id="navigator" transform="translate(0 0)" fill="#404254">
                <rect fill="#f2f5e9" fill-opacity="0.5" stroke="#606060" stroke-width=".5" x="0" y="0" width="60" height="60"/>
                <use id="zoomplus" xlink:href="#zoomPlus" x="17" y="9" onmousedown="handleZoom(evt,'in')"/>
                <use id="zoomminus" xlink:href="#zoomMin" x="42" y="9" onmousedown="handleZoom(evt,'out')"/>
                <use id="reset" xlink:href="#resetDef" x="30" y="36" onmousedown="handleReset()"/>
                <g id="arrowUp" xlink:href="#dirArrow" transform="translate(30 24)" onmousedown="handlePan(0,-1)">
                  <use xlink:href="#rim" fill="#404040">
                        <set attributeName="fill" to="#808080" begin="arrowUp.mouseover" end="arrowUp.mouseout"/>
                  </use>
                  <path fill="none" stroke="white" stroke-width="1.5" d="M0,-3.0v7 M-2.5,-0.5L0,-3.0L2.5,-0.5"/>
                </g>
                <g id="arrowRight" xlink:href="#dirArrow" transform="rotate(90) translate(36 -43)" onmousedown="handlePan(1,0)">
                  <use xlink:href="#rim" fill="#404040">
                        <set attributeName="fill" to="#808080" begin="arrowRight.mouseover" end="arrowRight.mouseout"/>
                  </use>
                  <path fill="none" stroke="white" stroke-width="1.5" d="M0,-3.0v7 M-2.5,-0.5L0,-3.0L2.5,-0.5"/>
                </g>
                <g id="arrowDown" xlink:href="#dirArrow" transform="rotate(180) translate(-30 -48)" onmousedown="handlePan(0,1)">
                  <use xlink:href="#rim" fill="#404040">
                        <set attributeName="fill" to="#808080" begin="arrowDown.mouseover" end="arrowDown.mouseout"/>
                  </use>
                  <path fill="none" stroke="white" stroke-width="1.5" d="M0,-3.0v7 M-2.5,-0.5L0,-3.0L2.5,-0.5"/>
                </g>
                <g id="arrowLeft" xlink:href="#dirArrow" transform="rotate(270) translate(-36 17)" onmousedown="handlePan(-1,0)">
                  <use xlink:href="#rim" fill="#404040">
                        <set attributeName="fill" to="#808080" begin="arrowLeft.mouseover" end="arrowLeft.mouseout"/>
                  </use>
                  <path fill="none" stroke="white" stroke-width="1.5" d="M0,-3.0v7 M-2.5,-0.5L0,-3.0L2.5,-0.5"/>
                </g>
        </g>
        <svg viewBox="0 0 15 15" width="100%" height="30px" preserveAspectRatio="xMaxYMin meet">
         <g id="arrow_out" transform="scale(0.3 0.3)">
          <a xlink:href="qms__server_8h__incl_org.svg" target="_base">
           <rect id="button" ry="5" rx="5" y="6" x="6" height="38" width="38"
                fill="#f2f5e9" fill-opacity="0.5" stroke="#606060" stroke-width="1.0"/>
           <path id="arrow"
             d="M 11.500037,31.436501 C 11.940474,20.09759 22.043105,11.32322 32.158766,21.979434 L 37.068811,17.246167 C 37.068811,17.246167 37.088388,32 37.088388,32 L 22.160133,31.978069 C 22.160133,31.978069 26.997745,27.140456 26.997745,27.140456 C 18.528582,18.264221 13.291696,25.230495 11.500037,31.436501 z"
             style="fill:#404040;"/>
          </a>
         </g>
        </svg>
</svg>
