<?xml version="1.0" encoding="UTF-8" standalone="no"?>
<!DOCTYPE svg PUBLIC "-//W3C//DTD SVG 1.1//EN"
 "http://www.w3.org/Graphics/SVG/1.1/DTD/svg11.dtd">
<!-- Generated by graphviz version 2.38.0 (20140413.2041)
 -->
<!-- Title: qms.h Pages: 1 -->
<!--zoomable 308 -->
<svg id="main" version="1.1" xmlns="http://www.w3.org/2000/svg" xmlns:xlink="http://www.w3.org/1999/xlink" xml:space="preserve" onload="init(evt)">
<style type="text/css"><![CDATA[
.edge:hover path { stroke: red; }
.edge:hover polygon { stroke: red; fill: red; }
]]></style>
<script type="text/javascript"><![CDATA[
var edges = document.getElementsByTagName('g');
if (edges && edges.length) {
  for (var i=0;i<edges.length;i++) {
    if (edges[i].id.substr(0,4)=='edge') {
      edges[i].setAttribute('class','edge');
    }
  }
}
]]></script>
        <defs>
                <circle id="rim" cx="0" cy="0" r="7"/>
                <circle id="rim2" cx="0" cy="0" r="3.5"/>
                <g id="zoomPlus">
                        <use xlink:href="#rim" fill="#404040">
                                <set attributeName="fill" to="#808080" begin="zoomplus.mouseover" end="zoomplus.mouseout"/>
                        </use>
                        <path d="M-4,0h8M0,-4v8" fill="none" stroke="white" stroke-width="1.5" pointer-events="none"/>
                </g>
                <g id="zoomMin">
                        <use xlink:href="#rim" fill="#404040">
                                <set attributeName="fill" to="#808080" begin="zoomminus.mouseover" end="zoomminus.mouseout"/>
                        </use>
                        <path d="M-4,0h8" fill="none" stroke="white" stroke-width="1.5" pointer-events="none"/>
                </g>
                <g id="dirArrow">
                        <path fill="none" stroke="white" stroke-width="1.5" d="M0,-3.0v7 M-2.5,-0.5L0,-3.0L2.5,-0.5"/>
                </g>
               <g id="resetDef">
                       <use xlink:href="#rim2" fill="#404040">
                               <set attributeName="fill" to="#808080" begin="reset.mouseover" end="reset.mouseout"/>
                       </use>
               </g>
        </defs>

<script type="text/javascript">
var viewWidth = 1999;
var viewHeight = 308;
var sectionId = 'dynsection-0';
</script>
<script xlink:href="svgpan.js"/>
<svg id="graph" class="graph">
<g id="viewport">
<title>qms.h</title>
<polygon fill="white" stroke="none" points="-4,4 -4,-304 1994.5,-304 1994.5,4 -4,4"/>
<!-- Node1 -->
<g id="node1" class="node"><title>Node1</title>
<polygon fill="#bfbfbf" stroke="black" points="575.5,-280.5 575.5,-299.5 619.5,-299.5 619.5,-280.5 575.5,-280.5"/>
<text text-anchor="middle" x="597.5" y="-287.5" font-family="Helvetica,sans-Serif" font-size="10.00">qms.h</text>
</g>
<!-- Node2 -->
<g id="node2" class="node"><title>Node2</title>
<polygon fill="white" stroke="#bfbfbf" points="0,-224.5 0,-243.5 57,-243.5 57,-224.5 0,-224.5"/>
<text text-anchor="middle" x="28.5" y="-231.5" font-family="Helvetica,sans-Serif" font-size="10.00">AccCtrl.h</text>
</g>
<!-- Node1&#45;&gt;Node2 -->
<g id="edge1" class="edge"><title>Node1&#45;&gt;Node2</title>
<path fill="none" stroke="midnightblue" d="M575.306,-288.348C503.238,-285.974 269.215,-276.253 67.0026,-244.019"/>
<polygon fill="midnightblue" stroke="midnightblue" points="67.5245,-240.558 57.094,-242.417 66.4072,-247.468 67.5245,-240.558"/>
</g>
<!-- Node3 -->
<g id="node3" class="node"><title>Node3</title>
<polygon fill="white" stroke="#bfbfbf" points="75,-224.5 75,-243.5 130,-243.5 130,-224.5 75,-224.5"/>
<text text-anchor="middle" x="102.5" y="-231.5" font-family="Helvetica,sans-Serif" font-size="10.00">AclAPI.h</text>
</g>
<!-- Node1&#45;&gt;Node3 -->
<g id="edge2" class="edge"><title>Node1&#45;&gt;Node3</title>
<path fill="none" stroke="midnightblue" d="M575.426,-287.935C510.33,-284.562 313.397,-272.698 140.343,-243.901"/>
<polygon fill="midnightblue" stroke="midnightblue" points="140.736,-240.418 130.293,-242.204 139.571,-247.32 140.736,-240.418"/>
</g>
<!-- Node4 -->
<g id="node4" class="node"><title>Node4</title>
<polygon fill="white" stroke="#bfbfbf" points="148.5,-224.5 148.5,-243.5 218.5,-243.5 218.5,-224.5 148.5,-224.5"/>
<text text-anchor="middle" x="183.5" y="-231.5" font-family="Helvetica,sans-Serif" font-size="10.00">WinSock2.h</text>
</g>
<!-- Node1&#45;&gt;Node4 -->
<g id="edge3" class="edge"><title>Node1&#45;&gt;Node4</title>
<path fill="none" stroke="midnightblue" d="M575.217,-286.716C518.105,-280.761 361.876,-263.839 232.5,-244 231.226,-243.805 229.934,-243.601 228.63,-243.392"/>
<polygon fill="midnightblue" stroke="midnightblue" points="228.963,-239.899 218.521,-241.692 227.802,-246.802 228.963,-239.899"/>
</g>
<!-- Node5 -->
<g id="node5" class="node"><title>Node5</title>
<polygon fill="white" stroke="#bfbfbf" points="1836,-0.5 1836,-19.5 1885,-19.5 1885,-0.5 1836,-0.5"/>
<text text-anchor="middle" x="1860.5" y="-7.5" font-family="Helvetica,sans-Serif" font-size="10.00">stdint.h</text>
</g>
<!-- Node1&#45;&gt;Node5 -->
<g id="edge4" class="edge"><title>Node1&#45;&gt;Node5</title>
<path fill="none" stroke="midnightblue" d="M619.693,-288.717C788.441,-286.503 1864.17,-271.351 1926.5,-244 1963.63,-227.71 1990.5,-219.542 1990.5,-179 1990.5,-179 1990.5,-179 1990.5,-121 1990.5,-70.7143 1933.11,-38.6913 1894.6,-22.861"/>
<polygon fill="midnightblue" stroke="midnightblue" points="1895.85,-19.5906 1885.26,-19.1839 1893.28,-26.104 1895.85,-19.5906"/>
</g>
<!-- Node6 -->
<g id="node6" class="node"><title>Node6</title>
<polygon fill="white" stroke="#bfbfbf" points="274.5,-224.5 274.5,-243.5 320.5,-243.5 320.5,-224.5 274.5,-224.5"/>
<text text-anchor="middle" x="297.5" y="-231.5" font-family="Helvetica,sans-Serif" font-size="10.00">stdio.h</text>
</g>
<!-- Node1&#45;&gt;Node6 -->
<g id="edge5" class="edge"><title>Node1&#45;&gt;Node6</title>
<path fill="none" stroke="midnightblue" d="M575.459,-286.12C530.98,-280.134 427.168,-265.286 330.75,-244.086"/>
<polygon fill="midnightblue" stroke="midnightblue" points="331.367,-240.638 320.845,-241.879 329.844,-247.47 331.367,-240.638"/>
</g>
<!-- Node7 -->
<g id="node7" class="node"><title>Node7</title>
<polygon fill="white" stroke="#bfbfbf" points="338.5,-224.5 338.5,-243.5 386.5,-243.5 386.5,-224.5 338.5,-224.5"/>
<text text-anchor="middle" x="362.5" y="-231.5" font-family="Helvetica,sans-Serif" font-size="10.00">stdlib.h</text>
</g>
<!-- Node1&#45;&gt;Node7 -->
<g id="edge6" class="edge"><title>Node1&#45;&gt;Node7</title>
<path fill="none" stroke="midnightblue" d="M575.301,-284.412C539.7,-276.977 467.424,-261.572 396.597,-244.184"/>
<polygon fill="midnightblue" stroke="midnightblue" points="397.164,-240.719 386.616,-241.718 395.485,-247.514 397.164,-240.719"/>
</g>
<!-- Node8 -->
<g id="node8" class="node"><title>Node8</title>
<polygon fill="white" stroke="#bfbfbf" points="404.5,-224.5 404.5,-243.5 448.5,-243.5 448.5,-224.5 404.5,-224.5"/>
<text text-anchor="middle" x="426.5" y="-231.5" font-family="Helvetica,sans-Serif" font-size="10.00">time.h</text>
</g>
<!-- Node1&#45;&gt;Node8 -->
<g id="edge7" class="edge"><title>Node1&#45;&gt;Node8</title>
<path fill="none" stroke="midnightblue" d="M575.495,-282.051C545.821,-272.68 492.769,-255.927 458.632,-245.147"/>
<polygon fill="midnightblue" stroke="midnightblue" points="459.281,-241.682 448.692,-242.008 457.173,-248.357 459.281,-241.682"/>
</g>
<!-- Node9 -->
<g id="node9" class="node"><title>Node9</title>
<polygon fill="white" stroke="#bfbfbf" points="466.5,-224.5 466.5,-243.5 500.5,-243.5 500.5,-224.5 466.5,-224.5"/>
<text text-anchor="middle" x="483.5" y="-231.5" font-family="Helvetica,sans-Serif" font-size="10.00">new</text>
</g>
<!-- Node1&#45;&gt;Node9 -->
<g id="edge8" class="edge"><title>Node1&#45;&gt;Node9</title>
<path fill="none" stroke="midnightblue" d="M579.436,-280.444C560.707,-271.572 531.235,-257.611 509.897,-247.504"/>
<polygon fill="midnightblue" stroke="midnightblue" points="511.269,-244.281 500.733,-243.163 508.272,-250.607 511.269,-244.281"/>
</g>
<!-- Node10 -->
<g id="node10" class="node"><title>Node10</title>
<polygon fill="white" stroke="#bfbfbf" points="518.5,-224.5 518.5,-243.5 586.5,-243.5 586.5,-224.5 518.5,-224.5"/>
<text text-anchor="middle" x="552.5" y="-231.5" font-family="Helvetica,sans-Serif" font-size="10.00">xmmintrin.h</text>
</g>
<!-- Node1&#45;&gt;Node10 -->
<g id="edge9" class="edge"><title>Node1&#45;&gt;Node10</title>
<path fill="none" stroke="midnightblue" d="M590.069,-280.083C583.647,-272.377 574.194,-261.033 566.378,-251.653"/>
<polygon fill="midnightblue" stroke="midnightblue" points="568.883,-249.193 559.793,-243.751 563.506,-253.674 568.883,-249.193"/>
</g>
<!-- Node11 -->
<g id="node11" class="node"><title>Node11</title>
<g id="a_node11"><a xlink:href="qms__assert_8h.html" target="_top" xlink:title="Debug Assertions. ">
<polygon fill="white" stroke="black" points="604.5,-224.5 604.5,-243.5 680.5,-243.5 680.5,-224.5 604.5,-224.5"/>
<text text-anchor="middle" x="642.5" y="-231.5" font-family="Helvetica,sans-Serif" font-size="10.00">qms_assert.h</text>
</a>
</g>
</g>
<!-- Node1&#45;&gt;Node11 -->
<g id="edge10" class="edge"><title>Node1&#45;&gt;Node11</title>
<path fill="none" stroke="midnightblue" d="M604.931,-280.083C611.353,-272.377 620.806,-261.033 628.622,-251.653"/>
<polygon fill="midnightblue" stroke="midnightblue" points="631.494,-253.674 635.207,-243.751 626.117,-249.193 631.494,-253.674"/>
</g>
<!-- Node12 -->
<g id="node12" class="node"><title>Node12</title>
<g id="a_node12"><a xlink:href="qms__constants_8h_source.html" target="_top" xlink:title="qms_constants.h">
<polygon fill="white" stroke="black" points="698.5,-224.5 698.5,-243.5 790.5,-243.5 790.5,-224.5 698.5,-224.5"/>
<text text-anchor="middle" x="744.5" y="-231.5" font-family="Helvetica,sans-Serif" font-size="10.00">qms_constants.h</text>
</a>
</g>
</g>
<!-- Node1&#45;&gt;Node12 -->
<g id="edge11" class="edge"><title>Node1&#45;&gt;Node12</title>
<path fill="none" stroke="midnightblue" d="M619.507,-280.916C643.867,-271.967 683.392,-257.448 711.469,-247.134"/>
<polygon fill="midnightblue" stroke="midnightblue" points="712.7,-250.411 720.879,-243.677 710.286,-243.84 712.7,-250.411"/>
</g>
<!-- Node13 -->
<g id="node13" class="node"><title>Node13</title>
<g id="a_node13"><a xlink:href="qms__cs_8h.html" target="_top" xlink:title="qms_cs.h">
<polygon fill="white" stroke="black" points="288,-56.5 288,-75.5 347,-75.5 347,-56.5 288,-56.5"/>
<text text-anchor="middle" x="317.5" y="-63.5" font-family="Helvetica,sans-Serif" font-size="10.00">qms_cs.h</text>
</a>
</g>
</g>
<!-- Node1&#45;&gt;Node13 -->
<g id="edge12" class="edge"><title>Node1&#45;&gt;Node13</title>
<path fill="none" stroke="midnightblue" d="M575.043,-289.584C507.126,-290.822 306.064,-290.433 265.5,-244 224.106,-196.617 276.861,-117.728 303.646,-83.5875"/>
<polygon fill="midnightblue" stroke="midnightblue" points="306.566,-85.5426 310.119,-75.5614 301.117,-81.1482 306.566,-85.5426"/>
</g>
<!-- Node14 -->
<g id="node14" class="node"><title>Node14</title>
<g id="a_node14"><a xlink:href="qms__item_tree_8h_source.html" target="_top" xlink:title="qms_itemTree.h">
<polygon fill="white" stroke="black" points="274.5,-168.5 274.5,-187.5 360.5,-187.5 360.5,-168.5 274.5,-168.5"/>
<text text-anchor="middle" x="317.5" y="-175.5" font-family="Helvetica,sans-Serif" font-size="10.00">qms_itemTree.h</text>
</a>
</g>
</g>
<!-- Node1&#45;&gt;Node14 -->
<g id="edge13" class="edge"><title>Node1&#45;&gt;Node14</title>
<path fill="none" stroke="midnightblue" d="M619.795,-288.974C682.393,-288.203 851.873,-280.941 799.5,-224 768.628,-190.435 450.477,-193.666 370.886,-187.747"/>
<polygon fill="midnightblue" stroke="midnightblue" points="370.875,-184.23 360.586,-186.757 370.205,-191.198 370.875,-184.23"/>
</g>
<!-- Node18 -->
<g id="node18" class="node"><title>Node18</title>
<g id="a_node18"><a xlink:href="qms__tarray_8h.html" target="_top" xlink:title="qms_tarray.h">
<polygon fill="white" stroke="black" points="1820.5,-56.5 1820.5,-75.5 1894.5,-75.5 1894.5,-56.5 1820.5,-56.5"/>
<text text-anchor="middle" x="1857.5" y="-63.5" font-family="Helvetica,sans-Serif" font-size="10.00">qms_tarray.h</text>
</a>
</g>
</g>
<!-- Node1&#45;&gt;Node18 -->
<g id="edge62" class="edge"><title>Node1&#45;&gt;Node18</title>
<path fill="none" stroke="midnightblue" d="M619.794,-288.535C750.077,-285.742 1414.13,-270.405 1616.5,-244 1731.99,-228.931 1799.47,-278.729 1872.5,-188 1896.4,-158.303 1879.25,-110.506 1866.98,-84.7728"/>
<polygon fill="midnightblue" stroke="midnightblue" points="1870.08,-83.1452 1862.46,-75.7853 1863.82,-86.2914 1870.08,-83.1452"/>
</g>
<!-- Node19 -->
<g id="node19" class="node"><title>Node19</title>
<g id="a_node19"><a xlink:href="qms__mm_8h.html" target="_top" xlink:title="qms_mm.h">
<polygon fill="white" stroke="black" points="1897,-112.5 1897,-131.5 1962,-131.5 1962,-112.5 1897,-112.5"/>
<text text-anchor="middle" x="1929.5" y="-119.5" font-family="Helvetica,sans-Serif" font-size="10.00">qms_mm.h</text>
</a>
</g>
</g>
<!-- Node1&#45;&gt;Node19 -->
<g id="edge21" class="edge"><title>Node1&#45;&gt;Node19</title>
<path fill="none" stroke="midnightblue" d="M619.533,-289.014C787.045,-289.026 1854.46,-287.398 1905.5,-244 1934.91,-218.993 1934.8,-169.214 1932.16,-141.945"/>
<polygon fill="midnightblue" stroke="midnightblue" points="1935.61,-141.292 1930.96,-131.774 1928.66,-142.116 1935.61,-141.292"/>
</g>
<!-- Node20 -->
<g id="node20" class="node"><title>Node20</title>
<g id="a_node20"><a xlink:href="qms__msg_8h.html" target="_top" xlink:title="qms_msg.h">
<polygon fill="white" stroke="black" points="846.5,-224.5 846.5,-243.5 914.5,-243.5 914.5,-224.5 846.5,-224.5"/>
<text text-anchor="middle" x="880.5" y="-231.5" font-family="Helvetica,sans-Serif" font-size="10.00">qms_msg.h</text>
</a>
</g>
</g>
<!-- Node1&#45;&gt;Node20 -->
<g id="edge23" class="edge"><title>Node1&#45;&gt;Node20</title>
<path fill="none" stroke="midnightblue" d="M619.707,-284.763C666.267,-275.878 774.863,-255.157 836.227,-243.448"/>
<polygon fill="midnightblue" stroke="midnightblue" points="837.214,-246.823 846.381,-241.51 835.902,-239.947 837.214,-246.823"/>
</g>
<!-- Node30 -->
<g id="node30" class="node"><title>Node30</title>
<g id="a_node30"><a xlink:href="qms__server_8h.html" target="_top" xlink:title="qms_server.h">
<polygon fill="white" stroke="black" points="1533.5,-224.5 1533.5,-243.5 1607.5,-243.5 1607.5,-224.5 1533.5,-224.5"/>
<text text-anchor="middle" x="1570.5" y="-231.5" font-family="Helvetica,sans-Serif" font-size="10.00">qms_server.h</text>
</a>
</g>
</g>
<!-- Node1&#45;&gt;Node30 -->
<g id="edge34" class="edge"><title>Node1&#45;&gt;Node30</title>
<path fill="none" stroke="midnightblue" d="M619.651,-287.771C743.287,-280.909 1348.75,-247.307 1523.31,-237.619"/>
<polygon fill="midnightblue" stroke="midnightblue" points="1523.67,-241.104 1533.46,-237.056 1523.28,-234.115 1523.67,-241.104"/>
</g>
<!-- Node35 -->
<g id="node35" class="node"><title>Node35</title>
<g id="a_node35"><a xlink:href="qms__structs_8h.html" target="_top" xlink:title="qms_structs.h">
<polygon fill="white" stroke="black" points="988,-224.5 988,-243.5 1067,-243.5 1067,-224.5 988,-224.5"/>
<text text-anchor="middle" x="1027.5" y="-231.5" font-family="Helvetica,sans-Serif" font-size="10.00">qms_structs.h</text>
</a>
</g>
</g>
<!-- Node1&#45;&gt;Node35 -->
<g id="edge44" class="edge"><title>Node1&#45;&gt;Node35</title>
<path fill="none" stroke="midnightblue" d="M619.713,-286.21C686.101,-277.873 884.191,-252.997 977.648,-241.261"/>
<polygon fill="midnightblue" stroke="midnightblue" points="978.219,-244.716 987.704,-239.998 977.346,-237.771 978.219,-244.716"/>
</g>
<!-- Node14&#45;&gt;Node13 -->
<g id="edge14" class="edge"><title>Node14&#45;&gt;Node13</title>
<path fill="none" stroke="midnightblue" d="M317.5,-168.368C317.5,-150.617 317.5,-109.666 317.5,-85.5974"/>
<polygon fill="midnightblue" stroke="midnightblue" points="321,-85.5914 317.5,-75.5914 314,-85.5915 321,-85.5914"/>
</g>
<!-- Node15 -->
<g id="node15" class="node"><title>Node15</title>
<g id="a_node15"><a xlink:href="qms__item_8h.html" target="_top" xlink:title="qms_item.h">
<polygon fill="white" stroke="black" points="958.5,-112.5 958.5,-131.5 1026.5,-131.5 1026.5,-112.5 958.5,-112.5"/>
<text text-anchor="middle" x="992.5" y="-119.5" font-family="Helvetica,sans-Serif" font-size="10.00">qms_item.h</text>
</a>
</g>
</g>
<!-- Node14&#45;&gt;Node15 -->
<g id="edge15" class="edge"><title>Node14&#45;&gt;Node15</title>
<path fill="none" stroke="midnightblue" d="M360.581,-169.205C363.595,-168.764 366.59,-168.356 369.5,-168 585.477,-141.576 845.616,-128.929 948.011,-124.695"/>
<polygon fill="midnightblue" stroke="midnightblue" points="948.431,-128.181 958.28,-124.277 948.146,-121.187 948.431,-128.181"/>
</g>
<!-- Node15&#45;&gt;Node13 -->
<g id="edge16" class="edge"><title>Node15&#45;&gt;Node13</title>
<path fill="none" stroke="midnightblue" d="M958.099,-118.248C844.021,-109.122 478.552,-79.8841 357.135,-70.1708"/>
<polygon fill="midnightblue" stroke="midnightblue" points="357.4,-66.6809 347.153,-69.3722 356.842,-73.6586 357.4,-66.6809"/>
</g>
<!-- Node16 -->
<g id="node16" class="node"><title>Node16</title>
<g id="a_node16"><a xlink:href="qms__string_8h.html" target="_top" xlink:title="qms_string.h">
<polygon fill="white" stroke="black" points="1323,-56.5 1323,-75.5 1396,-75.5 1396,-56.5 1323,-56.5"/>
<text text-anchor="middle" x="1359.5" y="-63.5" font-family="Helvetica,sans-Serif" font-size="10.00">qms_string.h</text>
</a>
</g>
</g>
<!-- Node15&#45;&gt;Node16 -->
<g id="edge17" class="edge"><title>Node15&#45;&gt;Node16</title>
<path fill="none" stroke="midnightblue" d="M1026.73,-113.616C1029.69,-113.044 1032.64,-112.497 1035.5,-112 1133.81,-94.9044 1249.81,-80.0762 1312.9,-72.4571"/>
<polygon fill="midnightblue" stroke="midnightblue" points="1313.42,-75.9199 1322.93,-71.2526 1312.59,-68.9698 1313.42,-75.9199"/>
</g>
<!-- Node15&#45;&gt;Node18 -->
<g id="edge20" class="edge"><title>Node15&#45;&gt;Node18</title>
<path fill="none" stroke="midnightblue" d="M1026.69,-113.357C1029.66,-112.841 1032.63,-112.377 1035.5,-112 1328.39,-73.557 1684.17,-67.8564 1810.36,-67.0866"/>
<polygon fill="midnightblue" stroke="midnightblue" points="1810.47,-70.5862 1820.45,-67.0328 1810.43,-63.5863 1810.47,-70.5862"/>
</g>
<!-- Node16&#45;&gt;Node5 -->
<g id="edge19" class="edge"><title>Node16&#45;&gt;Node5</title>
<path fill="none" stroke="midnightblue" d="M1396.34,-61.0293C1489.7,-50.9665 1734.61,-24.5685 1825.71,-14.7497"/>
<polygon fill="midnightblue" stroke="midnightblue" points="1826.22,-18.215 1835.79,-13.6634 1825.47,-11.2553 1826.22,-18.215"/>
</g>
<!-- Node17 -->
<g id="node17" class="node"><title>Node17</title>
<g id="a_node17"><a xlink:href="qms__exception_8h.html" target="_top" xlink:title="qms_exception.h">
<polygon fill="white" stroke="black" points="1314,-0.5 1314,-19.5 1405,-19.5 1405,-0.5 1314,-0.5"/>
<text text-anchor="middle" x="1359.5" y="-7.5" font-family="Helvetica,sans-Serif" font-size="10.00">qms_exception.h</text>
</a>
</g>
</g>
<!-- Node16&#45;&gt;Node17 -->
<g id="edge18" class="edge"><title>Node16&#45;&gt;Node17</title>
<path fill="none" stroke="midnightblue" d="M1359.5,-56.083C1359.5,-49.0059 1359.5,-38.8611 1359.5,-29.9865"/>
<polygon fill="midnightblue" stroke="midnightblue" points="1363,-29.751 1359.5,-19.7511 1356,-29.7511 1363,-29.751"/>
</g>
<!-- Node19&#45;&gt;Node5 -->
<g id="edge22" class="edge"><title>Node19&#45;&gt;Node5</title>
<path fill="none" stroke="midnightblue" d="M1927.12,-112.08C1923.38,-99.0598 1915.33,-74.3997 1903.5,-56 1896.59,-45.2561 1886.89,-34.8388 1878.45,-26.7376"/>
<polygon fill="midnightblue" stroke="midnightblue" points="1880.6,-23.9588 1870.88,-19.745 1875.85,-29.1011 1880.6,-23.9588"/>
</g>
<!-- Node21 -->
<g id="node21" class="node"><title>Node21</title>
<g id="a_node21"><a xlink:href="qms__market_depth_8h.html" target="_top" xlink:title="qms_marketDepth.h">
<polygon fill="white" stroke="black" points="1175.5,-168.5 1175.5,-187.5 1279.5,-187.5 1279.5,-168.5 1175.5,-168.5"/>
<text text-anchor="middle" x="1227.5" y="-175.5" font-family="Helvetica,sans-Serif" font-size="10.00">qms_marketDepth.h</text>
</a>
</g>
</g>
<!-- Node20&#45;&gt;Node21 -->
<g id="edge24" class="edge"><title>Node20&#45;&gt;Node21</title>
<path fill="none" stroke="midnightblue" d="M914.721,-227.674C972.938,-218.615 1092.05,-200.079 1165.32,-188.677"/>
<polygon fill="midnightblue" stroke="midnightblue" points="1166,-192.113 1175.34,-187.117 1164.92,-185.197 1166,-192.113"/>
</g>
<!-- Node23 -->
<g id="node23" class="node"><title>Node23</title>
<g id="a_node23"><a xlink:href="qms__group_8h.html" target="_top" xlink:title="qms_group.h">
<polygon fill="white" stroke="black" points="379,-168.5 379,-187.5 452,-187.5 452,-168.5 379,-168.5"/>
<text text-anchor="middle" x="415.5" y="-175.5" font-family="Helvetica,sans-Serif" font-size="10.00">qms_group.h</text>
</a>
</g>
</g>
<!-- Node20&#45;&gt;Node23 -->
<g id="edge26" class="edge"><title>Node20&#45;&gt;Node23</title>
<path fill="none" stroke="midnightblue" d="M846.473,-226.233C841.789,-225.415 837.033,-224.643 832.5,-224 671.253,-201.127 626.551,-211.877 462.247,-188.132"/>
<polygon fill="midnightblue" stroke="midnightblue" points="462.686,-184.659 452.284,-186.671 461.671,-191.585 462.686,-184.659"/>
</g>
<!-- Node24 -->
<g id="node24" class="node"><title>Node24</title>
<g id="a_node24"><a xlink:href="qms__account_8h.html" target="_top" xlink:title="qms_account.h">
<polygon fill="white" stroke="black" points="470,-168.5 470,-187.5 553,-187.5 553,-168.5 470,-168.5"/>
<text text-anchor="middle" x="511.5" y="-175.5" font-family="Helvetica,sans-Serif" font-size="10.00">qms_account.h</text>
</a>
</g>
</g>
<!-- Node20&#45;&gt;Node24 -->
<g id="edge27" class="edge"><title>Node20&#45;&gt;Node24</title>
<path fill="none" stroke="midnightblue" d="M846.451,-226.384C841.77,-225.542 837.021,-224.724 832.5,-224 715.688,-205.304 683.24,-206.678 563.169,-188.203"/>
<polygon fill="midnightblue" stroke="midnightblue" points="563.636,-184.734 553.218,-186.657 562.562,-191.651 563.636,-184.734"/>
</g>
<!-- Node25 -->
<g id="node25" class="node"><title>Node25</title>
<g id="a_node25"><a xlink:href="qms__deal_8h.html" target="_top" xlink:title="qms_deal.h">
<polygon fill="white" stroke="black" points="571,-168.5 571,-187.5 638,-187.5 638,-168.5 571,-168.5"/>
<text text-anchor="middle" x="604.5" y="-175.5" font-family="Helvetica,sans-Serif" font-size="10.00">qms_deal.h</text>
</a>
</g>
</g>
<!-- Node20&#45;&gt;Node25 -->
<g id="edge28" class="edge"><title>Node20&#45;&gt;Node25</title>
<path fill="none" stroke="midnightblue" d="M846.483,-226.55C794.888,-216.752 698.276,-198.346 648.33,-188.334"/>
<polygon fill="midnightblue" stroke="midnightblue" points="648.908,-184.88 638.413,-186.331 647.522,-191.742 648.908,-184.88"/>
</g>
<!-- Node26 -->
<g id="node26" class="node"><title>Node26</title>
<g id="a_node26"><a xlink:href="qms__order_8h.html" target="_top" xlink:title="qms_order.h">
<polygon fill="white" stroke="black" points="656,-168.5 656,-187.5 727,-187.5 727,-168.5 656,-168.5"/>
<text text-anchor="middle" x="691.5" y="-175.5" font-family="Helvetica,sans-Serif" font-size="10.00">qms_order.h</text>
</a>
</g>
</g>
<!-- Node20&#45;&gt;Node26 -->
<g id="edge29" class="edge"><title>Node20&#45;&gt;Node26</title>
<path fill="none" stroke="midnightblue" d="M850.552,-224.444C818.342,-215.241 766.966,-200.562 731.358,-190.388"/>
<polygon fill="midnightblue" stroke="midnightblue" points="731.884,-186.898 721.308,-187.516 729.961,-193.629 731.884,-186.898"/>
</g>
<!-- Node27 -->
<g id="node27" class="node"><title>Node27</title>
<g id="a_node27"><a xlink:href="qms__limit_8h.html" target="_top" xlink:title="qms_limit.h">
<polygon fill="white" stroke="black" points="745,-168.5 745,-187.5 812,-187.5 812,-168.5 745,-168.5"/>
<text text-anchor="middle" x="778.5" y="-175.5" font-family="Helvetica,sans-Serif" font-size="10.00">qms_limit.h</text>
</a>
</g>
</g>
<!-- Node20&#45;&gt;Node27 -->
<g id="edge30" class="edge"><title>Node20&#45;&gt;Node27</title>
<path fill="none" stroke="midnightblue" d="M864.112,-224.324C847.829,-215.703 822.633,-202.364 803.784,-192.386"/>
<polygon fill="midnightblue" stroke="midnightblue" points="805.323,-189.24 794.847,-187.655 802.048,-195.427 805.323,-189.24"/>
</g>
<!-- Node28 -->
<g id="node28" class="node"><title>Node28</title>
<g id="a_node28"><a xlink:href="qms__deposit_8h.html" target="_top" xlink:title="qms_deposit.h">
<polygon fill="white" stroke="black" points="937.5,-168.5 937.5,-187.5 1017.5,-187.5 1017.5,-168.5 937.5,-168.5"/>
<text text-anchor="middle" x="977.5" y="-175.5" font-family="Helvetica,sans-Serif" font-size="10.00">qms_deposit.h</text>
</a>
</g>
</g>
<!-- Node20&#45;&gt;Node28 -->
<g id="edge31" class="edge"><title>Node20&#45;&gt;Node28</title>
<path fill="none" stroke="midnightblue" d="M896.085,-224.324C911.499,-215.743 935.312,-202.486 953.21,-192.522"/>
<polygon fill="midnightblue" stroke="midnightblue" points="954.919,-195.577 961.954,-187.655 951.514,-189.461 954.919,-195.577"/>
</g>
<!-- Node29 -->
<g id="node29" class="node"><title>Node29</title>
<g id="a_node29"><a xlink:href="qms__plugin_info_8h.html" target="_top" xlink:title="qms_pluginInfo.h">
<polygon fill="white" stroke="black" points="830,-168.5 830,-187.5 919,-187.5 919,-168.5 830,-168.5"/>
<text text-anchor="middle" x="874.5" y="-175.5" font-family="Helvetica,sans-Serif" font-size="10.00">qms_pluginInfo.h</text>
</a>
</g>
</g>
<!-- Node20&#45;&gt;Node29 -->
<g id="edge32" class="edge"><title>Node20&#45;&gt;Node29</title>
<path fill="none" stroke="midnightblue" d="M879.509,-224.083C878.714,-216.927 877.571,-206.635 876.577,-197.691"/>
<polygon fill="midnightblue" stroke="midnightblue" points="880.055,-197.303 875.472,-187.751 873.098,-198.076 880.055,-197.303"/>
</g>
<!-- Node22 -->
<g id="node22" class="node"><title>Node22</title>
<g id="a_node22"><a xlink:href="qms__price_vol_8h_source.html" target="_top" xlink:title="qms_priceVol.h">
<polygon fill="white" stroke="black" points="1163.5,-112.5 1163.5,-131.5 1247.5,-131.5 1247.5,-112.5 1163.5,-112.5"/>
<text text-anchor="middle" x="1205.5" y="-119.5" font-family="Helvetica,sans-Serif" font-size="10.00">qms_priceVol.h</text>
</a>
</g>
</g>
<!-- Node21&#45;&gt;Node22 -->
<g id="edge25" class="edge"><title>Node21&#45;&gt;Node22</title>
<path fill="none" stroke="midnightblue" d="M1223.87,-168.083C1220.89,-160.77 1216.57,-150.181 1212.88,-141.103"/>
<polygon fill="midnightblue" stroke="midnightblue" points="1216.08,-139.691 1209.07,-131.751 1209.6,-142.333 1216.08,-139.691"/>
</g>
<!-- Node29&#45;&gt;Node15 -->
<g id="edge33" class="edge"><title>Node29&#45;&gt;Node15</title>
<path fill="none" stroke="midnightblue" d="M893.197,-168.444C912.444,-159.636 942.652,-145.812 964.7,-135.722"/>
<polygon fill="midnightblue" stroke="midnightblue" points="966.253,-138.86 973.89,-131.516 963.34,-132.495 966.253,-138.86"/>
</g>
<!-- Node30&#45;&gt;Node15 -->
<g id="edge35" class="edge"><title>Node30&#45;&gt;Node15</title>
<path fill="none" stroke="midnightblue" d="M1607.52,-230.24C1665.94,-224.6 1769.11,-208.658 1730.5,-168 1679.02,-113.788 1149.14,-140.051 1036.75,-131.646"/>
<polygon fill="midnightblue" stroke="midnightblue" points="1036.98,-128.152 1026.69,-130.653 1036.29,-135.118 1036.98,-128.152"/>
</g>
<!-- Node30&#45;&gt;Node21 -->
<g id="edge43" class="edge"><title>Node30&#45;&gt;Node21</title>
<path fill="none" stroke="midnightblue" d="M1533.47,-227.17C1475.1,-217.981 1361.05,-200.026 1289.88,-188.821"/>
<polygon fill="midnightblue" stroke="midnightblue" points="1290.13,-185.317 1279.71,-187.219 1289.04,-192.232 1290.13,-185.317"/>
</g>
<!-- Node31 -->
<g id="node31" class="node"><title>Node31</title>
<g id="a_node31"><a xlink:href="qms__currency_8h.html" target="_top" xlink:title="qms_currency.h">
<polygon fill="white" stroke="black" points="1527.5,-168.5 1527.5,-187.5 1613.5,-187.5 1613.5,-168.5 1527.5,-168.5"/>
<text text-anchor="middle" x="1570.5" y="-175.5" font-family="Helvetica,sans-Serif" font-size="10.00">qms_currency.h</text>
</a>
</g>
</g>
<!-- Node30&#45;&gt;Node31 -->
<g id="edge36" class="edge"><title>Node30&#45;&gt;Node31</title>
<path fill="none" stroke="midnightblue" d="M1570.5,-224.083C1570.5,-217.006 1570.5,-206.861 1570.5,-197.986"/>
<polygon fill="midnightblue" stroke="midnightblue" points="1574,-197.751 1570.5,-187.751 1567,-197.751 1574,-197.751"/>
</g>
<!-- Node32 -->
<g id="node32" class="node"><title>Node32</title>
<g id="a_node32"><a xlink:href="qms__symbol_8h.html" target="_top" xlink:title="qms_symbol.h">
<polygon fill="white" stroke="black" points="1429.5,-168.5 1429.5,-187.5 1509.5,-187.5 1509.5,-168.5 1429.5,-168.5"/>
<text text-anchor="middle" x="1469.5" y="-175.5" font-family="Helvetica,sans-Serif" font-size="10.00">qms_symbol.h</text>
</a>
</g>
</g>
<!-- Node30&#45;&gt;Node32 -->
<g id="edge37" class="edge"><title>Node30&#45;&gt;Node32</title>
<path fill="none" stroke="midnightblue" d="M1554.27,-224.324C1538.15,-215.703 1513.2,-202.364 1494.54,-192.386"/>
<polygon fill="midnightblue" stroke="midnightblue" points="1496.16,-189.283 1485.69,-187.655 1492.86,-195.456 1496.16,-189.283"/>
</g>
<!-- Node33 -->
<g id="node33" class="node"><title>Node33</title>
<g id="a_node33"><a xlink:href="qms__bank_info_8h.html" target="_top" xlink:title="qms_bankInfo.h">
<polygon fill="white" stroke="black" points="1778,-168.5 1778,-187.5 1863,-187.5 1863,-168.5 1778,-168.5"/>
<text text-anchor="middle" x="1820.5" y="-175.5" font-family="Helvetica,sans-Serif" font-size="10.00">qms_bankInfo.h</text>
</a>
</g>
</g>
<!-- Node30&#45;&gt;Node33 -->
<g id="edge38" class="edge"><title>Node30&#45;&gt;Node33</title>
<path fill="none" stroke="midnightblue" d="M1607.66,-224.974C1651.09,-215.593 1723.12,-200.033 1771.2,-189.649"/>
<polygon fill="midnightblue" stroke="midnightblue" points="1772.04,-193.049 1781.07,-187.516 1770.56,-186.206 1772.04,-193.049"/>
</g>
<!-- Node34 -->
<g id="node34" class="node"><title>Node34</title>
<g id="a_node34"><a xlink:href="qms__exposure_8h.html" target="_top" xlink:title="qms_exposure.h">
<polygon fill="white" stroke="black" points="1632,-168.5 1632,-187.5 1721,-187.5 1721,-168.5 1632,-168.5"/>
<text text-anchor="middle" x="1676.5" y="-175.5" font-family="Helvetica,sans-Serif" font-size="10.00">qms_exposure.h</text>
</a>
</g>
</g>
<!-- Node30&#45;&gt;Node34 -->
<g id="edge42" class="edge"><title>Node30&#45;&gt;Node34</title>
<path fill="none" stroke="midnightblue" d="M1587.53,-224.324C1604.53,-215.664 1630.88,-202.242 1650.49,-192.249"/>
<polygon fill="midnightblue" stroke="midnightblue" points="1652.19,-195.312 1659.51,-187.655 1649.01,-189.075 1652.19,-195.312"/>
</g>
<!-- Node33&#45;&gt;Node5 -->
<g id="edge41" class="edge"><title>Node33&#45;&gt;Node5</title>
<path fill="none" stroke="midnightblue" d="M1817.18,-168.32C1809.88,-147.772 1794.38,-94.9571 1811.5,-56 1816.89,-43.732 1827.46,-33.3414 1837.4,-25.6461"/>
<polygon fill="midnightblue" stroke="midnightblue" points="1839.75,-28.2697 1845.84,-19.598 1835.67,-22.5811 1839.75,-28.2697"/>
</g>
<!-- Node33&#45;&gt;Node18 -->
<g id="edge40" class="edge"><title>Node33&#45;&gt;Node18</title>
<path fill="none" stroke="midnightblue" d="M1823.4,-168.368C1829.4,-150.537 1843.27,-109.295 1851.35,-85.2717"/>
<polygon fill="midnightblue" stroke="midnightblue" points="1854.74,-86.1855 1854.61,-75.5914 1848.1,-83.9537 1854.74,-86.1855"/>
</g>
<!-- Node33&#45;&gt;Node19 -->
<g id="edge39" class="edge"><title>Node33&#45;&gt;Node19</title>
<path fill="none" stroke="midnightblue" d="M1838.01,-168.324C1855.57,-159.625 1882.83,-146.12 1903.03,-136.113"/>
<polygon fill="midnightblue" stroke="midnightblue" points="1904.62,-139.23 1912.03,-131.655 1901.52,-132.958 1904.62,-139.23"/>
</g>
<!-- Node35&#45;&gt;Node21 -->
<g id="edge57" class="edge"><title>Node35&#45;&gt;Node21</title>
<path fill="none" stroke="midnightblue" d="M1059.19,-224.444C1093.57,-215.162 1148.58,-200.309 1186.29,-190.127"/>
<polygon fill="midnightblue" stroke="midnightblue" points="1187.22,-193.502 1195.96,-187.516 1185.39,-186.744 1187.22,-193.502"/>
</g>
<!-- Node35&#45;&gt;Node22 -->
<g id="edge60" class="edge"><title>Node35&#45;&gt;Node22</title>
<path fill="none" stroke="midnightblue" d="M1051.45,-224.35C1072.31,-216.329 1102.96,-203.342 1127.5,-188 1150.45,-173.649 1173.93,-153.126 1189.05,-139"/>
<polygon fill="midnightblue" stroke="midnightblue" points="1191.7,-141.316 1196.53,-131.89 1186.87,-136.242 1191.7,-141.316"/>
</g>
<!-- Node35&#45;&gt;Node23 -->
<g id="edge55" class="edge"><title>Node35&#45;&gt;Node23</title>
<path fill="none" stroke="midnightblue" d="M987.999,-229.5C968.575,-227.8 944.813,-225.751 923.5,-224 721.109,-207.375 666.694,-216.001 462.433,-188.127"/>
<polygon fill="midnightblue" stroke="midnightblue" points="462.66,-184.626 452.276,-186.728 461.705,-191.56 462.66,-184.626"/>
</g>
<!-- Node35&#45;&gt;Node24 -->
<g id="edge45" class="edge"><title>Node35&#45;&gt;Node24</title>
<path fill="none" stroke="midnightblue" d="M987.795,-229.588C894.189,-221.477 660.818,-200.857 563.306,-188.128"/>
<polygon fill="midnightblue" stroke="midnightblue" points="563.578,-184.634 553.201,-186.77 562.645,-191.571 563.578,-184.634"/>
</g>
<!-- Node35&#45;&gt;Node25 -->
<g id="edge51" class="edge"><title>Node35&#45;&gt;Node25</title>
<path fill="none" stroke="midnightblue" d="M987.837,-229.548C920.151,-223.39 777.827,-209.28 648.457,-188.204"/>
<polygon fill="midnightblue" stroke="midnightblue" points="648.81,-184.715 638.374,-186.543 647.672,-191.622 648.81,-184.715"/>
</g>
<!-- Node35&#45;&gt;Node26 -->
<g id="edge58" class="edge"><title>Node35&#45;&gt;Node26</title>
<path fill="none" stroke="midnightblue" d="M987.725,-227.499C933.358,-219.841 832.562,-205.154 737.123,-188.225"/>
<polygon fill="midnightblue" stroke="midnightblue" points="737.473,-184.732 727.013,-186.419 736.242,-191.623 737.473,-184.732"/>
</g>
<!-- Node35&#45;&gt;Node27 -->
<g id="edge56" class="edge"><title>Node35&#45;&gt;Node27</title>
<path fill="none" stroke="midnightblue" d="M988.045,-224.444C942.819,-214.635 868.913,-198.608 822.04,-188.442"/>
<polygon fill="midnightblue" stroke="midnightblue" points="822.695,-185.003 812.18,-186.304 821.211,-191.844 822.695,-185.003"/>
</g>
<!-- Node35&#45;&gt;Node28 -->
<g id="edge52" class="edge"><title>Node35&#45;&gt;Node28</title>
<path fill="none" stroke="midnightblue" d="M1019.24,-224.083C1012.04,-216.298 1001.39,-204.801 992.654,-195.367"/>
<polygon fill="midnightblue" stroke="midnightblue" points="994.965,-192.711 985.603,-187.751 989.829,-197.467 994.965,-192.711"/>
</g>
<!-- Node35&#45;&gt;Node29 -->
<g id="edge59" class="edge"><title>Node35&#45;&gt;Node29</title>
<path fill="none" stroke="midnightblue" d="M1003.26,-224.444C977.629,-215.399 937.015,-201.064 908.262,-190.916"/>
<polygon fill="midnightblue" stroke="midnightblue" points="909.225,-187.544 898.63,-187.516 906.895,-194.145 909.225,-187.544"/>
</g>
<!-- Node35&#45;&gt;Node31 -->
<g id="edge50" class="edge"><title>Node35&#45;&gt;Node31</title>
<path fill="none" stroke="midnightblue" d="M1067.08,-230.451C1149.09,-224.938 1343.72,-210.65 1517.32,-188.056"/>
<polygon fill="midnightblue" stroke="midnightblue" points="1517.95,-191.504 1527.41,-186.731 1517.04,-184.564 1517.95,-191.504"/>
</g>
<!-- Node35&#45;&gt;Node32 -->
<g id="edge61" class="edge"><title>Node35&#45;&gt;Node32</title>
<path fill="none" stroke="midnightblue" d="M1067.11,-229.296C1137.98,-222.482 1291.07,-206.91 1419.5,-188 1419.6,-187.985 1419.7,-187.97 1419.8,-187.955"/>
<polygon fill="midnightblue" stroke="midnightblue" points="1420.08,-191.454 1429.42,-186.447 1419,-184.539 1420.08,-191.454"/>
</g>
<!-- Node35&#45;&gt;Node33 -->
<g id="edge46" class="edge"><title>Node35&#45;&gt;Node33</title>
<path fill="none" stroke="midnightblue" d="M1067.18,-230.959C1174.27,-225.34 1478.19,-208.684 1730.5,-188 1742.6,-187.008 1755.61,-185.793 1767.87,-184.582"/>
<polygon fill="midnightblue" stroke="midnightblue" points="1768.35,-188.051 1777.95,-183.57 1767.65,-181.086 1768.35,-188.051"/>
</g>
<!-- Node35&#45;&gt;Node34 -->
<g id="edge53" class="edge"><title>Node35&#45;&gt;Node34</title>
<path fill="none" stroke="midnightblue" d="M1067.31,-231.224C1161.66,-226.752 1406.43,-213.599 1621.54,-188.003"/>
<polygon fill="midnightblue" stroke="midnightblue" points="1622.24,-191.443 1631.76,-186.775 1621.41,-184.493 1622.24,-191.443"/>
</g>
<!-- Node36 -->
<g id="node36" class="node"><title>Node36</title>
<g id="a_node36"><a xlink:href="qms__bar_data_8h.html" target="_top" xlink:title="qms_barData.h">
<polygon fill="white" stroke="black" points="1036,-168.5 1036,-187.5 1119,-187.5 1119,-168.5 1036,-168.5"/>
<text text-anchor="middle" x="1077.5" y="-175.5" font-family="Helvetica,sans-Serif" font-size="10.00">qms_barData.h</text>
</a>
</g>
</g>
<!-- Node35&#45;&gt;Node36 -->
<g id="edge47" class="edge"><title>Node35&#45;&gt;Node36</title>
<path fill="none" stroke="midnightblue" d="M1035.76,-224.083C1042.96,-216.298 1053.61,-204.801 1062.35,-195.367"/>
<polygon fill="midnightblue" stroke="midnightblue" points="1065.17,-197.467 1069.4,-187.751 1060.03,-192.711 1065.17,-197.467"/>
</g>
<!-- Node38 -->
<g id="node38" class="node"><title>Node38</title>
<g id="a_node38"><a xlink:href="qms__exposure_trade_8h.html" target="_top" xlink:title="qms_exposureTrade.h">
<polygon fill="white" stroke="black" points="1298,-168.5 1298,-187.5 1411,-187.5 1411,-168.5 1298,-168.5"/>
<text text-anchor="middle" x="1354.5" y="-175.5" font-family="Helvetica,sans-Serif" font-size="10.00">qms_exposureTrade.h</text>
</a>
</g>
</g>
<!-- Node35&#45;&gt;Node38 -->
<g id="edge54" class="edge"><title>Node35&#45;&gt;Node38</title>
<path fill="none" stroke="midnightblue" d="M1067.27,-226.433C1123.53,-217.142 1226.86,-200.079 1293.03,-189.151"/>
<polygon fill="midnightblue" stroke="midnightblue" points="1293.62,-192.601 1302.92,-187.518 1292.48,-185.694 1293.62,-192.601"/>
</g>
<!-- Node36&#45;&gt;Node15 -->
<g id="edge48" class="edge"><title>Node36&#45;&gt;Node15</title>
<path fill="none" stroke="midnightblue" d="M1063.84,-168.324C1050.58,-159.9 1030.23,-146.971 1014.65,-137.074"/>
<polygon fill="midnightblue" stroke="midnightblue" points="1016.44,-134.063 1006.12,-131.655 1012.69,-139.971 1016.44,-134.063"/>
</g>
<!-- Node37 -->
<g id="node37" class="node"><title>Node37</title>
<g id="a_node37"><a xlink:href="qms__price_data_8h.html" target="_top" xlink:title="qms_priceData.h">
<polygon fill="white" stroke="black" points="1044.5,-112.5 1044.5,-131.5 1134.5,-131.5 1134.5,-112.5 1044.5,-112.5"/>
<text text-anchor="middle" x="1089.5" y="-119.5" font-family="Helvetica,sans-Serif" font-size="10.00">qms_priceData.h</text>
</a>
</g>
</g>
<!-- Node36&#45;&gt;Node37 -->
<g id="edge49" class="edge"><title>Node36&#45;&gt;Node37</title>
<path fill="none" stroke="midnightblue" d="M1079.48,-168.083C1081.07,-160.927 1083.36,-150.635 1085.35,-141.691"/>
<polygon fill="midnightblue" stroke="midnightblue" points="1088.8,-142.272 1087.56,-131.751 1081.97,-140.754 1088.8,-142.272"/>
</g>
</g>
</svg>
        <g id="navigator" transform="translate(0 0)" fill="#404254">
                <rect fill="#f2f5e9" fill-opacity="0.5" stroke="#606060" stroke-width=".5" x="0" y="0" width="60" height="60"/>
                <use id="zoomplus" xlink:href="#zoomPlus" x="17" y="9" onmousedown="handleZoom(evt,'in')"/>
                <use id="zoomminus" xlink:href="#zoomMin" x="42" y="9" onmousedown="handleZoom(evt,'out')"/>
                <use id="reset" xlink:href="#resetDef" x="30" y="36" onmousedown="handleReset()"/>
                <g id="arrowUp" xlink:href="#dirArrow" transform="translate(30 24)" onmousedown="handlePan(0,-1)">
                  <use xlink:href="#rim" fill="#404040">
                        <set attributeName="fill" to="#808080" begin="arrowUp.mouseover" end="arrowUp.mouseout"/>
                  </use>
                  <path fill="none" stroke="white" stroke-width="1.5" d="M0,-3.0v7 M-2.5,-0.5L0,-3.0L2.5,-0.5"/>
                </g>
                <g id="arrowRight" xlink:href="#dirArrow" transform="rotate(90) translate(36 -43)" onmousedown="handlePan(1,0)">
                  <use xlink:href="#rim" fill="#404040">
                        <set attributeName="fill" to="#808080" begin="arrowRight.mouseover" end="arrowRight.mouseout"/>
                  </use>
                  <path fill="none" stroke="white" stroke-width="1.5" d="M0,-3.0v7 M-2.5,-0.5L0,-3.0L2.5,-0.5"/>
                </g>
                <g id="arrowDown" xlink:href="#dirArrow" transform="rotate(180) translate(-30 -48)" onmousedown="handlePan(0,1)">
                  <use xlink:href="#rim" fill="#404040">
                        <set attributeName="fill" to="#808080" begin="arrowDown.mouseover" end="arrowDown.mouseout"/>
                  </use>
                  <path fill="none" stroke="white" stroke-width="1.5" d="M0,-3.0v7 M-2.5,-0.5L0,-3.0L2.5,-0.5"/>
                </g>
                <g id="arrowLeft" xlink:href="#dirArrow" transform="rotate(270) translate(-36 17)" onmousedown="handlePan(-1,0)">
                  <use xlink:href="#rim" fill="#404040">
                        <set attributeName="fill" to="#808080" begin="arrowLeft.mouseover" end="arrowLeft.mouseout"/>
                  </use>
                  <path fill="none" stroke="white" stroke-width="1.5" d="M0,-3.0v7 M-2.5,-0.5L0,-3.0L2.5,-0.5"/>
                </g>
        </g>
        <svg viewBox="0 0 15 15" width="100%" height="30px" preserveAspectRatio="xMaxYMin meet">
         <g id="arrow_out" transform="scale(0.3 0.3)">
          <a xlink:href="qms_8h__incl_org.svg" target="_base">
           <rect id="button" ry="5" rx="5" y="6" x="6" height="38" width="38"
                fill="#f2f5e9" fill-opacity="0.5" stroke="#606060" stroke-width="1.0"/>
           <path id="arrow"
             d="M 11.500037,31.436501 C 11.940474,20.09759 22.043105,11.32322 32.158766,21.979434 L 37.068811,17.246167 C 37.068811,17.246167 37.088388,32 37.088388,32 L 22.160133,31.978069 C 22.160133,31.978069 26.997745,27.140456 26.997745,27.140456 C 18.528582,18.264221 13.291696,25.230495 11.500037,31.436501 z"
             style="fill:#404040;"/>
          </a>
         </g>
        </svg>
</svg>
