<?xml version="1.0" encoding="UTF-8" standalone="no"?>
<!DOCTYPE svg PUBLIC "-//W3C//DTD SVG 1.1//EN"
 "http://www.w3.org/Graphics/SVG/1.1/DTD/svg11.dtd">
<!-- Generated by graphviz version 2.38.0 (20140413.2041)
 -->
<!-- Title: qms_tarray.h Pages: 1 -->
<svg width="388pt" height="252pt"
 viewBox="0.00 0.00 387.63 252.00" xmlns="http://www.w3.org/2000/svg" xmlns:xlink="http://www.w3.org/1999/xlink">
<g id="graph0" class="graph" transform="scale(1 1) rotate(0) translate(4 248)">
<title>qms_tarray.h</title>
<polygon fill="white" stroke="none" points="-4,4 -4,-248 383.633,-248 383.633,4 -4,4"/>
<!-- Node1 -->
<g id="node1" class="node"><title>Node1</title>
<polygon fill="#bfbfbf" stroke="black" points="143.405,-224.5 143.405,-243.5 217.405,-243.5 217.405,-224.5 143.405,-224.5"/>
<text text-anchor="middle" x="180.405" y="-231.5" font-family="Helvetica,sans-Serif" font-size="10.00">qms_tarray.h</text>
</g>
<!-- Node2 -->
<g id="node2" class="node"><title>Node2</title>
<g id="a_node2"><a xlink:href="qms__item_8h.html" target="_top" xlink:title="qms_item.h">
<polygon fill="white" stroke="black" points="146.405,-168.5 146.405,-187.5 214.405,-187.5 214.405,-168.5 146.405,-168.5"/>
<text text-anchor="middle" x="180.405" y="-175.5" font-family="Helvetica,sans-Serif" font-size="10.00">qms_item.h</text>
</a>
</g>
</g>
<!-- Node1&#45;&gt;Node2 -->
<g id="edge1" class="edge"><title>Node1&#45;&gt;Node2</title>
<path fill="none" stroke="midnightblue" d="M180.405,-213.805C180.405,-204.91 180.405,-194.78 180.405,-187.751"/>
<polygon fill="midnightblue" stroke="midnightblue" points="176.905,-214.083 180.405,-224.083 183.905,-214.083 176.905,-214.083"/>
</g>
<!-- Node4 -->
<g id="node4" class="node"><title>Node4</title>
<g id="a_node4"><a xlink:href="qms_8h.html" target="_top" xlink:title="QMS API main header. ">
<polygon fill="white" stroke="black" points="128.405,-0.5 128.405,-19.5 172.405,-19.5 172.405,-0.5 128.405,-0.5"/>
<text text-anchor="middle" x="150.405" y="-7.5" font-family="Helvetica,sans-Serif" font-size="10.00">qms.h</text>
</a>
</g>
</g>
<!-- Node1&#45;&gt;Node4 -->
<g id="edge16" class="edge"><title>Node1&#45;&gt;Node4</title>
<path fill="none" stroke="midnightblue" d="M153.879,-219.701C112.042,-196.978 32.4979,-146.237 3.40467,-76 -17.7923,-24.826 82.2635,-13.9317 128.28,-11.6195"/>
<polygon fill="midnightblue" stroke="midnightblue" points="152.453,-222.906 162.928,-224.497 155.731,-216.721 152.453,-222.906"/>
</g>
<!-- Node10 -->
<g id="node10" class="node"><title>Node10</title>
<g id="a_node10"><a xlink:href="qms__bank_info_8h.html" target="_top" xlink:title="qms_bankInfo.h">
<polygon fill="white" stroke="black" points="286.905,-168.5 286.905,-187.5 371.905,-187.5 371.905,-168.5 286.905,-168.5"/>
<text text-anchor="middle" x="329.405" y="-175.5" font-family="Helvetica,sans-Serif" font-size="10.00">qms_bankInfo.h</text>
</a>
</g>
</g>
<!-- Node1&#45;&gt;Node10 -->
<g id="edge13" class="edge"><title>Node1&#45;&gt;Node10</title>
<path fill="none" stroke="midnightblue" d="M213.776,-220.906C241.788,-210.754 281.1,-196.506 305.906,-187.516"/>
<polygon fill="midnightblue" stroke="midnightblue" points="212.223,-217.746 204.014,-224.444 214.608,-224.327 212.223,-217.746"/>
</g>
<!-- Node3 -->
<g id="node3" class="node"><title>Node3</title>
<g id="a_node3"><a xlink:href="qms__item_tree_8h_source.html" target="_top" xlink:title="qms_itemTree.h">
<polygon fill="white" stroke="black" points="12.4047,-56.5 12.4047,-75.5 98.4047,-75.5 98.4047,-56.5 12.4047,-56.5"/>
<text text-anchor="middle" x="55.4047" y="-63.5" font-family="Helvetica,sans-Serif" font-size="10.00">qms_itemTree.h</text>
</a>
</g>
</g>
<!-- Node2&#45;&gt;Node3 -->
<g id="edge2" class="edge"><title>Node2&#45;&gt;Node3</title>
<path fill="none" stroke="midnightblue" d="M136.398,-167.714C114.983,-161.093 90.4613,-150.056 74.4047,-132 60.0292,-115.835 56.503,-89.3278 55.6567,-75.6965"/>
<polygon fill="midnightblue" stroke="midnightblue" points="135.716,-171.159 146.293,-170.538 137.637,-164.428 135.716,-171.159"/>
</g>
<!-- Node5 -->
<g id="node5" class="node"><title>Node5</title>
<g id="a_node5"><a xlink:href="qms__plugin_info_8h.html" target="_top" xlink:title="qms_pluginInfo.h">
<polygon fill="white" stroke="black" points="83.9047,-112.5 83.9047,-131.5 172.905,-131.5 172.905,-112.5 83.9047,-112.5"/>
<text text-anchor="middle" x="128.405" y="-119.5" font-family="Helvetica,sans-Serif" font-size="10.00">qms_pluginInfo.h</text>
</a>
</g>
</g>
<!-- Node2&#45;&gt;Node5 -->
<g id="edge4" class="edge"><title>Node2&#45;&gt;Node5</title>
<path fill="none" stroke="midnightblue" d="M164.725,-160.718C155.56,-151.2 144.352,-139.561 136.832,-131.751"/>
<polygon fill="midnightblue" stroke="midnightblue" points="162.36,-163.308 171.818,-168.083 167.403,-158.452 162.36,-163.308"/>
</g>
<!-- Node8 -->
<g id="node8" class="node"><title>Node8</title>
<g id="a_node8"><a xlink:href="qms__server_8h.html" target="_top" xlink:title="qms_server.h">
<polygon fill="white" stroke="black" points="292.405,-112.5 292.405,-131.5 366.405,-131.5 366.405,-112.5 292.405,-112.5"/>
<text text-anchor="middle" x="329.405" y="-119.5" font-family="Helvetica,sans-Serif" font-size="10.00">qms_server.h</text>
</a>
</g>
</g>
<!-- Node2&#45;&gt;Node8 -->
<g id="edge9" class="edge"><title>Node2&#45;&gt;Node8</title>
<path fill="none" stroke="midnightblue" d="M213.776,-164.906C241.788,-154.754 281.1,-140.506 305.906,-131.516"/>
<polygon fill="midnightblue" stroke="midnightblue" points="212.223,-161.746 204.014,-168.444 214.608,-168.327 212.223,-161.746"/>
</g>
<!-- Node9 -->
<g id="node9" class="node"><title>Node9</title>
<g id="a_node9"><a xlink:href="qms__bar_data_8h.html" target="_top" xlink:title="qms_barData.h">
<polygon fill="white" stroke="black" points="190.905,-112.5 190.905,-131.5 273.905,-131.5 273.905,-112.5 190.905,-112.5"/>
<text text-anchor="middle" x="232.405" y="-119.5" font-family="Helvetica,sans-Serif" font-size="10.00">qms_barData.h</text>
</a>
</g>
</g>
<!-- Node2&#45;&gt;Node9 -->
<g id="edge11" class="edge"><title>Node2&#45;&gt;Node9</title>
<path fill="none" stroke="midnightblue" d="M196.084,-160.718C205.249,-151.2 216.457,-139.561 223.978,-131.751"/>
<polygon fill="midnightblue" stroke="midnightblue" points="193.407,-158.452 188.991,-168.083 198.449,-163.308 193.407,-158.452"/>
</g>
<!-- Node3&#45;&gt;Node4 -->
<g id="edge3" class="edge"><title>Node3&#45;&gt;Node4</title>
<path fill="none" stroke="midnightblue" d="M79.7223,-51.1774C97.2035,-41.2407 120.235,-28.1492 135.179,-19.6545"/>
<polygon fill="midnightblue" stroke="midnightblue" points="77.6321,-48.3395 70.6681,-56.324 81.0913,-54.425 77.6321,-48.3395"/>
</g>
<!-- Node6 -->
<g id="node6" class="node"><title>Node6</title>
<g id="a_node6"><a xlink:href="qms__msg_8h.html" target="_top" xlink:title="qms_msg.h">
<polygon fill="white" stroke="black" points="116.405,-56.5 116.405,-75.5 184.405,-75.5 184.405,-56.5 116.405,-56.5"/>
<text text-anchor="middle" x="150.405" y="-63.5" font-family="Helvetica,sans-Serif" font-size="10.00">qms_msg.h</text>
</a>
</g>
</g>
<!-- Node5&#45;&gt;Node6 -->
<g id="edge5" class="edge"><title>Node5&#45;&gt;Node6</title>
<path fill="none" stroke="midnightblue" d="M135.864,-102.69C139.572,-93.589 143.88,-83.0141 146.839,-75.7511"/>
<polygon fill="midnightblue" stroke="midnightblue" points="132.569,-101.502 132.038,-112.083 139.052,-104.143 132.569,-101.502"/>
</g>
<!-- Node7 -->
<g id="node7" class="node"><title>Node7</title>
<g id="a_node7"><a xlink:href="qms__structs_8h.html" target="_top" xlink:title="qms_structs.h">
<polygon fill="white" stroke="black" points="202.905,-56.5 202.905,-75.5 281.905,-75.5 281.905,-56.5 202.905,-56.5"/>
<text text-anchor="middle" x="242.405" y="-63.5" font-family="Helvetica,sans-Serif" font-size="10.00">qms_structs.h</text>
</a>
</g>
</g>
<!-- Node5&#45;&gt;Node7 -->
<g id="edge7" class="edge"><title>Node5&#45;&gt;Node7</title>
<path fill="none" stroke="midnightblue" d="M155.646,-108.096C176.945,-98.0073 205.946,-84.2697 224.426,-75.5164"/>
<polygon fill="midnightblue" stroke="midnightblue" points="154.007,-105 146.468,-112.444 157.004,-111.326 154.007,-105"/>
</g>
<!-- Node6&#45;&gt;Node4 -->
<g id="edge6" class="edge"><title>Node6&#45;&gt;Node4</title>
<path fill="none" stroke="midnightblue" d="M150.405,-45.8045C150.405,-36.9102 150.405,-26.7798 150.405,-19.7511"/>
<polygon fill="midnightblue" stroke="midnightblue" points="146.905,-46.083 150.405,-56.083 153.905,-46.083 146.905,-46.083"/>
</g>
<!-- Node7&#45;&gt;Node4 -->
<g id="edge8" class="edge"><title>Node7&#45;&gt;Node4</title>
<path fill="none" stroke="midnightblue" d="M218.855,-51.1774C201.926,-41.2407 179.622,-28.1492 165.149,-19.6545"/>
<polygon fill="midnightblue" stroke="midnightblue" points="217.227,-54.2804 227.623,-56.324 220.771,-48.2435 217.227,-54.2804"/>
</g>
<!-- Node8&#45;&gt;Node4 -->
<g id="edge10" class="edge"><title>Node8&#45;&gt;Node4</title>
<path fill="none" stroke="midnightblue" d="M322.796,-103.011C316.554,-88.3879 305.835,-68.2422 290.405,-56 255.204,-28.0728 202.232,-17.276 172.563,-13.2552"/>
<polygon fill="midnightblue" stroke="midnightblue" points="319.614,-104.484 326.553,-112.49 326.122,-101.904 319.614,-104.484"/>
</g>
<!-- Node9&#45;&gt;Node7 -->
<g id="edge12" class="edge"><title>Node9&#45;&gt;Node7</title>
<path fill="none" stroke="midnightblue" d="M235.905,-102.101C237.565,-93.1357 239.468,-82.8579 240.784,-75.7511"/>
<polygon fill="midnightblue" stroke="midnightblue" points="232.435,-101.613 234.056,-112.083 239.318,-102.888 232.435,-101.613"/>
</g>
<!-- Node10&#45;&gt;Node7 -->
<g id="edge15" class="edge"><title>Node10&#45;&gt;Node7</title>
<path fill="none" stroke="midnightblue" d="M351.461,-162.461C368.69,-149.263 387.8,-129.28 375.405,-112 354.376,-82.6856 313.21,-72.2257 282.218,-68.6175"/>
<polygon fill="midnightblue" stroke="midnightblue" points="349.359,-159.662 343.301,-168.353 353.457,-165.337 349.359,-159.662"/>
</g>
<!-- Node10&#45;&gt;Node8 -->
<g id="edge14" class="edge"><title>Node10&#45;&gt;Node8</title>
<path fill="none" stroke="midnightblue" d="M329.405,-157.805C329.405,-148.91 329.405,-138.78 329.405,-131.751"/>
<polygon fill="midnightblue" stroke="midnightblue" points="325.905,-158.083 329.405,-168.083 332.905,-158.083 325.905,-158.083"/>
</g>
</g>
</svg>
