<?xml version="1.0" encoding="UTF-8" standalone="no"?>
<!DOCTYPE svg PUBLIC "-//W3C//DTD SVG 1.1//EN"
 "http://www.w3.org/Graphics/SVG/1.1/DTD/svg11.dtd">
<!-- Generated by graphviz version 2.38.0 (20140413.2041)
 -->
<!-- Title: qms_bankInfo.h Pages: 1 -->
<svg width="204pt" height="140pt"
 viewBox="0.00 0.00 203.50 140.00" xmlns="http://www.w3.org/2000/svg" xmlns:xlink="http://www.w3.org/1999/xlink">
<g id="graph0" class="graph" transform="scale(1 1) rotate(0) translate(4 136)">
<title>qms_bankInfo.h</title>
<polygon fill="white" stroke="none" points="-4,4 -4,-136 199.5,-136 199.5,4 -4,4"/>
<!-- Node1 -->
<g id="node1" class="node"><title>Node1</title>
<polygon fill="#bfbfbf" stroke="black" points="51,-112.5 51,-131.5 136,-131.5 136,-112.5 51,-112.5"/>
<text text-anchor="middle" x="93.5" y="-119.5" font-family="Helvetica,sans-Serif" font-size="10.00">qms_bankInfo.h</text>
</g>
<!-- Node2 -->
<g id="node2" class="node"><title>Node2</title>
<g id="a_node2"><a xlink:href="qms__mm_8h.html" target="_top" xlink:title="qms_mm.h">
<polygon fill="white" stroke="black" points="0,-56.5 0,-75.5 65,-75.5 65,-56.5 0,-56.5"/>
<text text-anchor="middle" x="32.5" y="-63.5" font-family="Helvetica,sans-Serif" font-size="10.00">qms_mm.h</text>
</a>
</g>
</g>
<!-- Node1&#45;&gt;Node2 -->
<g id="edge1" class="edge"><title>Node1&#45;&gt;Node2</title>
<path fill="none" stroke="midnightblue" d="M83.6993,-112.324C74.6819,-104.341 61.094,-92.3128 50.182,-82.6529"/>
<polygon fill="midnightblue" stroke="midnightblue" points="52.2866,-79.8416 42.479,-75.8339 47.6467,-85.083 52.2866,-79.8416"/>
</g>
<!-- Node3 -->
<g id="node3" class="node"><title>Node3</title>
<polygon fill="white" stroke="#bfbfbf" points="38,-0.5 38,-19.5 87,-19.5 87,-0.5 38,-0.5"/>
<text text-anchor="middle" x="62.5" y="-7.5" font-family="Helvetica,sans-Serif" font-size="10.00">stdint.h</text>
</g>
<!-- Node1&#45;&gt;Node3 -->
<g id="edge4" class="edge"><title>Node1&#45;&gt;Node3</title>
<path fill="none" stroke="midnightblue" d="M91.0675,-112.368C86.0421,-94.5366 74.4196,-53.2953 67.6493,-29.2717"/>
<polygon fill="midnightblue" stroke="midnightblue" points="71.0026,-28.2671 64.9212,-19.5914 64.265,-30.1659 71.0026,-28.2671"/>
</g>
<!-- Node4 -->
<g id="node4" class="node"><title>Node4</title>
<g id="a_node4"><a xlink:href="qms__tarray_8h.html" target="_top" xlink:title="qms_tarray.h">
<polygon fill="white" stroke="black" points="121.5,-56.5 121.5,-75.5 195.5,-75.5 195.5,-56.5 121.5,-56.5"/>
<text text-anchor="middle" x="158.5" y="-63.5" font-family="Helvetica,sans-Serif" font-size="10.00">qms_tarray.h</text>
</a>
</g>
</g>
<!-- Node1&#45;&gt;Node4 -->
<g id="edge3" class="edge"><title>Node1&#45;&gt;Node4</title>
<path fill="none" stroke="midnightblue" d="M103.943,-112.324C113.646,-104.263 128.315,-92.0765 140,-82.3695"/>
<polygon fill="midnightblue" stroke="midnightblue" points="142.411,-84.9163 147.867,-75.8339 137.938,-79.532 142.411,-84.9163"/>
</g>
<!-- Node2&#45;&gt;Node3 -->
<g id="edge2" class="edge"><title>Node2&#45;&gt;Node3</title>
<path fill="none" stroke="midnightblue" d="M37.4539,-56.083C41.6041,-48.6127 47.6531,-37.7244 52.7667,-28.5199"/>
<polygon fill="midnightblue" stroke="midnightblue" points="55.8414,-30.1924 57.6383,-19.7511 49.7223,-26.7929 55.8414,-30.1924"/>
</g>
</g>
</svg>
