<?xml version="1.0" encoding="UTF-8" standalone="no"?>
<!DOCTYPE svg PUBLIC "-//W3C//DTD SVG 1.1//EN"
 "http://www.w3.org/Graphics/SVG/1.1/DTD/svg11.dtd">
<!-- Generated by graphviz version 2.38.0 (20140413.2041)
 -->
<!-- Title: qms_itemTree Pages: 1 -->
<svg width="291pt" height="197pt"
 viewBox="0.00 0.00 290.50 197.00" xmlns="http://www.w3.org/2000/svg" xmlns:xlink="http://www.w3.org/1999/xlink">
<g id="graph0" class="graph" transform="scale(1 1) rotate(0) translate(4 193)">
<title>qms_itemTree</title>
<polygon fill="white" stroke="none" points="-4,4 -4,-193 286.5,-193 286.5,4 -4,4"/>
<!-- Node1 -->
<g id="node1" class="node"><title>Node1</title>
<polygon fill="#bfbfbf" stroke="black" points="197,-73 197,-92 275,-92 275,-73 197,-73"/>
<text text-anchor="middle" x="236" y="-80" font-family="Helvetica,sans-Serif" font-size="10.00">qms_itemTree</text>
</g>
<!-- Node2 -->
<g id="node2" class="node"><title>Node2</title>
<g id="a_node2"><a xlink:href="structqms__item.html" target="_top" xlink:title="qms_item">
<polygon fill="white" stroke="black" points="108.5,-163 108.5,-182 167.5,-182 167.5,-163 108.5,-163"/>
<text text-anchor="middle" x="138" y="-170" font-family="Helvetica,sans-Serif" font-size="10.00">qms_item</text>
</a>
</g>
</g>
<!-- Node2&#45;&gt;Node1 -->
<g id="edge1" class="edge"><title>Node2&#45;&gt;Node1</title>
<path fill="none" stroke="#9a32cd" stroke-dasharray="5,2" d="M155.084,-155.81C167.274,-144.651 184.083,-129.336 199,-116 208.179,-107.794 218.738,-98.5369 226.221,-92.0072"/>
<polygon fill="#9a32cd" stroke="#9a32cd" points="152.469,-153.459 147.463,-162.796 157.199,-158.619 152.469,-153.459"/>
<text text-anchor="middle" x="219.5" y="-130" font-family="Helvetica,sans-Serif" font-size="10.00"> firstChild</text>
<text text-anchor="middle" x="219.5" y="-119" font-family="Helvetica,sans-Serif" font-size="10.00">lastChild</text>
</g>
<!-- Node2&#45;&gt;Node2 -->
<g id="edge5" class="edge"><title>Node2&#45;&gt;Node2</title>
<path fill="none" stroke="#9a32cd" stroke-dasharray="5,2" d="M177.672,-179.59C182.408,-178.301 185.5,-175.938 185.5,-172.5 185.5,-167 177.583,-164.25 167.688,-164.25"/>
<polygon fill="#9a32cd" stroke="#9a32cd" points="177.217,-176.119 167.688,-180.75 178.025,-183.072 177.217,-176.119"/>
<text text-anchor="middle" x="199.5" y="-181" font-family="Helvetica,sans-Serif" font-size="10.00"> prev</text>
<text text-anchor="middle" x="199.5" y="-170" font-family="Helvetica,sans-Serif" font-size="10.00">next</text>
<text text-anchor="middle" x="199.5" y="-159" font-family="Helvetica,sans-Serif" font-size="10.00">parent</text>
</g>
<!-- Node4 -->
<g id="node4" class="node"><title>Node4</title>
<g id="a_node4"><a xlink:href="structqms__item_1_1_u_values_1_1node__t.html" target="_top" xlink:title="qms_item::UValues::\lnode_t">
<polygon fill="white" stroke="black" points="0,-67.5 0,-97.5 108,-97.5 108,-67.5 0,-67.5"/>
<text text-anchor="start" x="8" y="-85.5" font-family="Helvetica,sans-Serif" font-size="10.00">qms_item::UValues::</text>
<text text-anchor="middle" x="54" y="-74.5" font-family="Helvetica,sans-Serif" font-size="10.00">node_t</text>
</a>
</g>
</g>
<!-- Node2&#45;&gt;Node4 -->
<g id="edge4" class="edge"><title>Node2&#45;&gt;Node4</title>
<path fill="none" stroke="#9a32cd" stroke-dasharray="5,2" d="M113.558,-157.555C105.206,-152.103 96.1721,-145.382 89,-138 77.246,-125.902 67.2499,-109.271 60.9871,-97.5715"/>
<polygon fill="#9a32cd" stroke="#9a32cd" points="111.89,-160.639 122.232,-162.944 115.585,-154.694 111.89,-160.639"/>
<text text-anchor="middle" x="109.5" y="-130" font-family="Helvetica,sans-Serif" font-size="10.00"> firstChild</text>
<text text-anchor="middle" x="109.5" y="-119" font-family="Helvetica,sans-Serif" font-size="10.00">lastChild</text>
</g>
<!-- Node3 -->
<g id="node3" class="node"><title>Node3</title>
<g id="a_node3"><a xlink:href="unionqms__item_1_1_u_values.html" target="_top" xlink:title="qms_item::UValues">
<polygon fill="white" stroke="black" points="60,-0.5 60,-19.5 162,-19.5 162,-0.5 60,-0.5"/>
<text text-anchor="middle" x="111" y="-7.5" font-family="Helvetica,sans-Serif" font-size="10.00">qms_item::UValues</text>
</a>
</g>
</g>
<!-- Node3&#45;&gt;Node2 -->
<g id="edge2" class="edge"><title>Node3&#45;&gt;Node2</title>
<path fill="none" stroke="#9a32cd" stroke-dasharray="5,2" d="M115.325,-29.8559C115.912,-32.5835 116.487,-35.3603 117,-38 126.084,-84.7537 133.966,-141.304 136.84,-162.715"/>
<polygon fill="#9a32cd" stroke="#9a32cd" points="118.714,-28.9728 113.121,-19.9749 111.882,-30.497 118.714,-28.9728"/>
<text text-anchor="middle" x="135.5" y="-80" font-family="Helvetica,sans-Serif" font-size="10.00"> val</text>
</g>
<!-- Node4&#45;&gt;Node3 -->
<g id="edge3" class="edge"><title>Node4&#45;&gt;Node3</title>
<path fill="none" stroke="#9a32cd" stroke-dasharray="5,2" d="M71.8806,-59.3845C82.6729,-46.0362 95.8359,-29.7556 103.81,-19.8932"/>
<polygon fill="#9a32cd" stroke="#9a32cd" points="69.1003,-57.2564 65.5348,-67.2333 74.5438,-61.6575 69.1003,-57.2564"/>
<text text-anchor="middle" x="100.5" y="-41" font-family="Helvetica,sans-Serif" font-size="10.00"> node</text>
</g>
<!-- Node5 -->
<g id="node5" class="node"><title>Node5</title>
<g id="a_node5"><a xlink:href="classqms__cs.html" target="_top" xlink:title="qms_cs">
<polygon fill="white" stroke="black" points="231.5,-163 231.5,-182 282.5,-182 282.5,-163 231.5,-163"/>
<text text-anchor="middle" x="257" y="-170" font-family="Helvetica,sans-Serif" font-size="10.00">qms_cs</text>
</a>
</g>
</g>
<!-- Node5&#45;&gt;Node1 -->
<g id="edge6" class="edge"><title>Node5&#45;&gt;Node1</title>
<path fill="none" stroke="#9a32cd" stroke-dasharray="5,2" d="M252.586,-153.004C248.13,-134.332 241.441,-106.301 238.082,-92.2241"/>
<polygon fill="#9a32cd" stroke="#9a32cd" points="249.184,-153.826 254.91,-162.741 255.993,-152.201 249.184,-153.826"/>
<text text-anchor="middle" x="258" y="-124.5" font-family="Helvetica,sans-Serif" font-size="10.00"> mtx</text>
</g>
</g>
</svg>
