<?xml version="1.0" encoding="UTF-8" standalone="no"?>
<!DOCTYPE svg PUBLIC "-//W3C//DTD SVG 1.1//EN"
 "http://www.w3.org/Graphics/SVG/1.1/DTD/svg11.dtd">
<!-- Generated by graphviz version 2.38.0 (20140413.2041)
 -->
<!-- Title: qms_msgGroupChanged Pages: 1 -->
<svg width="150pt" height="95pt"
 viewBox="0.00 0.00 150.00 95.00" xmlns="http://www.w3.org/2000/svg" xmlns:xlink="http://www.w3.org/1999/xlink">
<g id="graph0" class="graph" transform="scale(1 1) rotate(0) translate(4 91)">
<title>qms_msgGroupChanged</title>
<polygon fill="white" stroke="none" points="-4,4 -4,-91 146,-91 146,4 -4,4"/>
<!-- Node1 -->
<g id="node1" class="node"><title>Node1</title>
<polygon fill="#bfbfbf" stroke="black" points="7.5,-0.5 7.5,-19.5 131.5,-19.5 131.5,-0.5 7.5,-0.5"/>
<text text-anchor="middle" x="69.5" y="-7.5" font-family="Helvetica,sans-Serif" font-size="10.00">qms_msgGroupChanged</text>
</g>
<!-- Node2 -->
<g id="node2" class="node"><title>Node2</title>
<g id="a_node2"><a xlink:href="structqms__msg.html" target="_top" xlink:title="qms_msg">
<polygon fill="white" stroke="black" points="0,-67.5 0,-86.5 59,-86.5 59,-67.5 0,-67.5"/>
<text text-anchor="middle" x="29.5" y="-74.5" font-family="Helvetica,sans-Serif" font-size="10.00">qms_msg</text>
</a>
</g>
</g>
<!-- Node2&#45;&gt;Node1 -->
<g id="edge1" class="edge"><title>Node2&#45;&gt;Node1</title>
<path fill="none" stroke="midnightblue" d="M40.2479,-58.5347C47.9924,-45.9499 58.1109,-29.5072 64.1909,-19.6273"/>
<polygon fill="midnightblue" stroke="midnightblue" points="37.1548,-56.8829 34.8946,-67.2338 43.1164,-60.5516 37.1548,-56.8829"/>
</g>
<!-- Node3 -->
<g id="node3" class="node"><title>Node3</title>
<g id="a_node3"><a xlink:href="structqms__group.html" target="_top" xlink:title="qms_group">
<polygon fill="white" stroke="black" points="77,-67.5 77,-86.5 142,-86.5 142,-67.5 77,-67.5"/>
<text text-anchor="middle" x="109.5" y="-74.5" font-family="Helvetica,sans-Serif" font-size="10.00">qms_group</text>
</a>
</g>
</g>
<!-- Node3&#45;&gt;Node1 -->
<g id="edge2" class="edge"><title>Node3&#45;&gt;Node1</title>
<path fill="none" stroke="#9a32cd" stroke-dasharray="5,2" d="M98.7521,-58.5347C91.0076,-45.9499 80.8891,-29.5072 74.8091,-19.6273"/>
<polygon fill="#9a32cd" stroke="#9a32cd" points="95.8836,-60.5516 104.105,-67.2338 101.845,-56.8829 95.8836,-60.5516"/>
<text text-anchor="middle" x="105.5" y="-41" font-family="Helvetica,sans-Serif" font-size="10.00"> group</text>
</g>
</g>
</svg>
