<?xml version="1.0" encoding="UTF-8" standalone="no"?>
<!DOCTYPE svg PUBLIC "-//W3C//DTD SVG 1.1//EN"
 "http://www.w3.org/Graphics/SVG/1.1/DTD/svg11.dtd">
<!-- Generated by graphviz version 2.38.0 (20140413.2041)
 -->
<!-- Title: qms_configChanged Pages: 1 -->
<svg width="402pt" height="197pt"
 viewBox="0.00 0.00 401.50 197.00" xmlns="http://www.w3.org/2000/svg" xmlns:xlink="http://www.w3.org/1999/xlink">
<g id="graph0" class="graph" transform="scale(1 1) rotate(0) translate(4 193)">
<title>qms_configChanged</title>
<polygon fill="white" stroke="none" points="-4,4 -4,-193 397.5,-193 397.5,4 -4,4"/>
<!-- Node1 -->
<g id="node1" class="node"><title>Node1</title>
<polygon fill="#bfbfbf" stroke="black" points="5.5,-0.5 5.5,-19.5 109.5,-19.5 109.5,-0.5 5.5,-0.5"/>
<text text-anchor="middle" x="57.5" y="-7.5" font-family="Helvetica,sans-Serif" font-size="10.00">qms_configChanged</text>
</g>
<!-- Node2 -->
<g id="node2" class="node"><title>Node2</title>
<g id="a_node2"><a xlink:href="structqms__msg.html" target="_top" xlink:title="qms_msg">
<polygon fill="white" stroke="black" points="0,-73 0,-92 59,-92 59,-73 0,-73"/>
<text text-anchor="middle" x="29.5" y="-80" font-family="Helvetica,sans-Serif" font-size="10.00">qms_msg</text>
</a>
</g>
</g>
<!-- Node2&#45;&gt;Node1 -->
<g id="edge1" class="edge"><title>Node2&#45;&gt;Node1</title>
<path fill="none" stroke="midnightblue" d="M36.7397,-63.2714C42.3038,-49.2619 49.7425,-30.5324 54.0386,-19.7154"/>
<polygon fill="midnightblue" stroke="midnightblue" points="33.3717,-62.2695 32.9333,-72.8553 39.8774,-64.8534 33.3717,-62.2695"/>
</g>
<!-- Node3 -->
<g id="node3" class="node"><title>Node3</title>
<g id="a_node3"><a xlink:href="structqms__tarray.html" target="_top" xlink:title="qms_tarray\&lt; qms_item \&gt;">
<polygon fill="white" stroke="black" points="77.5,-73 77.5,-92 203.5,-92 203.5,-73 77.5,-73"/>
<text text-anchor="middle" x="140.5" y="-80" font-family="Helvetica,sans-Serif" font-size="10.00">qms_tarray&lt; qms_item &gt;</text>
</a>
</g>
</g>
<!-- Node3&#45;&gt;Node1 -->
<g id="edge2" class="edge"><title>Node3&#45;&gt;Node1</title>
<path fill="none" stroke="#9a32cd" stroke-dasharray="5,2" d="M122.352,-66.085C105.616,-51.8699 81.3695,-31.2747 67.7607,-19.7154"/>
<polygon fill="#9a32cd" stroke="#9a32cd" points="120.435,-69.0491 130.323,-72.8553 124.967,-63.7139 120.435,-69.0491"/>
<text text-anchor="middle" x="113" y="-41" font-family="Helvetica,sans-Serif" font-size="10.00"> pCfg</text>
</g>
<!-- Node4 -->
<g id="node4" class="node"><title>Node4</title>
<g id="a_node4"><a xlink:href="structqms__item.html" target="_top" xlink:title="qms_item">
<polygon fill="white" stroke="black" points="246,-163 246,-182 305,-182 305,-163 246,-163"/>
<text text-anchor="middle" x="275.5" y="-170" font-family="Helvetica,sans-Serif" font-size="10.00">qms_item</text>
</a>
</g>
</g>
<!-- Node4&#45;&gt;Node3 -->
<g id="edge3" class="edge"><title>Node4&#45;&gt;Node3</title>
<path fill="none" stroke="#9a32cd" stroke-dasharray="5,2" d="M253.663,-157.265C225.449,-138.874 177.195,-107.419 153.884,-92.2241"/>
<polygon fill="#9a32cd" stroke="#9a32cd" points="251.773,-160.212 262.062,-162.741 255.596,-154.348 251.773,-160.212"/>
<text text-anchor="middle" x="235.5" y="-124.5" font-family="Helvetica,sans-Serif" font-size="10.00"> data</text>
</g>
<!-- Node4&#45;&gt;Node4 -->
<g id="edge7" class="edge"><title>Node4&#45;&gt;Node4</title>
<path fill="none" stroke="#9a32cd" stroke-dasharray="5,2" d="M315.172,-179.59C319.908,-178.301 323,-175.938 323,-172.5 323,-167 315.083,-164.25 305.188,-164.25"/>
<polygon fill="#9a32cd" stroke="#9a32cd" points="314.717,-176.119 305.188,-180.75 315.525,-183.072 314.717,-176.119"/>
<text text-anchor="middle" x="337" y="-181" font-family="Helvetica,sans-Serif" font-size="10.00"> prev</text>
<text text-anchor="middle" x="337" y="-170" font-family="Helvetica,sans-Serif" font-size="10.00">next</text>
<text text-anchor="middle" x="337" y="-159" font-family="Helvetica,sans-Serif" font-size="10.00">parent</text>
</g>
<!-- Node6 -->
<g id="node6" class="node"><title>Node6</title>
<g id="a_node6"><a xlink:href="structqms__item_1_1_u_values_1_1node__t.html" target="_top" xlink:title="qms_item::UValues::\lnode_t">
<polygon fill="white" stroke="black" points="221.5,-67.5 221.5,-97.5 329.5,-97.5 329.5,-67.5 221.5,-67.5"/>
<text text-anchor="start" x="229.5" y="-85.5" font-family="Helvetica,sans-Serif" font-size="10.00">qms_item::UValues::</text>
<text text-anchor="middle" x="275.5" y="-74.5" font-family="Helvetica,sans-Serif" font-size="10.00">node_t</text>
</a>
</g>
</g>
<!-- Node4&#45;&gt;Node6 -->
<g id="edge6" class="edge"><title>Node4&#45;&gt;Node6</title>
<path fill="none" stroke="#9a32cd" stroke-dasharray="5,2" d="M275.5,-152.663C275.5,-136.193 275.5,-112.638 275.5,-97.709"/>
<polygon fill="#9a32cd" stroke="#9a32cd" points="272,-152.74 275.5,-162.741 279,-152.741 272,-152.74"/>
<text text-anchor="middle" x="296" y="-130" font-family="Helvetica,sans-Serif" font-size="10.00"> firstChild</text>
<text text-anchor="middle" x="296" y="-119" font-family="Helvetica,sans-Serif" font-size="10.00">lastChild</text>
</g>
<!-- Node5 -->
<g id="node5" class="node"><title>Node5</title>
<g id="a_node5"><a xlink:href="unionqms__item_1_1_u_values.html" target="_top" xlink:title="qms_item::UValues">
<polygon fill="white" stroke="black" points="291.5,-0.5 291.5,-19.5 393.5,-19.5 393.5,-0.5 291.5,-0.5"/>
<text text-anchor="middle" x="342.5" y="-7.5" font-family="Helvetica,sans-Serif" font-size="10.00">qms_item::UValues</text>
</a>
</g>
</g>
<!-- Node5&#45;&gt;Node4 -->
<g id="edge4" class="edge"><title>Node5&#45;&gt;Node4</title>
<path fill="none" stroke="#9a32cd" stroke-dasharray="5,2" d="M344.497,-29.5193C346.357,-56.431 345.763,-106.557 320.5,-138 312.325,-148.174 300.379,-156.876 290.85,-162.859"/>
<polygon fill="#9a32cd" stroke="#9a32cd" points="347.981,-29.1823 343.614,-19.5292 341.008,-29.7985 347.981,-29.1823"/>
<text text-anchor="middle" x="351" y="-80" font-family="Helvetica,sans-Serif" font-size="10.00"> val</text>
</g>
<!-- Node6&#45;&gt;Node5 -->
<g id="edge5" class="edge"><title>Node6&#45;&gt;Node5</title>
<path fill="none" stroke="#9a32cd" stroke-dasharray="5,2" d="M296.159,-59.7615C308.911,-46.3439 324.587,-29.8487 334.048,-19.8932"/>
<polygon fill="#9a32cd" stroke="#9a32cd" points="293.41,-57.5734 289.058,-67.2333 298.484,-62.3956 293.41,-57.5734"/>
<text text-anchor="middle" x="327" y="-41" font-family="Helvetica,sans-Serif" font-size="10.00"> node</text>
</g>
</g>
</svg>
