<?xml version="1.0" encoding="UTF-8" standalone="no"?>
<!DOCTYPE svg PUBLIC "-//W3C//DTD SVG 1.1//EN"
 "http://www.w3.org/Graphics/SVG/1.1/DTD/svg11.dtd">
<!-- Generated by graphviz version 2.38.0 (20140413.2041)
 -->
<!-- Title: qms_msg Pages: 1 -->
<svg width="237pt" height="788pt"
 viewBox="0.00 0.00 237.00 788.00" xmlns="http://www.w3.org/2000/svg" xmlns:xlink="http://www.w3.org/1999/xlink">
<g id="graph0" class="graph" transform="scale(1 1) rotate(0) translate(4 784)">
<title>qms_msg</title>
<polygon fill="white" stroke="none" points="-4,4 -4,-784 233,-784 233,4 -4,4"/>
<!-- Node1 -->
<g id="node1" class="node"><title>Node1</title>
<polygon fill="#bfbfbf" stroke="black" points="0,-380.5 0,-399.5 59,-399.5 59,-380.5 0,-380.5"/>
<text text-anchor="middle" x="29.5" y="-387.5" font-family="Helvetica,sans-Serif" font-size="10.00">qms_msg</text>
</g>
<!-- Node2 -->
<g id="node2" class="node"><title>Node2</title>
<g id="a_node2"><a xlink:href="structqms__acct_cfg_changed.html" target="_top" xlink:title="qms_acctCfgChanged">
<polygon fill="white" stroke="black" points="106,-760.5 106,-779.5 218,-779.5 218,-760.5 106,-760.5"/>
<text text-anchor="middle" x="162" y="-767.5" font-family="Helvetica,sans-Serif" font-size="10.00">qms_acctCfgChanged</text>
</a>
</g>
</g>
<!-- Node1&#45;&gt;Node2 -->
<g id="edge1" class="edge"><title>Node1&#45;&gt;Node2</title>
<path fill="none" stroke="midnightblue" d="M31.3598,-409.942C34.6934,-478.032 48.9589,-699.929 95,-751 98.4331,-754.808 102.575,-757.873 107.091,-760.337"/>
<polygon fill="midnightblue" stroke="midnightblue" points="34.8459,-409.559 30.8869,-399.732 27.8534,-409.883 34.8459,-409.559"/>
</g>
<!-- Node3 -->
<g id="node3" class="node"><title>Node3</title>
<g id="a_node3"><a xlink:href="structqms__command.html" target="_top" xlink:title="qms_command">
<polygon fill="white" stroke="black" points="120.5,-722.5 120.5,-741.5 203.5,-741.5 203.5,-722.5 120.5,-722.5"/>
<text text-anchor="middle" x="162" y="-729.5" font-family="Helvetica,sans-Serif" font-size="10.00">qms_command</text>
</a>
</g>
</g>
<!-- Node1&#45;&gt;Node3 -->
<g id="edge2" class="edge"><title>Node1&#45;&gt;Node3</title>
<path fill="none" stroke="midnightblue" d="M31.8126,-409.86C36.3827,-473.065 53.6297,-668.036 95,-713 101.701,-720.283 110.994,-724.841 120.495,-727.675"/>
<polygon fill="midnightblue" stroke="midnightblue" points="35.2885,-409.39 31.1038,-399.657 28.3053,-409.876 35.2885,-409.39"/>
</g>
<!-- Node4 -->
<g id="node4" class="node"><title>Node4</title>
<g id="a_node4"><a xlink:href="structqms__config_changed.html" target="_top" xlink:title="qms_configChanged">
<polygon fill="white" stroke="black" points="110,-684.5 110,-703.5 214,-703.5 214,-684.5 110,-684.5"/>
<text text-anchor="middle" x="162" y="-691.5" font-family="Helvetica,sans-Serif" font-size="10.00">qms_configChanged</text>
</a>
</g>
</g>
<!-- Node1&#45;&gt;Node4 -->
<g id="edge3" class="edge"><title>Node1&#45;&gt;Node4</title>
<path fill="none" stroke="midnightblue" d="M32.3782,-409.766C38.2794,-467.806 58.2741,-636.09 95,-675 99.1741,-679.422 104.304,-682.837 109.844,-685.469"/>
<polygon fill="midnightblue" stroke="midnightblue" points="35.85,-409.308 31.385,-399.7 28.8838,-409.995 35.85,-409.308"/>
</g>
<!-- Node5 -->
<g id="node5" class="node"><title>Node5</title>
<g id="a_node5"><a xlink:href="structqms__get_plugin_info.html" target="_top" xlink:title="qms_getPluginInfo">
<polygon fill="white" stroke="black" points="114,-646.5 114,-665.5 210,-665.5 210,-646.5 114,-646.5"/>
<text text-anchor="middle" x="162" y="-653.5" font-family="Helvetica,sans-Serif" font-size="10.00">qms_getPluginInfo</text>
</a>
</g>
</g>
<!-- Node1&#45;&gt;Node5 -->
<g id="edge4" class="edge"><title>Node1&#45;&gt;Node5</title>
<path fill="none" stroke="midnightblue" d="M33.1331,-409.853C40.5041,-462.539 62.9252,-604.117 95,-637 100.245,-642.377 106.906,-646.259 113.968,-649.055"/>
<polygon fill="midnightblue" stroke="midnightblue" points="36.577,-409.203 31.7558,-399.769 29.6414,-410.151 36.577,-409.203"/>
</g>
<!-- Node6 -->
<g id="node6" class="node"><title>Node6</title>
<g id="a_node6"><a xlink:href="structqms__item_changed.html" target="_top" xlink:title="qms_itemChanged">
<polygon fill="white" stroke="black" points="113,-608.5 113,-627.5 211,-627.5 211,-608.5 113,-608.5"/>
<text text-anchor="middle" x="162" y="-615.5" font-family="Helvetica,sans-Serif" font-size="10.00">qms_itemChanged</text>
</a>
</g>
</g>
<!-- Node1&#45;&gt;Node6 -->
<g id="edge5" class="edge"><title>Node1&#45;&gt;Node6</title>
<path fill="none" stroke="midnightblue" d="M30.68,-409.564C32.1498,-450.661 41.4834,-546.493 95,-599 100.022,-603.927 106.234,-607.592 112.822,-610.315"/>
<polygon fill="midnightblue" stroke="midnightblue" points="34.1777,-409.421 30.4438,-399.506 27.1796,-409.585 34.1777,-409.421"/>
</g>
<!-- Node7 -->
<g id="node7" class="node"><title>Node7</title>
<g id="a_node7"><a xlink:href="structqms__msg_account_changed.html" target="_top" xlink:title="qms_msgAccountChanged">
<polygon fill="white" stroke="black" points="95,-570.5 95,-589.5 229,-589.5 229,-570.5 95,-570.5"/>
<text text-anchor="middle" x="162" y="-577.5" font-family="Helvetica,sans-Serif" font-size="10.00">qms_msgAccountChanged</text>
</a>
</g>
</g>
<!-- Node1&#45;&gt;Node7 -->
<g id="edge6" class="edge"><title>Node1&#45;&gt;Node7</title>
<path fill="none" stroke="midnightblue" d="M32.2893,-409.864C36.5667,-445.418 50.6012,-520.034 95,-561 99.2064,-564.881 104.156,-567.975 109.421,-570.44"/>
<polygon fill="midnightblue" stroke="midnightblue" points="35.7554,-409.359 31.2172,-399.785 28.7947,-410.099 35.7554,-409.359"/>
</g>
<!-- Node8 -->
<g id="node8" class="node"><title>Node8</title>
<g id="a_node8"><a xlink:href="structqms__msg_added.html" target="_top" xlink:title="qms_msgAdded">
<polygon fill="white" stroke="black" points="118.5,-532.5 118.5,-551.5 205.5,-551.5 205.5,-532.5 118.5,-532.5"/>
<text text-anchor="middle" x="162" y="-539.5" font-family="Helvetica,sans-Serif" font-size="10.00">qms_msgAdded</text>
</a>
</g>
</g>
<!-- Node1&#45;&gt;Node8 -->
<g id="edge7" class="edge"><title>Node1&#45;&gt;Node8</title>
<path fill="none" stroke="midnightblue" d="M34.6226,-409.481C41.7867,-438.521 59.3147,-492.956 95,-523 101.659,-528.606 109.887,-532.56 118.247,-535.348"/>
<polygon fill="midnightblue" stroke="midnightblue" points="38.0245,-408.657 32.368,-399.698 31.2033,-410.229 38.0245,-408.657"/>
</g>
<!-- Node9 -->
<g id="node9" class="node"><title>Node9</title>
<g id="a_node9"><a xlink:href="structqms__msg_connected.html" target="_top" xlink:title="qms_msgConnected">
<polygon fill="white" stroke="black" points="109,-494.5 109,-513.5 215,-513.5 215,-494.5 109,-494.5"/>
<text text-anchor="middle" x="162" y="-501.5" font-family="Helvetica,sans-Serif" font-size="10.00">qms_msgConnected</text>
</a>
</g>
</g>
<!-- Node1&#45;&gt;Node9 -->
<g id="edge8" class="edge"><title>Node1&#45;&gt;Node9</title>
<path fill="none" stroke="midnightblue" d="M38.452,-408.86C48.5028,-430.431 67.8305,-465.302 95,-485 100.309,-488.849 106.384,-491.922 112.65,-494.373"/>
<polygon fill="midnightblue" stroke="midnightblue" points="41.6484,-407.433 34.3805,-399.725 35.2547,-410.283 41.6484,-407.433"/>
</g>
<!-- Node10 -->
<g id="node10" class="node"><title>Node10</title>
<g id="a_node10"><a xlink:href="structqms__msg_deal_filled.html" target="_top" xlink:title="qms_msgDealFilled">
<polygon fill="white" stroke="black" points="111,-456.5 111,-475.5 213,-475.5 213,-456.5 111,-456.5"/>
<text text-anchor="middle" x="162" y="-463.5" font-family="Helvetica,sans-Serif" font-size="10.00">qms_msgDealFilled</text>
</a>
</g>
</g>
<!-- Node1&#45;&gt;Node10 -->
<g id="edge9" class="edge"><title>Node1&#45;&gt;Node10</title>
<path fill="none" stroke="midnightblue" d="M45.8075,-407.139C57.9918,-419.817 76.0869,-436.618 95,-447 101.899,-450.787 109.627,-453.884 117.299,-456.395"/>
<polygon fill="midnightblue" stroke="midnightblue" points="48.0815,-404.445 38.705,-399.512 42.9587,-409.216 48.0815,-404.445"/>
</g>
<!-- Node11 -->
<g id="node11" class="node"><title>Node11</title>
<g id="a_node11"><a xlink:href="structqms__msg_deposit.html" target="_top" xlink:title="qms_msgDeposit">
<polygon fill="white" stroke="black" points="116,-418.5 116,-437.5 208,-437.5 208,-418.5 116,-418.5"/>
<text text-anchor="middle" x="162" y="-425.5" font-family="Helvetica,sans-Serif" font-size="10.00">qms_msgDeposit</text>
</a>
</g>
</g>
<!-- Node1&#45;&gt;Node11 -->
<g id="edge10" class="edge"><title>Node1&#45;&gt;Node11</title>
<path fill="none" stroke="midnightblue" d="M68.869,-401.345C77.4645,-403.874 86.5414,-406.537 95,-409 105.647,-412.101 117.268,-415.456 127.751,-418.472"/>
<polygon fill="midnightblue" stroke="midnightblue" points="69.6471,-397.925 59.0656,-398.456 67.6684,-404.64 69.6471,-397.925"/>
</g>
<!-- Node12 -->
<g id="node12" class="node"><title>Node12</title>
<g id="a_node12"><a xlink:href="structqms__msg_disconnected.html" target="_top" xlink:title="qms_msgDisconnected">
<polygon fill="white" stroke="black" points="102.5,-380.5 102.5,-399.5 221.5,-399.5 221.5,-380.5 102.5,-380.5"/>
<text text-anchor="middle" x="162" y="-387.5" font-family="Helvetica,sans-Serif" font-size="10.00">qms_msgDisconnected</text>
</a>
</g>
</g>
<!-- Node1&#45;&gt;Node12 -->
<g id="edge11" class="edge"><title>Node1&#45;&gt;Node12</title>
<path fill="none" stroke="midnightblue" d="M69.1718,-390C79.621,-390 91.1671,-390 102.444,-390"/>
<polygon fill="midnightblue" stroke="midnightblue" points="69.1388,-386.5 59.1388,-390 69.1387,-393.5 69.1388,-386.5"/>
</g>
<!-- Node13 -->
<g id="node13" class="node"><title>Node13</title>
<g id="a_node13"><a xlink:href="structqms__msg_group_changed.html" target="_top" xlink:title="qms_msgGroupChanged">
<polygon fill="white" stroke="black" points="100,-342.5 100,-361.5 224,-361.5 224,-342.5 100,-342.5"/>
<text text-anchor="middle" x="162" y="-349.5" font-family="Helvetica,sans-Serif" font-size="10.00">qms_msgGroupChanged</text>
</a>
</g>
</g>
<!-- Node1&#45;&gt;Node13 -->
<g id="edge12" class="edge"><title>Node1&#45;&gt;Node13</title>
<path fill="none" stroke="midnightblue" d="M68.869,-378.655C77.4645,-376.126 86.5414,-373.463 95,-371 105.647,-367.899 117.268,-364.544 127.751,-361.528"/>
<polygon fill="midnightblue" stroke="midnightblue" points="67.6684,-375.36 59.0656,-381.544 69.6471,-382.075 67.6684,-375.36"/>
</g>
<!-- Node14 -->
<g id="node14" class="node"><title>Node14</title>
<g id="a_node14"><a xlink:href="structqms__msg_info.html" target="_top" xlink:title="qms_msgInfo">
<polygon fill="white" stroke="black" points="125,-304.5 125,-323.5 199,-323.5 199,-304.5 125,-304.5"/>
<text text-anchor="middle" x="162" y="-311.5" font-family="Helvetica,sans-Serif" font-size="10.00">qms_msgInfo</text>
</a>
</g>
</g>
<!-- Node1&#45;&gt;Node14 -->
<g id="edge13" class="edge"><title>Node1&#45;&gt;Node14</title>
<path fill="none" stroke="midnightblue" d="M45.8075,-372.861C57.9918,-360.183 76.0869,-343.382 95,-333 104.198,-327.951 114.871,-324.128 124.919,-321.285"/>
<polygon fill="midnightblue" stroke="midnightblue" points="42.9587,-370.784 38.705,-380.488 48.0815,-375.555 42.9587,-370.784"/>
</g>
<!-- Node15 -->
<g id="node15" class="node"><title>Node15</title>
<g id="a_node15"><a xlink:href="structqms__msg_limit_cancelled.html" target="_top" xlink:title="qms_msgLimitCancelled">
<polygon fill="white" stroke="black" points="100.5,-266.5 100.5,-285.5 223.5,-285.5 223.5,-266.5 100.5,-266.5"/>
<text text-anchor="middle" x="162" y="-273.5" font-family="Helvetica,sans-Serif" font-size="10.00">qms_msgLimitCancelled</text>
</a>
</g>
</g>
<!-- Node1&#45;&gt;Node15 -->
<g id="edge14" class="edge"><title>Node1&#45;&gt;Node15</title>
<path fill="none" stroke="midnightblue" d="M38.452,-371.14C48.5028,-349.569 67.8305,-314.698 95,-295 100.309,-291.151 106.384,-288.078 112.65,-285.627"/>
<polygon fill="midnightblue" stroke="midnightblue" points="35.2547,-369.717 34.3805,-380.275 41.6484,-372.567 35.2547,-369.717"/>
</g>
<!-- Node16 -->
<g id="node16" class="node"><title>Node16</title>
<g id="a_node16"><a xlink:href="structqms__msg_limit_changed.html" target="_top" xlink:title="qms_msgLimitChanged">
<polygon fill="white" stroke="black" points="102.5,-228.5 102.5,-247.5 221.5,-247.5 221.5,-228.5 102.5,-228.5"/>
<text text-anchor="middle" x="162" y="-235.5" font-family="Helvetica,sans-Serif" font-size="10.00">qms_msgLimitChanged</text>
</a>
</g>
</g>
<!-- Node1&#45;&gt;Node16 -->
<g id="edge15" class="edge"><title>Node1&#45;&gt;Node16</title>
<path fill="none" stroke="midnightblue" d="M34.6226,-370.519C41.7867,-341.479 59.3147,-287.044 95,-257 99.6519,-253.084 105.07,-249.973 110.764,-247.504"/>
<polygon fill="midnightblue" stroke="midnightblue" points="31.2033,-369.771 32.368,-380.302 38.0245,-371.343 31.2033,-369.771"/>
</g>
<!-- Node17 -->
<g id="node17" class="node"><title>Node17</title>
<g id="a_node17"><a xlink:href="structqms__msg_limit_failed.html" target="_top" xlink:title="qms_msgLimitFailed">
<polygon fill="white" stroke="black" points="108.5,-190.5 108.5,-209.5 215.5,-209.5 215.5,-190.5 108.5,-190.5"/>
<text text-anchor="middle" x="162" y="-197.5" font-family="Helvetica,sans-Serif" font-size="10.00">qms_msgLimitFailed</text>
</a>
</g>
</g>
<!-- Node1&#45;&gt;Node17 -->
<g id="edge16" class="edge"><title>Node1&#45;&gt;Node17</title>
<path fill="none" stroke="midnightblue" d="M32.2893,-370.136C36.5667,-334.582 50.6012,-259.966 95,-219 99.2064,-215.119 104.156,-212.025 109.421,-209.56"/>
<polygon fill="midnightblue" stroke="midnightblue" points="28.7947,-369.901 31.2172,-380.215 35.7554,-370.641 28.7947,-369.901"/>
</g>
<!-- Node18 -->
<g id="node18" class="node"><title>Node18</title>
<g id="a_node18"><a xlink:href="structqms__msg_limit_placed.html" target="_top" xlink:title="qms_msgLimitPlaced">
<polygon fill="white" stroke="black" points="107,-152.5 107,-171.5 217,-171.5 217,-152.5 107,-152.5"/>
<text text-anchor="middle" x="162" y="-159.5" font-family="Helvetica,sans-Serif" font-size="10.00">qms_msgLimitPlaced</text>
</a>
</g>
</g>
<!-- Node1&#45;&gt;Node18 -->
<g id="edge17" class="edge"><title>Node1&#45;&gt;Node18</title>
<path fill="none" stroke="midnightblue" d="M30.68,-370.436C32.1498,-329.339 41.4834,-233.507 95,-181 98.9152,-177.159 103.554,-174.084 108.531,-171.625"/>
<polygon fill="midnightblue" stroke="midnightblue" points="27.1796,-370.415 30.4438,-380.494 34.1777,-370.579 27.1796,-370.415"/>
</g>
<!-- Node19 -->
<g id="node19" class="node"><title>Node19</title>
<g id="a_node19"><a xlink:href="structqms__msg_order_failed.html" target="_top" xlink:title="qms_msgOrderFailed">
<polygon fill="white" stroke="black" points="107,-114.5 107,-133.5 217,-133.5 217,-114.5 107,-114.5"/>
<text text-anchor="middle" x="162" y="-121.5" font-family="Helvetica,sans-Serif" font-size="10.00">qms_msgOrderFailed</text>
</a>
</g>
</g>
<!-- Node1&#45;&gt;Node19 -->
<g id="edge18" class="edge"><title>Node1&#45;&gt;Node19</title>
<path fill="none" stroke="midnightblue" d="M33.1331,-370.147C40.5041,-317.461 62.9252,-175.883 95,-143 98.7466,-139.159 103.215,-136.081 108.037,-133.617"/>
<polygon fill="midnightblue" stroke="midnightblue" points="29.6414,-369.849 31.7558,-380.231 36.577,-370.797 29.6414,-369.849"/>
</g>
<!-- Node20 -->
<g id="node20" class="node"><title>Node20</title>
<g id="a_node20"><a xlink:href="structqms__msg_order_placed.html" target="_top" xlink:title="qms_msgOrderPlaced">
<polygon fill="white" stroke="black" points="105.5,-76.5 105.5,-95.5 218.5,-95.5 218.5,-76.5 105.5,-76.5"/>
<text text-anchor="middle" x="162" y="-83.5" font-family="Helvetica,sans-Serif" font-size="10.00">qms_msgOrderPlaced</text>
</a>
</g>
</g>
<!-- Node1&#45;&gt;Node20 -->
<g id="edge19" class="edge"><title>Node1&#45;&gt;Node20</title>
<path fill="none" stroke="midnightblue" d="M32.3782,-370.234C38.2794,-312.194 58.2741,-143.91 95,-105 98.6012,-101.185 102.914,-98.1196 107.588,-95.6596"/>
<polygon fill="midnightblue" stroke="midnightblue" points="28.8838,-370.005 31.385,-380.3 35.85,-370.692 28.8838,-370.005"/>
</g>
<!-- Node21 -->
<g id="node21" class="node"><title>Node21</title>
<g id="a_node21"><a xlink:href="structqms__msg_quote.html" target="_top" xlink:title="qms_msgQuote">
<polygon fill="white" stroke="black" points="119,-38.5 119,-57.5 205,-57.5 205,-38.5 119,-38.5"/>
<text text-anchor="middle" x="162" y="-45.5" font-family="Helvetica,sans-Serif" font-size="10.00">qms_msgQuote</text>
</a>
</g>
</g>
<!-- Node1&#45;&gt;Node21 -->
<g id="edge20" class="edge"><title>Node1&#45;&gt;Node21</title>
<path fill="none" stroke="midnightblue" d="M31.8126,-370.14C36.3827,-306.935 53.6297,-111.964 95,-67 101.297,-60.1558 109.884,-55.7184 118.781,-52.8565"/>
<polygon fill="midnightblue" stroke="midnightblue" points="28.3053,-370.124 31.1038,-380.343 35.2885,-370.61 28.3053,-370.124"/>
</g>
<!-- Node22 -->
<g id="node22" class="node"><title>Node22</title>
<g id="a_node22"><a xlink:href="structqms__msg_removed.html" target="_top" xlink:title="qms_msgRemoved">
<polygon fill="white" stroke="black" points="112.5,-0.5 112.5,-19.5 211.5,-19.5 211.5,-0.5 112.5,-0.5"/>
<text text-anchor="middle" x="162" y="-7.5" font-family="Helvetica,sans-Serif" font-size="10.00">qms_msgRemoved</text>
</a>
</g>
</g>
<!-- Node1&#45;&gt;Node22 -->
<g id="edge21" class="edge"><title>Node1&#45;&gt;Node22</title>
<path fill="none" stroke="midnightblue" d="M31.3598,-370.058C34.6934,-301.968 48.9589,-80.0709 95,-29 99.7105,-23.7749 105.755,-19.949 112.269,-17.155"/>
<polygon fill="midnightblue" stroke="midnightblue" points="27.8534,-370.117 30.8869,-380.268 34.8459,-370.441 27.8534,-370.117"/>
</g>
</g>
</svg>
