<?xml version="1.0" encoding="UTF-8" standalone="no"?>
<!DOCTYPE svg PUBLIC "-//W3C//DTD SVG 1.1//EN"
 "http://www.w3.org/Graphics/SVG/1.1/DTD/svg11.dtd">
<!-- Generated by graphviz version 2.38.0 (20140413.2041)
 -->
<!-- Title: qms_barData Pages: 1 -->
<svg width="696pt" height="197pt"
 viewBox="0.00 0.00 695.50 197.00" xmlns="http://www.w3.org/2000/svg" xmlns:xlink="http://www.w3.org/1999/xlink">
<g id="graph0" class="graph" transform="scale(1 1) rotate(0) translate(4 193)">
<title>qms_barData</title>
<polygon fill="white" stroke="none" points="-4,4 -4,-193 691.5,-193 691.5,4 -4,4"/>
<!-- Node1 -->
<g id="node1" class="node"><title>Node1</title>
<polygon fill="#bfbfbf" stroke="black" points="190.5,-0.5 190.5,-19.5 264.5,-19.5 264.5,-0.5 190.5,-0.5"/>
<text text-anchor="middle" x="227.5" y="-7.5" font-family="Helvetica,sans-Serif" font-size="10.00">qms_barData</text>
</g>
<!-- Node2 -->
<g id="node2" class="node"><title>Node2</title>
<g id="a_node2"><a xlink:href="structqms__account.html" target="_top" xlink:title="qms_account">
<polygon fill="white" stroke="black" points="0,-73 0,-92 75,-92 75,-73 0,-73"/>
<text text-anchor="middle" x="37.5" y="-80" font-family="Helvetica,sans-Serif" font-size="10.00">qms_account</text>
</a>
</g>
</g>
<!-- Node2&#45;&gt;Node1 -->
<g id="edge1" class="edge"><title>Node2&#45;&gt;Node1</title>
<path fill="none" stroke="#9a32cd" stroke-dasharray="5,2" d="M64.0802,-68.5544C83.5735,-59.3442 110.832,-47.0493 135.5,-38 154.722,-30.9485 176.711,-24.4401 194.371,-19.5807"/>
<polygon fill="#9a32cd" stroke="#9a32cd" points="62.4328,-65.4624 54.915,-72.9279 65.4475,-71.78 62.4328,-65.4624"/>
<text text-anchor="middle" x="146.5" y="-41" font-family="Helvetica,sans-Serif" font-size="10.00"> acct</text>
</g>
<!-- Node3 -->
<g id="node3" class="node"><title>Node3</title>
<g id="a_node3"><a xlink:href="structqms__exposure.html" target="_top" xlink:title="qms_exposure">
<polygon fill="white" stroke="black" points="93.5,-73 93.5,-92 173.5,-92 173.5,-73 93.5,-73"/>
<text text-anchor="middle" x="133.5" y="-80" font-family="Helvetica,sans-Serif" font-size="10.00">qms_exposure</text>
</a>
</g>
</g>
<!-- Node3&#45;&gt;Node1 -->
<g id="edge2" class="edge"><title>Node3&#45;&gt;Node1</title>
<path fill="none" stroke="#9a32cd" stroke-dasharray="5,2" d="M146.243,-64.9406C153.557,-56.1825 163.297,-45.684 173.5,-38 183.38,-30.5596 195.625,-24.2418 205.955,-19.5925"/>
<polygon fill="#9a32cd" stroke="#9a32cd" points="143.344,-62.9614 139.811,-72.9499 148.802,-67.3446 143.344,-62.9614"/>
<text text-anchor="middle" x="198.5" y="-41" font-family="Helvetica,sans-Serif" font-size="10.00"> pExposure</text>
</g>
<!-- Node4 -->
<g id="node4" class="node"><title>Node4</title>
<g id="a_node4"><a xlink:href="structqms__symbol.html" target="_top" xlink:title="qms_symbol">
<polygon fill="white" stroke="black" points="191.5,-73 191.5,-92 263.5,-92 263.5,-73 191.5,-73"/>
<text text-anchor="middle" x="227.5" y="-80" font-family="Helvetica,sans-Serif" font-size="10.00">qms_symbol</text>
</a>
</g>
</g>
<!-- Node4&#45;&gt;Node1 -->
<g id="edge3" class="edge"><title>Node4&#45;&gt;Node1</title>
<path fill="none" stroke="#9a32cd" stroke-dasharray="5,2" d="M227.5,-62.442C227.5,-48.5305 227.5,-30.3203 227.5,-19.7154"/>
<polygon fill="#9a32cd" stroke="#9a32cd" points="224,-62.8553 227.5,-72.8553 231,-62.8553 224,-62.8553"/>
<text text-anchor="middle" x="245" y="-41" font-family="Helvetica,sans-Serif" font-size="10.00"> symbol</text>
</g>
<!-- Node5 -->
<g id="node5" class="node"><title>Node5</title>
<g id="a_node5"><a xlink:href="structqms__price_data.html" target="_top" xlink:title="qms_priceData">
<polygon fill="white" stroke="black" points="281.5,-73 281.5,-92 363.5,-92 363.5,-73 281.5,-73"/>
<text text-anchor="middle" x="322.5" y="-80" font-family="Helvetica,sans-Serif" font-size="10.00">qms_priceData</text>
</a>
</g>
</g>
<!-- Node5&#45;&gt;Node1 -->
<g id="edge4" class="edge"><title>Node5&#45;&gt;Node1</title>
<path fill="none" stroke="#9a32cd" stroke-dasharray="5,2" d="M303.985,-66.7068C293.167,-58.1674 279.188,-47.3091 266.5,-38 257.868,-31.667 247.946,-24.8034 240.27,-19.5812"/>
<polygon fill="#9a32cd" stroke="#9a32cd" points="301.888,-69.511 311.898,-72.9841 306.239,-64.0271 301.888,-69.511"/>
<text text-anchor="middle" x="294" y="-41" font-family="Helvetica,sans-Serif" font-size="10.00"> price</text>
</g>
<!-- Node6 -->
<g id="node6" class="node"><title>Node6</title>
<g id="a_node6"><a xlink:href="structqms__tarray.html" target="_top" xlink:title="qms_tarray\&lt; qms_item \&gt;">
<polygon fill="white" stroke="black" points="381.5,-73 381.5,-92 507.5,-92 507.5,-73 381.5,-73"/>
<text text-anchor="middle" x="444.5" y="-80" font-family="Helvetica,sans-Serif" font-size="10.00">qms_tarray&lt; qms_item &gt;</text>
</a>
</g>
</g>
<!-- Node6&#45;&gt;Node1 -->
<g id="edge5" class="edge"><title>Node6&#45;&gt;Node1</title>
<path fill="none" stroke="#9a32cd" stroke-dasharray="5,2" d="M408.695,-69.8676C365.103,-55.7051 292.517,-32.1229 253.768,-19.5341"/>
<polygon fill="#9a32cd" stroke="#9a32cd" points="407.733,-73.2348 418.325,-72.9961 409.896,-66.5774 407.733,-73.2348"/>
<text text-anchor="middle" x="351.5" y="-41" font-family="Helvetica,sans-Serif" font-size="10.00"> cfg</text>
</g>
<!-- Node7 -->
<g id="node7" class="node"><title>Node7</title>
<g id="a_node7"><a xlink:href="structqms__item.html" target="_top" xlink:title="qms_item">
<polygon fill="white" stroke="black" points="550,-163 550,-182 609,-182 609,-163 550,-163"/>
<text text-anchor="middle" x="579.5" y="-170" font-family="Helvetica,sans-Serif" font-size="10.00">qms_item</text>
</a>
</g>
</g>
<!-- Node7&#45;&gt;Node6 -->
<g id="edge6" class="edge"><title>Node7&#45;&gt;Node6</title>
<path fill="none" stroke="#9a32cd" stroke-dasharray="5,2" d="M557.663,-157.265C529.449,-138.874 481.195,-107.419 457.884,-92.2241"/>
<polygon fill="#9a32cd" stroke="#9a32cd" points="555.773,-160.212 566.062,-162.741 559.596,-154.348 555.773,-160.212"/>
<text text-anchor="middle" x="538.5" y="-124.5" font-family="Helvetica,sans-Serif" font-size="10.00"> data</text>
</g>
<!-- Node7&#45;&gt;Node7 -->
<g id="edge10" class="edge"><title>Node7&#45;&gt;Node7</title>
<path fill="none" stroke="#9a32cd" stroke-dasharray="5,2" d="M619.172,-179.59C623.908,-178.301 627,-175.938 627,-172.5 627,-167 619.083,-164.25 609.188,-164.25"/>
<polygon fill="#9a32cd" stroke="#9a32cd" points="618.717,-176.119 609.188,-180.75 619.525,-183.072 618.717,-176.119"/>
<text text-anchor="middle" x="641" y="-181" font-family="Helvetica,sans-Serif" font-size="10.00"> prev</text>
<text text-anchor="middle" x="641" y="-170" font-family="Helvetica,sans-Serif" font-size="10.00">next</text>
<text text-anchor="middle" x="641" y="-159" font-family="Helvetica,sans-Serif" font-size="10.00">parent</text>
</g>
<!-- Node9 -->
<g id="node9" class="node"><title>Node9</title>
<g id="a_node9"><a xlink:href="structqms__item_1_1_u_values_1_1node__t.html" target="_top" xlink:title="qms_item::UValues::\lnode_t">
<polygon fill="white" stroke="black" points="525.5,-67.5 525.5,-97.5 633.5,-97.5 633.5,-67.5 525.5,-67.5"/>
<text text-anchor="start" x="533.5" y="-85.5" font-family="Helvetica,sans-Serif" font-size="10.00">qms_item::UValues::</text>
<text text-anchor="middle" x="579.5" y="-74.5" font-family="Helvetica,sans-Serif" font-size="10.00">node_t</text>
</a>
</g>
</g>
<!-- Node7&#45;&gt;Node9 -->
<g id="edge9" class="edge"><title>Node7&#45;&gt;Node9</title>
<path fill="none" stroke="#9a32cd" stroke-dasharray="5,2" d="M579.5,-152.663C579.5,-136.193 579.5,-112.638 579.5,-97.709"/>
<polygon fill="#9a32cd" stroke="#9a32cd" points="576,-152.74 579.5,-162.741 583,-152.741 576,-152.74"/>
<text text-anchor="middle" x="600" y="-130" font-family="Helvetica,sans-Serif" font-size="10.00"> firstChild</text>
<text text-anchor="middle" x="600" y="-119" font-family="Helvetica,sans-Serif" font-size="10.00">lastChild</text>
</g>
<!-- Node8 -->
<g id="node8" class="node"><title>Node8</title>
<g id="a_node8"><a xlink:href="unionqms__item_1_1_u_values.html" target="_top" xlink:title="qms_item::UValues">
<polygon fill="white" stroke="black" points="585.5,-0.5 585.5,-19.5 687.5,-19.5 687.5,-0.5 585.5,-0.5"/>
<text text-anchor="middle" x="636.5" y="-7.5" font-family="Helvetica,sans-Serif" font-size="10.00">qms_item::UValues</text>
</a>
</g>
</g>
<!-- Node8&#45;&gt;Node7 -->
<g id="edge7" class="edge"><title>Node8&#45;&gt;Node7</title>
<path fill="none" stroke="#9a32cd" stroke-dasharray="5,2" d="M640.709,-29.3985C644.083,-47.154 647.502,-74.6964 642.5,-98 638.409,-117.061 636.711,-122.803 624.5,-138 616.325,-148.174 604.379,-156.876 594.85,-162.859"/>
<polygon fill="#9a32cd" stroke="#9a32cd" points="644.113,-28.5801 638.638,-19.5098 637.262,-30.0149 644.113,-28.5801"/>
<text text-anchor="middle" x="652" y="-80" font-family="Helvetica,sans-Serif" font-size="10.00"> val</text>
</g>
<!-- Node9&#45;&gt;Node8 -->
<g id="edge8" class="edge"><title>Node9&#45;&gt;Node8</title>
<path fill="none" stroke="#9a32cd" stroke-dasharray="5,2" d="M597.381,-59.3845C608.173,-46.0362 621.336,-29.7556 629.31,-19.8932"/>
<polygon fill="#9a32cd" stroke="#9a32cd" points="594.6,-57.2564 591.035,-67.2333 600.044,-61.6575 594.6,-57.2564"/>
<text text-anchor="middle" x="625" y="-41" font-family="Helvetica,sans-Serif" font-size="10.00"> node</text>
</g>
</g>
</svg>
