<?xml version="1.0" encoding="UTF-8" standalone="no"?>
<!DOCTYPE svg PUBLIC "-//W3C//DTD SVG 1.1//EN"
 "http://www.w3.org/Graphics/SVG/1.1/DTD/svg11.dtd">
<!-- Generated by graphviz version 2.38.0 (20140413.2041)
 -->
<!-- Title: qms_getPluginInfo Pages: 1 -->
<svg width="379pt" height="264pt"
 viewBox="0.00 0.00 378.50 264.00" xmlns="http://www.w3.org/2000/svg" xmlns:xlink="http://www.w3.org/1999/xlink">
<g id="graph0" class="graph" transform="scale(1 1) rotate(0) translate(4 260)">
<title>qms_getPluginInfo</title>
<polygon fill="white" stroke="none" points="-4,4 -4,-260 374.5,-260 374.5,4 -4,4"/>
<!-- Node1 -->
<g id="node1" class="node"><title>Node1</title>
<polygon fill="#bfbfbf" stroke="black" points="11.5,-0.5 11.5,-19.5 107.5,-19.5 107.5,-0.5 11.5,-0.5"/>
<text text-anchor="middle" x="59.5" y="-7.5" font-family="Helvetica,sans-Serif" font-size="10.00">qms_getPluginInfo</text>
</g>
<!-- Node2 -->
<g id="node2" class="node"><title>Node2</title>
<g id="a_node2"><a xlink:href="structqms__msg.html" target="_top" xlink:title="qms_msg">
<polygon fill="white" stroke="black" points="0,-67.5 0,-86.5 59,-86.5 59,-67.5 0,-67.5"/>
<text text-anchor="middle" x="29.5" y="-74.5" font-family="Helvetica,sans-Serif" font-size="10.00">qms_msg</text>
</a>
</g>
</g>
<!-- Node2&#45;&gt;Node1 -->
<g id="edge1" class="edge"><title>Node2&#45;&gt;Node1</title>
<path fill="none" stroke="midnightblue" d="M37.9046,-57.79C43.6657,-45.3076 51.0476,-29.3135 55.5182,-19.6273"/>
<polygon fill="midnightblue" stroke="midnightblue" points="34.5587,-56.6875 33.5459,-67.2338 40.9144,-59.6209 34.5587,-56.6875"/>
</g>
<!-- Node3 -->
<g id="node3" class="node"><title>Node3</title>
<g id="a_node3"><a xlink:href="structqms__plugin_info.html" target="_top" xlink:title="qms_pluginInfo">
<polygon fill="white" stroke="black" points="77,-67.5 77,-86.5 158,-86.5 158,-67.5 77,-67.5"/>
<text text-anchor="middle" x="117.5" y="-74.5" font-family="Helvetica,sans-Serif" font-size="10.00">qms_pluginInfo</text>
</a>
</g>
</g>
<!-- Node3&#45;&gt;Node1 -->
<g id="edge2" class="edge"><title>Node3&#45;&gt;Node1</title>
<path fill="none" stroke="#9a32cd" stroke-dasharray="5,2" d="M102.897,-59.6348C91.5542,-46.9228 76.2734,-29.7978 67.1982,-19.6273"/>
<polygon fill="#9a32cd" stroke="#9a32cd" points="100.408,-62.1026 109.678,-67.2338 105.631,-57.4421 100.408,-62.1026"/>
<text text-anchor="middle" x="104.5" y="-41" font-family="Helvetica,sans-Serif" font-size="10.00"> pInfo</text>
</g>
<!-- Node4 -->
<g id="node4" class="node"><title>Node4</title>
<g id="a_node4"><a xlink:href="structqms__tarray.html" target="_top" xlink:title="qms_tarray\&lt; qms_item \&gt;">
<polygon fill="white" stroke="black" points="54.5,-140 54.5,-159 180.5,-159 180.5,-140 54.5,-140"/>
<text text-anchor="middle" x="117.5" y="-147" font-family="Helvetica,sans-Serif" font-size="10.00">qms_tarray&lt; qms_item &gt;</text>
</a>
</g>
</g>
<!-- Node4&#45;&gt;Node3 -->
<g id="edge3" class="edge"><title>Node4&#45;&gt;Node3</title>
<path fill="none" stroke="#9a32cd" stroke-dasharray="5,2" d="M117.5,-129.442C117.5,-115.53 117.5,-97.3203 117.5,-86.7154"/>
<polygon fill="#9a32cd" stroke="#9a32cd" points="114,-129.855 117.5,-139.855 121,-129.855 114,-129.855"/>
<text text-anchor="middle" x="125.5" y="-108" font-family="Helvetica,sans-Serif" font-size="10.00"> cfg</text>
</g>
<!-- Node5 -->
<g id="node5" class="node"><title>Node5</title>
<g id="a_node5"><a xlink:href="structqms__item.html" target="_top" xlink:title="qms_item">
<polygon fill="white" stroke="black" points="223,-230 223,-249 282,-249 282,-230 223,-230"/>
<text text-anchor="middle" x="252.5" y="-237" font-family="Helvetica,sans-Serif" font-size="10.00">qms_item</text>
</a>
</g>
</g>
<!-- Node5&#45;&gt;Node4 -->
<g id="edge4" class="edge"><title>Node5&#45;&gt;Node4</title>
<path fill="none" stroke="#9a32cd" stroke-dasharray="5,2" d="M230.663,-224.265C202.449,-205.874 154.195,-174.419 130.884,-159.224"/>
<polygon fill="#9a32cd" stroke="#9a32cd" points="228.773,-227.212 239.062,-229.741 232.596,-221.348 228.773,-227.212"/>
<text text-anchor="middle" x="211.5" y="-191.5" font-family="Helvetica,sans-Serif" font-size="10.00"> data</text>
</g>
<!-- Node5&#45;&gt;Node5 -->
<g id="edge8" class="edge"><title>Node5&#45;&gt;Node5</title>
<path fill="none" stroke="#9a32cd" stroke-dasharray="5,2" d="M292.172,-246.59C296.908,-245.301 300,-242.938 300,-239.5 300,-234 292.083,-231.25 282.188,-231.25"/>
<polygon fill="#9a32cd" stroke="#9a32cd" points="291.717,-243.119 282.188,-247.75 292.525,-250.072 291.717,-243.119"/>
<text text-anchor="middle" x="314" y="-248" font-family="Helvetica,sans-Serif" font-size="10.00"> prev</text>
<text text-anchor="middle" x="314" y="-237" font-family="Helvetica,sans-Serif" font-size="10.00">next</text>
<text text-anchor="middle" x="314" y="-226" font-family="Helvetica,sans-Serif" font-size="10.00">parent</text>
</g>
<!-- Node7 -->
<g id="node7" class="node"><title>Node7</title>
<g id="a_node7"><a xlink:href="structqms__item_1_1_u_values_1_1node__t.html" target="_top" xlink:title="qms_item::UValues::\lnode_t">
<polygon fill="white" stroke="black" points="198.5,-134.5 198.5,-164.5 306.5,-164.5 306.5,-134.5 198.5,-134.5"/>
<text text-anchor="start" x="206.5" y="-152.5" font-family="Helvetica,sans-Serif" font-size="10.00">qms_item::UValues::</text>
<text text-anchor="middle" x="252.5" y="-141.5" font-family="Helvetica,sans-Serif" font-size="10.00">node_t</text>
</a>
</g>
</g>
<!-- Node5&#45;&gt;Node7 -->
<g id="edge7" class="edge"><title>Node5&#45;&gt;Node7</title>
<path fill="none" stroke="#9a32cd" stroke-dasharray="5,2" d="M252.5,-219.663C252.5,-203.193 252.5,-179.638 252.5,-164.709"/>
<polygon fill="#9a32cd" stroke="#9a32cd" points="249,-219.74 252.5,-229.741 256,-219.741 249,-219.74"/>
<text text-anchor="middle" x="273" y="-197" font-family="Helvetica,sans-Serif" font-size="10.00"> firstChild</text>
<text text-anchor="middle" x="273" y="-186" font-family="Helvetica,sans-Serif" font-size="10.00">lastChild</text>
</g>
<!-- Node6 -->
<g id="node6" class="node"><title>Node6</title>
<g id="a_node6"><a xlink:href="unionqms__item_1_1_u_values.html" target="_top" xlink:title="qms_item::UValues">
<polygon fill="white" stroke="black" points="268.5,-67.5 268.5,-86.5 370.5,-86.5 370.5,-67.5 268.5,-67.5"/>
<text text-anchor="middle" x="319.5" y="-74.5" font-family="Helvetica,sans-Serif" font-size="10.00">qms_item::UValues</text>
</a>
</g>
</g>
<!-- Node6&#45;&gt;Node5 -->
<g id="edge5" class="edge"><title>Node6&#45;&gt;Node5</title>
<path fill="none" stroke="#9a32cd" stroke-dasharray="5,2" d="M321.497,-96.5193C323.357,-123.431 322.763,-173.557 297.5,-205 289.325,-215.174 277.379,-223.876 267.85,-229.859"/>
<polygon fill="#9a32cd" stroke="#9a32cd" points="324.981,-96.1823 320.614,-86.5292 318.008,-96.7985 324.981,-96.1823"/>
<text text-anchor="middle" x="328" y="-147" font-family="Helvetica,sans-Serif" font-size="10.00"> val</text>
</g>
<!-- Node7&#45;&gt;Node6 -->
<g id="edge6" class="edge"><title>Node7&#45;&gt;Node6</title>
<path fill="none" stroke="#9a32cd" stroke-dasharray="5,2" d="M273.159,-126.762C285.911,-113.344 301.587,-96.8487 311.048,-86.8932"/>
<polygon fill="#9a32cd" stroke="#9a32cd" points="270.41,-124.573 266.058,-134.233 275.484,-129.396 270.41,-124.573"/>
<text text-anchor="middle" x="304" y="-108" font-family="Helvetica,sans-Serif" font-size="10.00"> node</text>
</g>
</g>
</svg>
