<?xml version="1.0" encoding="UTF-8" standalone="no"?>
<!DOCTYPE svg PUBLIC "-//W3C//DTD SVG 1.1//EN"
 "http://www.w3.org/Graphics/SVG/1.1/DTD/svg11.dtd">
<!-- Generated by graphviz version 2.38.0 (20140413.2041)
 -->
<!-- Title: qms_msgLimitChanged Pages: 1 -->
<svg width="144pt" height="95pt"
 viewBox="0.00 0.00 144.00 95.00" xmlns="http://www.w3.org/2000/svg" xmlns:xlink="http://www.w3.org/1999/xlink">
<g id="graph0" class="graph" transform="scale(1 1) rotate(0) translate(4 91)">
<title>qms_msgLimitChanged</title>
<polygon fill="white" stroke="none" points="-4,4 -4,-91 140,-91 140,4 -4,4"/>
<!-- Node1 -->
<g id="node1" class="node"><title>Node1</title>
<polygon fill="#bfbfbf" stroke="black" points="8,-0.5 8,-19.5 127,-19.5 127,-0.5 8,-0.5"/>
<text text-anchor="middle" x="67.5" y="-7.5" font-family="Helvetica,sans-Serif" font-size="10.00">qms_msgLimitChanged</text>
</g>
<!-- Node2 -->
<g id="node2" class="node"><title>Node2</title>
<g id="a_node2"><a xlink:href="structqms__msg.html" target="_top" xlink:title="qms_msg">
<polygon fill="white" stroke="black" points="0,-67.5 0,-86.5 59,-86.5 59,-67.5 0,-67.5"/>
<text text-anchor="middle" x="29.5" y="-74.5" font-family="Helvetica,sans-Serif" font-size="10.00">qms_msg</text>
</a>
</g>
</g>
<!-- Node2&#45;&gt;Node1 -->
<g id="edge1" class="edge"><title>Node2&#45;&gt;Node1</title>
<path fill="none" stroke="midnightblue" d="M39.7105,-58.5347C47.0678,-45.9499 56.6804,-29.5072 62.4563,-19.6273"/>
<polygon fill="midnightblue" stroke="midnightblue" points="36.6503,-56.8344 34.6248,-67.2338 42.6934,-60.3673 36.6503,-56.8344"/>
</g>
<!-- Node3 -->
<g id="node3" class="node"><title>Node3</title>
<g id="a_node3"><a xlink:href="structqms__limit.html" target="_top" xlink:title="qms_limit">
<polygon fill="white" stroke="black" points="77,-67.5 77,-86.5 136,-86.5 136,-67.5 77,-67.5"/>
<text text-anchor="middle" x="106.5" y="-74.5" font-family="Helvetica,sans-Serif" font-size="10.00">qms_limit</text>
</a>
</g>
</g>
<!-- Node3&#45;&gt;Node1 -->
<g id="edge2" class="edge"><title>Node3&#45;&gt;Node1</title>
<path fill="none" stroke="#9a32cd" stroke-dasharray="5,2" d="M96.0208,-58.5347C88.4699,-45.9499 78.6043,-29.5072 72.6764,-19.6273"/>
<polygon fill="#9a32cd" stroke="#9a32cd" points="93.0941,-60.4596 101.24,-67.2338 99.0965,-56.8581 93.0941,-60.4596"/>
<text text-anchor="middle" x="99.5" y="-41" font-family="Helvetica,sans-Serif" font-size="10.00"> limit</text>
</g>
</g>
</svg>
