<?xml version="1.0" encoding="UTF-8" standalone="no"?>
<!DOCTYPE svg PUBLIC "-//W3C//DTD SVG 1.1//EN"
 "http://www.w3.org/Graphics/SVG/1.1/DTD/svg11.dtd">
<!-- Generated by graphviz version 2.38.0 (20140413.2041)
 -->
<!-- Title: qms_item::UValues::node_t Pages: 1 -->
<svg width="193pt" height="188pt"
 viewBox="0.00 0.00 192.50 188.00" xmlns="http://www.w3.org/2000/svg" xmlns:xlink="http://www.w3.org/1999/xlink">
<g id="graph0" class="graph" transform="scale(1 1) rotate(0) translate(4 184)">
<title>qms_item::UValues::node_t</title>
<polygon fill="white" stroke="none" points="-4,4 -4,-184 188.5,-184 188.5,4 -4,4"/>
<!-- Node1 -->
<g id="node1" class="node"><title>Node1</title>
<polygon fill="#bfbfbf" stroke="black" points="62,-149.5 62,-179.5 170,-179.5 170,-149.5 62,-149.5"/>
<text text-anchor="start" x="70" y="-167.5" font-family="Helvetica,sans-Serif" font-size="10.00">qms_item::UValues::</text>
<text text-anchor="middle" x="116" y="-156.5" font-family="Helvetica,sans-Serif" font-size="10.00">node_t</text>
</g>
<!-- Node3 -->
<g id="node3" class="node"><title>Node3</title>
<g id="a_node3"><a xlink:href="unionqms__item_1_1_u_values.html" target="_top" xlink:title="qms_item::UValues">
<polygon fill="white" stroke="black" points="0,-81.5 0,-100.5 102,-100.5 102,-81.5 0,-81.5"/>
<text text-anchor="middle" x="51" y="-88.5" font-family="Helvetica,sans-Serif" font-size="10.00">qms_item::UValues</text>
</a>
</g>
</g>
<!-- Node1&#45;&gt;Node3 -->
<g id="edge3" class="edge"><title>Node1&#45;&gt;Node3</title>
<path fill="none" stroke="#9a32cd" stroke-dasharray="5,2" d="M96.1887,-141.708C83.6449,-127.909 68.1095,-110.82 58.9073,-100.698"/>
<polygon fill="#9a32cd" stroke="#9a32cd" points="93.8415,-144.329 103.158,-149.374 99.0211,-139.62 93.8415,-144.329"/>
<text text-anchor="middle" x="98.5" y="-123" font-family="Helvetica,sans-Serif" font-size="10.00"> node</text>
</g>
<!-- Node2 -->
<g id="node2" class="node"><title>Node2</title>
<g id="a_node2"><a xlink:href="structqms__item.html" target="_top" xlink:title="qms_item">
<polygon fill="white" stroke="black" points="79.5,-7 79.5,-26 138.5,-26 138.5,-7 79.5,-7"/>
<text text-anchor="middle" x="109" y="-14" font-family="Helvetica,sans-Serif" font-size="10.00">qms_item</text>
</a>
</g>
</g>
<!-- Node2&#45;&gt;Node1 -->
<g id="edge1" class="edge"><title>Node2&#45;&gt;Node1</title>
<path fill="none" stroke="#9a32cd" stroke-dasharray="5,2" d="M110.312,-36.4684C111.688,-57.0346 113.811,-90.8313 115,-120 115.4,-129.812 115.651,-140.876 115.802,-149.391"/>
<polygon fill="#9a32cd" stroke="#9a32cd" points="113.789,-36.0092 109.619,-26.2699 106.805,-36.4844 113.789,-36.0092"/>
<text text-anchor="middle" x="134.5" y="-94" font-family="Helvetica,sans-Serif" font-size="10.00"> firstChild</text>
<text text-anchor="middle" x="134.5" y="-83" font-family="Helvetica,sans-Serif" font-size="10.00">lastChild</text>
</g>
<!-- Node2&#45;&gt;Node2 -->
<g id="edge4" class="edge"><title>Node2&#45;&gt;Node2</title>
<path fill="none" stroke="#9a32cd" stroke-dasharray="5,2" d="M148.672,-22.9453C153.408,-21.7734 156.5,-19.625 156.5,-16.5 156.5,-11.5 148.583,-9 138.688,-9"/>
<polygon fill="#9a32cd" stroke="#9a32cd" points="148.264,-19.4688 138.688,-24 149,-26.4301 148.264,-19.4688"/>
<text text-anchor="middle" x="170.5" y="-25" font-family="Helvetica,sans-Serif" font-size="10.00"> prev</text>
<text text-anchor="middle" x="170.5" y="-14" font-family="Helvetica,sans-Serif" font-size="10.00">next</text>
<text text-anchor="middle" x="170.5" y="-3" font-family="Helvetica,sans-Serif" font-size="10.00">parent</text>
</g>
<!-- Node3&#45;&gt;Node2 -->
<g id="edge2" class="edge"><title>Node3&#45;&gt;Node2</title>
<path fill="none" stroke="#9a32cd" stroke-dasharray="5,2" d="M64.1494,-73.5633C75.9487,-58.8141 92.8014,-37.7483 102.128,-26.0902"/>
<polygon fill="#9a32cd" stroke="#9a32cd" points="61.3951,-71.4034 57.8811,-81.3986 66.8612,-75.7763 61.3951,-71.4034"/>
<text text-anchor="middle" x="89.5" y="-54" font-family="Helvetica,sans-Serif" font-size="10.00"> val</text>
</g>
</g>
</svg>
