<?xml version="1.0" encoding="UTF-8" standalone="no"?>
<!DOCTYPE svg PUBLIC "-//W3C//DTD SVG 1.1//EN"
 "http://www.w3.org/Graphics/SVG/1.1/DTD/svg11.dtd">
<!-- Generated by graphviz version 2.38.0 (20140413.2041)
 -->
<!-- Title: qms_itemChanged Pages: 1 -->
<svg width="286pt" height="197pt"
 viewBox="0.00 0.00 286.00 197.00" xmlns="http://www.w3.org/2000/svg" xmlns:xlink="http://www.w3.org/1999/xlink">
<g id="graph0" class="graph" transform="scale(1 1) rotate(0) translate(4 193)">
<title>qms_itemChanged</title>
<polygon fill="white" stroke="none" points="-4,4 -4,-193 282,-193 282,4 -4,4"/>
<!-- Node1 -->
<g id="node1" class="node"><title>Node1</title>
<polygon fill="#bfbfbf" stroke="black" points="0,-73 0,-92 98,-92 98,-73 0,-73"/>
<text text-anchor="middle" x="49" y="-80" font-family="Helvetica,sans-Serif" font-size="10.00">qms_itemChanged</text>
</g>
<!-- Node2 -->
<g id="node2" class="node"><title>Node2</title>
<g id="a_node2"><a xlink:href="structqms__msg.html" target="_top" xlink:title="qms_msg">
<polygon fill="white" stroke="black" points="19.5,-163 19.5,-182 78.5,-182 78.5,-163 19.5,-163"/>
<text text-anchor="middle" x="49" y="-170" font-family="Helvetica,sans-Serif" font-size="10.00">qms_msg</text>
</a>
</g>
</g>
<!-- Node2&#45;&gt;Node1 -->
<g id="edge1" class="edge"><title>Node2&#45;&gt;Node1</title>
<path fill="none" stroke="midnightblue" d="M49,-152.478C49,-133.81 49,-106.17 49,-92.2241"/>
<polygon fill="midnightblue" stroke="midnightblue" points="45.5001,-152.74 49,-162.741 52.5001,-152.741 45.5001,-152.74"/>
</g>
<!-- Node3 -->
<g id="node3" class="node"><title>Node3</title>
<g id="a_node3"><a xlink:href="structqms__item.html" target="_top" xlink:title="qms_item">
<polygon fill="white" stroke="black" points="140.5,-163 140.5,-182 199.5,-182 199.5,-163 140.5,-163"/>
<text text-anchor="middle" x="170" y="-170" font-family="Helvetica,sans-Serif" font-size="10.00">qms_item</text>
</a>
</g>
</g>
<!-- Node3&#45;&gt;Node1 -->
<g id="edge2" class="edge"><title>Node3&#45;&gt;Node1</title>
<path fill="none" stroke="#9a32cd" stroke-dasharray="5,2" d="M149.767,-156.785C124.392,-138.33 81.7083,-107.288 60.9956,-92.2241"/>
<polygon fill="#9a32cd" stroke="#9a32cd" points="147.81,-159.689 157.956,-162.741 151.927,-154.028 147.81,-159.689"/>
<text text-anchor="middle" x="138" y="-124.5" font-family="Helvetica,sans-Serif" font-size="10.00"> pItem</text>
</g>
<!-- Node3&#45;&gt;Node3 -->
<g id="edge6" class="edge"><title>Node3&#45;&gt;Node3</title>
<path fill="none" stroke="#9a32cd" stroke-dasharray="5,2" d="M209.672,-179.59C214.408,-178.301 217.5,-175.938 217.5,-172.5 217.5,-167 209.583,-164.25 199.688,-164.25"/>
<polygon fill="#9a32cd" stroke="#9a32cd" points="209.217,-176.119 199.688,-180.75 210.025,-183.072 209.217,-176.119"/>
<text text-anchor="middle" x="231.5" y="-181" font-family="Helvetica,sans-Serif" font-size="10.00"> prev</text>
<text text-anchor="middle" x="231.5" y="-170" font-family="Helvetica,sans-Serif" font-size="10.00">next</text>
<text text-anchor="middle" x="231.5" y="-159" font-family="Helvetica,sans-Serif" font-size="10.00">parent</text>
</g>
<!-- Node5 -->
<g id="node5" class="node"><title>Node5</title>
<g id="a_node5"><a xlink:href="structqms__item_1_1_u_values_1_1node__t.html" target="_top" xlink:title="qms_item::UValues::\lnode_t">
<polygon fill="white" stroke="black" points="116,-67.5 116,-97.5 224,-97.5 224,-67.5 116,-67.5"/>
<text text-anchor="start" x="124" y="-85.5" font-family="Helvetica,sans-Serif" font-size="10.00">qms_item::UValues::</text>
<text text-anchor="middle" x="170" y="-74.5" font-family="Helvetica,sans-Serif" font-size="10.00">node_t</text>
</a>
</g>
</g>
<!-- Node3&#45;&gt;Node5 -->
<g id="edge5" class="edge"><title>Node3&#45;&gt;Node5</title>
<path fill="none" stroke="#9a32cd" stroke-dasharray="5,2" d="M170,-152.663C170,-136.193 170,-112.638 170,-97.709"/>
<polygon fill="#9a32cd" stroke="#9a32cd" points="166.5,-152.74 170,-162.741 173.5,-152.741 166.5,-152.74"/>
<text text-anchor="middle" x="190.5" y="-130" font-family="Helvetica,sans-Serif" font-size="10.00"> firstChild</text>
<text text-anchor="middle" x="190.5" y="-119" font-family="Helvetica,sans-Serif" font-size="10.00">lastChild</text>
</g>
<!-- Node4 -->
<g id="node4" class="node"><title>Node4</title>
<g id="a_node4"><a xlink:href="unionqms__item_1_1_u_values.html" target="_top" xlink:title="qms_item::UValues">
<polygon fill="white" stroke="black" points="176,-0.5 176,-19.5 278,-19.5 278,-0.5 176,-0.5"/>
<text text-anchor="middle" x="227" y="-7.5" font-family="Helvetica,sans-Serif" font-size="10.00">qms_item::UValues</text>
</a>
</g>
</g>
<!-- Node4&#45;&gt;Node3 -->
<g id="edge3" class="edge"><title>Node4&#45;&gt;Node3</title>
<path fill="none" stroke="#9a32cd" stroke-dasharray="5,2" d="M231.727,-29.7949C232.254,-32.5315 232.707,-35.327 233,-38 235.91,-64.5074 238.596,-71.9271 233,-98 228.909,-117.061 227.211,-122.803 215,-138 206.825,-148.174 194.879,-156.876 185.35,-162.859"/>
<polygon fill="#9a32cd" stroke="#9a32cd" points="235.113,-28.9014 229.497,-19.9178 228.285,-30.4431 235.113,-28.9014"/>
<text text-anchor="middle" x="244.5" y="-80" font-family="Helvetica,sans-Serif" font-size="10.00"> val</text>
</g>
<!-- Node5&#45;&gt;Node4 -->
<g id="edge4" class="edge"><title>Node5&#45;&gt;Node4</title>
<path fill="none" stroke="#9a32cd" stroke-dasharray="5,2" d="M187.881,-59.3845C198.673,-46.0362 211.836,-29.7556 219.81,-19.8932"/>
<polygon fill="#9a32cd" stroke="#9a32cd" points="185.1,-57.2564 181.535,-67.2333 190.544,-61.6575 185.1,-57.2564"/>
<text text-anchor="middle" x="216.5" y="-41" font-family="Helvetica,sans-Serif" font-size="10.00"> node</text>
</g>
</g>
</svg>
