<?xml version="1.0" encoding="UTF-8" standalone="no"?>
<!DOCTYPE svg PUBLIC "-//W3C//DTD SVG 1.1//EN"
 "http://www.w3.org/Graphics/SVG/1.1/DTD/svg11.dtd">
<!-- Generated by graphviz version 2.38.0 (20140413.2041)
 -->
<!-- Title: qms_acctCfgChanged Pages: 1 -->
<svg width="300pt" height="197pt"
 viewBox="0.00 0.00 300.00 197.00" xmlns="http://www.w3.org/2000/svg" xmlns:xlink="http://www.w3.org/1999/xlink">
<g id="graph0" class="graph" transform="scale(1 1) rotate(0) translate(4 193)">
<title>qms_acctCfgChanged</title>
<polygon fill="white" stroke="none" points="-4,4 -4,-193 296,-193 296,4 -4,4"/>
<!-- Node1 -->
<g id="node1" class="node"><title>Node1</title>
<polygon fill="#bfbfbf" stroke="black" points="0,-73 0,-92 112,-92 112,-73 0,-73"/>
<text text-anchor="middle" x="56" y="-80" font-family="Helvetica,sans-Serif" font-size="10.00">qms_acctCfgChanged</text>
</g>
<!-- Node2 -->
<g id="node2" class="node"><title>Node2</title>
<g id="a_node2"><a xlink:href="structqms__msg.html" target="_top" xlink:title="qms_msg">
<polygon fill="white" stroke="black" points="26.5,-163 26.5,-182 85.5,-182 85.5,-163 26.5,-163"/>
<text text-anchor="middle" x="56" y="-170" font-family="Helvetica,sans-Serif" font-size="10.00">qms_msg</text>
</a>
</g>
</g>
<!-- Node2&#45;&gt;Node1 -->
<g id="edge1" class="edge"><title>Node2&#45;&gt;Node1</title>
<path fill="none" stroke="midnightblue" d="M56,-152.478C56,-133.81 56,-106.17 56,-92.2241"/>
<polygon fill="midnightblue" stroke="midnightblue" points="52.5001,-152.74 56,-162.741 59.5001,-152.741 52.5001,-152.74"/>
</g>
<!-- Node3 -->
<g id="node3" class="node"><title>Node3</title>
<g id="a_node3"><a xlink:href="structqms__item.html" target="_top" xlink:title="qms_item">
<polygon fill="white" stroke="black" points="154.5,-163 154.5,-182 213.5,-182 213.5,-163 154.5,-163"/>
<text text-anchor="middle" x="184" y="-170" font-family="Helvetica,sans-Serif" font-size="10.00">qms_item</text>
</a>
</g>
</g>
<!-- Node3&#45;&gt;Node1 -->
<g id="edge2" class="edge"><title>Node3&#45;&gt;Node1</title>
<path fill="none" stroke="#9a32cd" stroke-dasharray="5,2" d="M162.947,-157.026C136.148,-138.602 90.6962,-107.354 68.6896,-92.2241"/>
<polygon fill="#9a32cd" stroke="#9a32cd" points="161.036,-159.959 171.259,-162.741 165.001,-154.191 161.036,-159.959"/>
<text text-anchor="middle" x="150" y="-124.5" font-family="Helvetica,sans-Serif" font-size="10.00"> pItem</text>
</g>
<!-- Node3&#45;&gt;Node3 -->
<g id="edge6" class="edge"><title>Node3&#45;&gt;Node3</title>
<path fill="none" stroke="#9a32cd" stroke-dasharray="5,2" d="M223.672,-179.59C228.408,-178.301 231.5,-175.938 231.5,-172.5 231.5,-167 223.583,-164.25 213.688,-164.25"/>
<polygon fill="#9a32cd" stroke="#9a32cd" points="223.217,-176.119 213.688,-180.75 224.025,-183.072 223.217,-176.119"/>
<text text-anchor="middle" x="245.5" y="-181" font-family="Helvetica,sans-Serif" font-size="10.00"> prev</text>
<text text-anchor="middle" x="245.5" y="-170" font-family="Helvetica,sans-Serif" font-size="10.00">next</text>
<text text-anchor="middle" x="245.5" y="-159" font-family="Helvetica,sans-Serif" font-size="10.00">parent</text>
</g>
<!-- Node5 -->
<g id="node5" class="node"><title>Node5</title>
<g id="a_node5"><a xlink:href="structqms__item_1_1_u_values_1_1node__t.html" target="_top" xlink:title="qms_item::UValues::\lnode_t">
<polygon fill="white" stroke="black" points="130,-67.5 130,-97.5 238,-97.5 238,-67.5 130,-67.5"/>
<text text-anchor="start" x="138" y="-85.5" font-family="Helvetica,sans-Serif" font-size="10.00">qms_item::UValues::</text>
<text text-anchor="middle" x="184" y="-74.5" font-family="Helvetica,sans-Serif" font-size="10.00">node_t</text>
</a>
</g>
</g>
<!-- Node3&#45;&gt;Node5 -->
<g id="edge5" class="edge"><title>Node3&#45;&gt;Node5</title>
<path fill="none" stroke="#9a32cd" stroke-dasharray="5,2" d="M184,-152.663C184,-136.193 184,-112.638 184,-97.709"/>
<polygon fill="#9a32cd" stroke="#9a32cd" points="180.5,-152.74 184,-162.741 187.5,-152.741 180.5,-152.74"/>
<text text-anchor="middle" x="204.5" y="-130" font-family="Helvetica,sans-Serif" font-size="10.00"> firstChild</text>
<text text-anchor="middle" x="204.5" y="-119" font-family="Helvetica,sans-Serif" font-size="10.00">lastChild</text>
</g>
<!-- Node4 -->
<g id="node4" class="node"><title>Node4</title>
<g id="a_node4"><a xlink:href="unionqms__item_1_1_u_values.html" target="_top" xlink:title="qms_item::UValues">
<polygon fill="white" stroke="black" points="190,-0.5 190,-19.5 292,-19.5 292,-0.5 190,-0.5"/>
<text text-anchor="middle" x="241" y="-7.5" font-family="Helvetica,sans-Serif" font-size="10.00">qms_item::UValues</text>
</a>
</g>
</g>
<!-- Node4&#45;&gt;Node3 -->
<g id="edge3" class="edge"><title>Node4&#45;&gt;Node3</title>
<path fill="none" stroke="#9a32cd" stroke-dasharray="5,2" d="M245.727,-29.7949C246.254,-32.5315 246.707,-35.327 247,-38 249.91,-64.5074 252.596,-71.9271 247,-98 242.909,-117.061 241.211,-122.803 229,-138 220.825,-148.174 208.879,-156.876 199.35,-162.859"/>
<polygon fill="#9a32cd" stroke="#9a32cd" points="249.113,-28.9014 243.497,-19.9178 242.285,-30.4431 249.113,-28.9014"/>
<text text-anchor="middle" x="258.5" y="-80" font-family="Helvetica,sans-Serif" font-size="10.00"> val</text>
</g>
<!-- Node5&#45;&gt;Node4 -->
<g id="edge4" class="edge"><title>Node5&#45;&gt;Node4</title>
<path fill="none" stroke="#9a32cd" stroke-dasharray="5,2" d="M201.881,-59.3845C212.673,-46.0362 225.836,-29.7556 233.81,-19.8932"/>
<polygon fill="#9a32cd" stroke="#9a32cd" points="199.1,-57.2564 195.535,-67.2333 204.544,-61.6575 199.1,-57.2564"/>
<text text-anchor="middle" x="230.5" y="-41" font-family="Helvetica,sans-Serif" font-size="10.00"> node</text>
</g>
</g>
</svg>
