<?xml version="1.0" encoding="UTF-8" standalone="no"?>
<!DOCTYPE svg PUBLIC "-//W3C//DTD SVG 1.1//EN"
 "http://www.w3.org/Graphics/SVG/1.1/DTD/svg11.dtd">
<!-- Generated by graphviz version 2.38.0 (20140413.2041)
 -->
<!-- Title: qms_item Pages: 1 -->
<svg width="200pt" height="197pt"
 viewBox="0.00 0.00 199.50 197.00" xmlns="http://www.w3.org/2000/svg" xmlns:xlink="http://www.w3.org/1999/xlink">
<g id="graph0" class="graph" transform="scale(1 1) rotate(0) translate(4 193)">
<title>qms_item</title>
<polygon fill="white" stroke="none" points="-4,4 -4,-193 195.5,-193 195.5,4 -4,4"/>
<!-- Node1 -->
<g id="node1" class="node"><title>Node1</title>
<polygon fill="#bfbfbf" stroke="black" points="86.5,-163 86.5,-182 145.5,-182 145.5,-163 86.5,-163"/>
<text text-anchor="middle" x="116" y="-170" font-family="Helvetica,sans-Serif" font-size="10.00">qms_item</text>
</g>
<!-- Node1&#45;&gt;Node1 -->
<g id="edge4" class="edge"><title>Node1&#45;&gt;Node1</title>
<path fill="none" stroke="#9a32cd" stroke-dasharray="5,2" d="M155.672,-179.59C160.408,-178.301 163.5,-175.938 163.5,-172.5 163.5,-167 155.583,-164.25 145.688,-164.25"/>
<polygon fill="#9a32cd" stroke="#9a32cd" points="155.217,-176.119 145.688,-180.75 156.025,-183.072 155.217,-176.119"/>
<text text-anchor="middle" x="177.5" y="-181" font-family="Helvetica,sans-Serif" font-size="10.00"> prev</text>
<text text-anchor="middle" x="177.5" y="-170" font-family="Helvetica,sans-Serif" font-size="10.00">next</text>
<text text-anchor="middle" x="177.5" y="-159" font-family="Helvetica,sans-Serif" font-size="10.00">parent</text>
</g>
<!-- Node3 -->
<g id="node3" class="node"><title>Node3</title>
<g id="a_node3"><a xlink:href="structqms__item_1_1_u_values_1_1node__t.html" target="_top" xlink:title="qms_item::UValues::\lnode_t">
<polygon fill="white" stroke="black" points="0,-67.5 0,-97.5 108,-97.5 108,-67.5 0,-67.5"/>
<text text-anchor="start" x="8" y="-85.5" font-family="Helvetica,sans-Serif" font-size="10.00">qms_item::UValues::</text>
<text text-anchor="middle" x="54" y="-74.5" font-family="Helvetica,sans-Serif" font-size="10.00">node_t</text>
</a>
</g>
</g>
<!-- Node1&#45;&gt;Node3 -->
<g id="edge3" class="edge"><title>Node1&#45;&gt;Node3</title>
<path fill="none" stroke="#9a32cd" stroke-dasharray="5,2" d="M102.25,-155.161C97.8876,-149.79 93.128,-143.726 89,-138 79.3991,-124.682 69.3653,-108.829 62.5151,-97.6633"/>
<polygon fill="#9a32cd" stroke="#9a32cd" points="99.5629,-157.404 108.63,-162.885 104.96,-152.946 99.5629,-157.404"/>
<text text-anchor="middle" x="109.5" y="-130" font-family="Helvetica,sans-Serif" font-size="10.00"> firstChild</text>
<text text-anchor="middle" x="109.5" y="-119" font-family="Helvetica,sans-Serif" font-size="10.00">lastChild</text>
</g>
<!-- Node2 -->
<g id="node2" class="node"><title>Node2</title>
<g id="a_node2"><a xlink:href="unionqms__item_1_1_u_values.html" target="_top" xlink:title="qms_item::UValues">
<polygon fill="white" stroke="black" points="60,-0.5 60,-19.5 162,-19.5 162,-0.5 60,-0.5"/>
<text text-anchor="middle" x="111" y="-7.5" font-family="Helvetica,sans-Serif" font-size="10.00">qms_item::UValues</text>
</a>
</g>
</g>
<!-- Node2&#45;&gt;Node1 -->
<g id="edge1" class="edge"><title>Node2&#45;&gt;Node1</title>
<path fill="none" stroke="#9a32cd" stroke-dasharray="5,2" d="M117.673,-29.2011C125.847,-53.9483 137.714,-99.5372 130,-138 128.215,-146.9 124.009,-156.387 120.669,-162.985"/>
<polygon fill="#9a32cd" stroke="#9a32cd" points="120.951,-27.9713 114.362,-19.6746 114.339,-30.2694 120.951,-27.9713"/>
<text text-anchor="middle" x="138.5" y="-80" font-family="Helvetica,sans-Serif" font-size="10.00"> val</text>
</g>
<!-- Node3&#45;&gt;Node2 -->
<g id="edge2" class="edge"><title>Node3&#45;&gt;Node2</title>
<path fill="none" stroke="#9a32cd" stroke-dasharray="5,2" d="M71.8806,-59.3845C82.6729,-46.0362 95.8359,-29.7556 103.81,-19.8932"/>
<polygon fill="#9a32cd" stroke="#9a32cd" points="69.1003,-57.2564 65.5348,-67.2333 74.5438,-61.6575 69.1003,-57.2564"/>
<text text-anchor="middle" x="100.5" y="-41" font-family="Helvetica,sans-Serif" font-size="10.00"> node</text>
</g>
</g>
</svg>
