<?xml version="1.0" encoding="UTF-8" standalone="no"?>
<!DOCTYPE svg PUBLIC "-//W3C//DTD SVG 1.1//EN"
 "http://www.w3.org/Graphics/SVG/1.1/DTD/svg11.dtd">
<!-- Generated by graphviz version 2.38.0 (20140413.2041)
 -->
<!-- Title: qms_msgQuote Pages: 1 -->
<svg width="182pt" height="173pt"
 viewBox="0.00 0.00 181.50 173.00" xmlns="http://www.w3.org/2000/svg" xmlns:xlink="http://www.w3.org/1999/xlink">
<g id="graph0" class="graph" transform="scale(1 1) rotate(0) translate(4 169)">
<title>qms_msgQuote</title>
<polygon fill="white" stroke="none" points="-4,4 -4,-169 177.5,-169 177.5,4 -4,4"/>
<!-- Node1 -->
<g id="node1" class="node"><title>Node1</title>
<polygon fill="#bfbfbf" stroke="black" points="18.5,-0.5 18.5,-19.5 104.5,-19.5 104.5,-0.5 18.5,-0.5"/>
<text text-anchor="middle" x="61.5" y="-7.5" font-family="Helvetica,sans-Serif" font-size="10.00">qms_msgQuote</text>
</g>
<!-- Node2 -->
<g id="node2" class="node"><title>Node2</title>
<g id="a_node2"><a xlink:href="structqms__msg.html" target="_top" xlink:title="qms_msg">
<polygon fill="white" stroke="black" points="0,-67.5 0,-86.5 59,-86.5 59,-67.5 0,-67.5"/>
<text text-anchor="middle" x="29.5" y="-74.5" font-family="Helvetica,sans-Serif" font-size="10.00">qms_msg</text>
</a>
</g>
</g>
<!-- Node2&#45;&gt;Node1 -->
<g id="edge1" class="edge"><title>Node2&#45;&gt;Node1</title>
<path fill="none" stroke="midnightblue" d="M38.2811,-58.1635C44.4523,-45.6281 52.4364,-29.4104 57.2527,-19.6273"/>
<polygon fill="midnightblue" stroke="midnightblue" points="35.0925,-56.7162 33.8157,-67.2338 41.3727,-59.808 35.0925,-56.7162"/>
</g>
<!-- Node3 -->
<g id="node3" class="node"><title>Node3</title>
<g id="a_node3"><a xlink:href="structqms__market_depth.html" target="_top" xlink:title="qms_marketDepth">
<polygon fill="white" stroke="black" points="77.5,-67.5 77.5,-86.5 173.5,-86.5 173.5,-67.5 77.5,-67.5"/>
<text text-anchor="middle" x="125.5" y="-74.5" font-family="Helvetica,sans-Serif" font-size="10.00">qms_marketDepth</text>
</a>
</g>
</g>
<!-- Node3&#45;&gt;Node1 -->
<g id="edge2" class="edge"><title>Node3&#45;&gt;Node1</title>
<path fill="none" stroke="#9a32cd" stroke-dasharray="5,2" d="M109.743,-59.9968C97.1919,-47.2496 80.104,-29.8947 69.9946,-19.6273"/>
<polygon fill="#9a32cd" stroke="#9a32cd" points="107.359,-62.5637 116.869,-67.2338 112.347,-57.6525 107.359,-62.5637"/>
<text text-anchor="middle" x="105" y="-41" font-family="Helvetica,sans-Serif" font-size="10.00"> md</text>
</g>
<!-- Node4 -->
<g id="node4" class="node"><title>Node4</title>
<g id="a_node4"><a xlink:href="structqms__price_vol.html" target="_top" xlink:title="qms_priceVol">
<polygon fill="white" stroke="black" points="87.5,-145.5 87.5,-164.5 163.5,-164.5 163.5,-145.5 87.5,-145.5"/>
<text text-anchor="middle" x="125.5" y="-152.5" font-family="Helvetica,sans-Serif" font-size="10.00">qms_priceVol</text>
</a>
</g>
</g>
<!-- Node4&#45;&gt;Node3 -->
<g id="edge3" class="edge"><title>Node4&#45;&gt;Node3</title>
<path fill="none" stroke="#9a32cd" stroke-dasharray="5,2" d="M125.5,-135.224C125.5,-119.697 125.5,-98.3582 125.5,-86.6165"/>
<polygon fill="#9a32cd" stroke="#9a32cd" points="122,-135.282 125.5,-145.282 129,-135.282 122,-135.282"/>
<text text-anchor="middle" x="135" y="-119" font-family="Helvetica,sans-Serif" font-size="10.00"> ask</text>
<text text-anchor="middle" x="135" y="-108" font-family="Helvetica,sans-Serif" font-size="10.00">bid</text>
</g>
</g>
</svg>
