<?xml version="1.0" encoding="UTF-8" standalone="no"?>
<!DOCTYPE svg PUBLIC "-//W3C//DTD SVG 1.1//EN"
 "http://www.w3.org/Graphics/SVG/1.1/DTD/svg11.dtd">
<!-- Generated by graphviz version 2.38.0 (20140413.2041)
 -->
<!-- Title: qms_msgOrderPlaced Pages: 1 -->
<svg width="148pt" height="95pt"
 viewBox="0.00 0.00 147.50 95.00" xmlns="http://www.w3.org/2000/svg" xmlns:xlink="http://www.w3.org/1999/xlink">
<g id="graph0" class="graph" transform="scale(1 1) rotate(0) translate(4 91)">
<title>qms_msgOrderPlaced</title>
<polygon fill="white" stroke="none" points="-4,4 -4,-91 143.5,-91 143.5,4 -4,4"/>
<!-- Node1 -->
<g id="node1" class="node"><title>Node1</title>
<polygon fill="#bfbfbf" stroke="black" points="12,-0.5 12,-19.5 125,-19.5 125,-0.5 12,-0.5"/>
<text text-anchor="middle" x="68.5" y="-7.5" font-family="Helvetica,sans-Serif" font-size="10.00">qms_msgOrderPlaced</text>
</g>
<!-- Node2 -->
<g id="node2" class="node"><title>Node2</title>
<g id="a_node2"><a xlink:href="structqms__msg.html" target="_top" xlink:title="qms_msg">
<polygon fill="white" stroke="black" points="0,-67.5 0,-86.5 59,-86.5 59,-67.5 0,-67.5"/>
<text text-anchor="middle" x="29.5" y="-74.5" font-family="Helvetica,sans-Serif" font-size="10.00">qms_msg</text>
</a>
</g>
</g>
<!-- Node2&#45;&gt;Node1 -->
<g id="edge1" class="edge"><title>Node2&#45;&gt;Node1</title>
<path fill="none" stroke="midnightblue" d="M39.9792,-58.5347C47.5301,-45.9499 57.3957,-29.5072 63.3236,-19.6273"/>
<polygon fill="midnightblue" stroke="midnightblue" points="36.9035,-56.8581 34.7597,-67.2338 42.9059,-60.4596 36.9035,-56.8581"/>
</g>
<!-- Node3 -->
<g id="node3" class="node"><title>Node3</title>
<g id="a_node3"><a xlink:href="structqms__order.html" target="_top" xlink:title="qms_order">
<polygon fill="white" stroke="black" points="77.5,-67.5 77.5,-86.5 139.5,-86.5 139.5,-67.5 77.5,-67.5"/>
<text text-anchor="middle" x="108.5" y="-74.5" font-family="Helvetica,sans-Serif" font-size="10.00">qms_order</text>
</a>
</g>
</g>
<!-- Node3&#45;&gt;Node1 -->
<g id="edge2" class="edge"><title>Node3&#45;&gt;Node1</title>
<path fill="none" stroke="#9a32cd" stroke-dasharray="5,2" d="M97.7521,-58.5347C90.0076,-45.9499 79.8891,-29.5072 73.8091,-19.6273"/>
<polygon fill="#9a32cd" stroke="#9a32cd" points="94.8836,-60.5516 103.105,-67.2338 100.845,-56.8829 94.8836,-60.5516"/>
<text text-anchor="middle" x="104" y="-41" font-family="Helvetica,sans-Serif" font-size="10.00"> order</text>
</g>
</g>
</svg>
