<?xml version="1.0" encoding="UTF-8" standalone="no"?>
<!DOCTYPE svg PUBLIC "-//W3C//DTD SVG 1.1//EN"
 "http://www.w3.org/Graphics/SVG/1.1/DTD/svg11.dtd">
<!-- Generated by graphviz version 2.38.0 (20140413.2041)
 -->
<!-- Title: qms_msgDeposit Pages: 1 -->
<svg width="158pt" height="95pt"
 viewBox="0.00 0.00 157.50 95.00" xmlns="http://www.w3.org/2000/svg" xmlns:xlink="http://www.w3.org/1999/xlink">
<g id="graph0" class="graph" transform="scale(1 1) rotate(0) translate(4 91)">
<title>qms_msgDeposit</title>
<polygon fill="white" stroke="none" points="-4,4 -4,-91 153.5,-91 153.5,4 -4,4"/>
<!-- Node1 -->
<g id="node1" class="node"><title>Node1</title>
<polygon fill="#bfbfbf" stroke="black" points="25.5,-0.5 25.5,-19.5 117.5,-19.5 117.5,-0.5 25.5,-0.5"/>
<text text-anchor="middle" x="71.5" y="-7.5" font-family="Helvetica,sans-Serif" font-size="10.00">qms_msgDeposit</text>
</g>
<!-- Node2 -->
<g id="node2" class="node"><title>Node2</title>
<g id="a_node2"><a xlink:href="structqms__msg.html" target="_top" xlink:title="qms_msg">
<polygon fill="white" stroke="black" points="0,-67.5 0,-86.5 59,-86.5 59,-67.5 0,-67.5"/>
<text text-anchor="middle" x="29.5" y="-74.5" font-family="Helvetica,sans-Serif" font-size="10.00">qms_msg</text>
</a>
</g>
</g>
<!-- Node2&#45;&gt;Node1 -->
<g id="edge1" class="edge"><title>Node2&#45;&gt;Node1</title>
<path fill="none" stroke="midnightblue" d="M40.7853,-58.5347C48.917,-45.9499 59.5415,-29.5072 65.9254,-19.6273"/>
<polygon fill="midnightblue" stroke="midnightblue" points="37.6518,-56.9351 35.1643,-67.2338 43.5312,-60.7341 37.6518,-56.9351"/>
</g>
<!-- Node3 -->
<g id="node3" class="node"><title>Node3</title>
<g id="a_node3"><a xlink:href="structqms__deposit.html" target="_top" xlink:title="qms_deposit">
<polygon fill="white" stroke="black" points="77.5,-67.5 77.5,-86.5 149.5,-86.5 149.5,-67.5 77.5,-67.5"/>
<text text-anchor="middle" x="113.5" y="-74.5" font-family="Helvetica,sans-Serif" font-size="10.00">qms_deposit</text>
</a>
</g>
</g>
<!-- Node3&#45;&gt;Node1 -->
<g id="edge2" class="edge"><title>Node3&#45;&gt;Node1</title>
<path fill="none" stroke="#9a32cd" stroke-dasharray="5,2" d="M102.215,-58.5347C94.083,-45.9499 83.4585,-29.5072 77.0746,-19.6273"/>
<polygon fill="#9a32cd" stroke="#9a32cd" points="99.4688,-60.7341 107.836,-67.2338 105.348,-56.9351 99.4688,-60.7341"/>
<text text-anchor="middle" x="113" y="-41" font-family="Helvetica,sans-Serif" font-size="10.00"> deposit</text>
</g>
</g>
</svg>
