<?xml version="1.0" encoding="UTF-8" standalone="no"?>
<!DOCTYPE svg PUBLIC "-//W3C//DTD SVG 1.1//EN"
 "http://www.w3.org/Graphics/SVG/1.1/DTD/svg11.dtd">
<!-- Generated by graphviz version 2.38.0 (20140413.2041)
 -->
<!-- Title: qms_pluginInfo Pages: 1 -->
<svg width="324pt" height="197pt"
 viewBox="0.00 0.00 324.00 197.00" xmlns="http://www.w3.org/2000/svg" xmlns:xlink="http://www.w3.org/1999/xlink">
<g id="graph0" class="graph" transform="scale(1 1) rotate(0) translate(4 193)">
<title>qms_pluginInfo</title>
<polygon fill="white" stroke="none" points="-4,4 -4,-193 320,-193 320,4 -4,4"/>
<!-- Node1 -->
<g id="node1" class="node"><title>Node1</title>
<polygon fill="#bfbfbf" stroke="black" points="22.5,-0.5 22.5,-19.5 103.5,-19.5 103.5,-0.5 22.5,-0.5"/>
<text text-anchor="middle" x="63" y="-7.5" font-family="Helvetica,sans-Serif" font-size="10.00">qms_pluginInfo</text>
</g>
<!-- Node2 -->
<g id="node2" class="node"><title>Node2</title>
<g id="a_node2"><a xlink:href="structqms__tarray.html" target="_top" xlink:title="qms_tarray\&lt; qms_item \&gt;">
<polygon fill="white" stroke="black" points="0,-73 0,-92 126,-92 126,-73 0,-73"/>
<text text-anchor="middle" x="63" y="-80" font-family="Helvetica,sans-Serif" font-size="10.00">qms_tarray&lt; qms_item &gt;</text>
</a>
</g>
</g>
<!-- Node2&#45;&gt;Node1 -->
<g id="edge1" class="edge"><title>Node2&#45;&gt;Node1</title>
<path fill="none" stroke="#9a32cd" stroke-dasharray="5,2" d="M63,-62.442C63,-48.5305 63,-30.3203 63,-19.7154"/>
<polygon fill="#9a32cd" stroke="#9a32cd" points="59.5001,-62.8553 63,-72.8553 66.5001,-62.8553 59.5001,-62.8553"/>
<text text-anchor="middle" x="71" y="-41" font-family="Helvetica,sans-Serif" font-size="10.00"> cfg</text>
</g>
<!-- Node3 -->
<g id="node3" class="node"><title>Node3</title>
<g id="a_node3"><a xlink:href="structqms__item.html" target="_top" xlink:title="qms_item">
<polygon fill="white" stroke="black" points="168.5,-163 168.5,-182 227.5,-182 227.5,-163 168.5,-163"/>
<text text-anchor="middle" x="198" y="-170" font-family="Helvetica,sans-Serif" font-size="10.00">qms_item</text>
</a>
</g>
</g>
<!-- Node3&#45;&gt;Node2 -->
<g id="edge2" class="edge"><title>Node3&#45;&gt;Node2</title>
<path fill="none" stroke="#9a32cd" stroke-dasharray="5,2" d="M176.163,-157.265C147.949,-138.874 99.6946,-107.419 76.3835,-92.2241"/>
<polygon fill="#9a32cd" stroke="#9a32cd" points="174.273,-160.212 184.562,-162.741 178.096,-154.348 174.273,-160.212"/>
<text text-anchor="middle" x="158" y="-124.5" font-family="Helvetica,sans-Serif" font-size="10.00"> data</text>
</g>
<!-- Node3&#45;&gt;Node3 -->
<g id="edge6" class="edge"><title>Node3&#45;&gt;Node3</title>
<path fill="none" stroke="#9a32cd" stroke-dasharray="5,2" d="M237.672,-179.59C242.408,-178.301 245.5,-175.938 245.5,-172.5 245.5,-167 237.583,-164.25 227.688,-164.25"/>
<polygon fill="#9a32cd" stroke="#9a32cd" points="237.217,-176.119 227.688,-180.75 238.025,-183.072 237.217,-176.119"/>
<text text-anchor="middle" x="259.5" y="-181" font-family="Helvetica,sans-Serif" font-size="10.00"> prev</text>
<text text-anchor="middle" x="259.5" y="-170" font-family="Helvetica,sans-Serif" font-size="10.00">next</text>
<text text-anchor="middle" x="259.5" y="-159" font-family="Helvetica,sans-Serif" font-size="10.00">parent</text>
</g>
<!-- Node5 -->
<g id="node5" class="node"><title>Node5</title>
<g id="a_node5"><a xlink:href="structqms__item_1_1_u_values_1_1node__t.html" target="_top" xlink:title="qms_item::UValues::\lnode_t">
<polygon fill="white" stroke="black" points="144,-67.5 144,-97.5 252,-97.5 252,-67.5 144,-67.5"/>
<text text-anchor="start" x="152" y="-85.5" font-family="Helvetica,sans-Serif" font-size="10.00">qms_item::UValues::</text>
<text text-anchor="middle" x="198" y="-74.5" font-family="Helvetica,sans-Serif" font-size="10.00">node_t</text>
</a>
</g>
</g>
<!-- Node3&#45;&gt;Node5 -->
<g id="edge5" class="edge"><title>Node3&#45;&gt;Node5</title>
<path fill="none" stroke="#9a32cd" stroke-dasharray="5,2" d="M198,-152.663C198,-136.193 198,-112.638 198,-97.709"/>
<polygon fill="#9a32cd" stroke="#9a32cd" points="194.5,-152.74 198,-162.741 201.5,-152.741 194.5,-152.74"/>
<text text-anchor="middle" x="218.5" y="-130" font-family="Helvetica,sans-Serif" font-size="10.00"> firstChild</text>
<text text-anchor="middle" x="218.5" y="-119" font-family="Helvetica,sans-Serif" font-size="10.00">lastChild</text>
</g>
<!-- Node4 -->
<g id="node4" class="node"><title>Node4</title>
<g id="a_node4"><a xlink:href="unionqms__item_1_1_u_values.html" target="_top" xlink:title="qms_item::UValues">
<polygon fill="white" stroke="black" points="214,-0.5 214,-19.5 316,-19.5 316,-0.5 214,-0.5"/>
<text text-anchor="middle" x="265" y="-7.5" font-family="Helvetica,sans-Serif" font-size="10.00">qms_item::UValues</text>
</a>
</g>
</g>
<!-- Node4&#45;&gt;Node3 -->
<g id="edge3" class="edge"><title>Node4&#45;&gt;Node3</title>
<path fill="none" stroke="#9a32cd" stroke-dasharray="5,2" d="M266.997,-29.5193C268.857,-56.431 268.263,-106.557 243,-138 234.825,-148.174 222.879,-156.876 213.35,-162.859"/>
<polygon fill="#9a32cd" stroke="#9a32cd" points="270.481,-29.1823 266.114,-19.5292 263.508,-29.7985 270.481,-29.1823"/>
<text text-anchor="middle" x="274.5" y="-80" font-family="Helvetica,sans-Serif" font-size="10.00"> val</text>
</g>
<!-- Node5&#45;&gt;Node4 -->
<g id="edge4" class="edge"><title>Node5&#45;&gt;Node4</title>
<path fill="none" stroke="#9a32cd" stroke-dasharray="5,2" d="M218.659,-59.7615C231.411,-46.3439 247.087,-29.8487 256.548,-19.8932"/>
<polygon fill="#9a32cd" stroke="#9a32cd" points="215.91,-57.5734 211.558,-67.2333 220.984,-62.3956 215.91,-57.5734"/>
<text text-anchor="middle" x="250.5" y="-41" font-family="Helvetica,sans-Serif" font-size="10.00"> node</text>
</g>
</g>
</svg>
