<?xml version="1.0" encoding="UTF-8" standalone="no"?>
<!DOCTYPE svg PUBLIC "-//W3C//DTD SVG 1.1//EN"
 "http://www.w3.org/Graphics/SVG/1.1/DTD/svg11.dtd">
<!-- Generated by graphviz version 2.38.0 (20140413.2041)
 -->
<!-- Title: qms_item::UValues Pages: 1 -->
<svg width="173pt" height="197pt"
 viewBox="0.00 0.00 172.50 197.00" xmlns="http://www.w3.org/2000/svg" xmlns:xlink="http://www.w3.org/1999/xlink">
<g id="graph0" class="graph" transform="scale(1 1) rotate(0) translate(4 193)">
<title>qms_item::UValues</title>
<polygon fill="white" stroke="none" points="-4,4 -4,-193 168.5,-193 168.5,4 -4,4"/>
<!-- Node1 -->
<g id="node1" class="node"><title>Node1</title>
<polygon fill="#bfbfbf" stroke="black" points="62.5,-169.5 62.5,-188.5 164.5,-188.5 164.5,-169.5 62.5,-169.5"/>
<text text-anchor="middle" x="113.5" y="-176.5" font-family="Helvetica,sans-Serif" font-size="10.00">qms_item::UValues</text>
</g>
<!-- Node3 -->
<g id="node3" class="node"><title>Node3</title>
<g id="a_node3"><a xlink:href="structqms__item.html" target="_top" xlink:title="qms_item">
<polygon fill="white" stroke="black" points="0,-96 0,-115 59,-115 59,-96 0,-96"/>
<text text-anchor="middle" x="29.5" y="-103" font-family="Helvetica,sans-Serif" font-size="10.00">qms_item</text>
</a>
</g>
</g>
<!-- Node1&#45;&gt;Node3 -->
<g id="edge3" class="edge"><title>Node1&#45;&gt;Node3</title>
<path fill="none" stroke="#9a32cd" stroke-dasharray="5,2" d="M95.5522,-162.723C78.4958,-148.205 53.4564,-126.891 39.6219,-115.116"/>
<polygon fill="#9a32cd" stroke="#9a32cd" points="93.3164,-165.416 103.2,-169.233 97.8536,-160.086 93.3164,-165.416"/>
<text text-anchor="middle" x="89" y="-143" font-family="Helvetica,sans-Serif" font-size="10.00"> val</text>
</g>
<!-- Node2 -->
<g id="node2" class="node"><title>Node2</title>
<g id="a_node2"><a xlink:href="structqms__item_1_1_u_values_1_1node__t.html" target="_top" xlink:title="qms_item::UValues::\lnode_t">
<polygon fill="white" stroke="black" points="45.5,-0.5 45.5,-30.5 153.5,-30.5 153.5,-0.5 45.5,-0.5"/>
<text text-anchor="start" x="53.5" y="-18.5" font-family="Helvetica,sans-Serif" font-size="10.00">qms_item::UValues::</text>
<text text-anchor="middle" x="99.5" y="-7.5" font-family="Helvetica,sans-Serif" font-size="10.00">node_t</text>
</a>
</g>
</g>
<!-- Node2&#45;&gt;Node1 -->
<g id="edge1" class="edge"><title>Node2&#45;&gt;Node1</title>
<path fill="none" stroke="#9a32cd" stroke-dasharray="5,2" d="M114.862,-39.455C116.35,-42.5574 117.629,-45.7827 118.5,-49 130.395,-92.9152 120.281,-148.299 115.584,-169.349"/>
<polygon fill="#9a32cd" stroke="#9a32cd" points="117.882,-37.685 109.963,-30.6474 111.765,-41.0878 117.882,-37.685"/>
<text text-anchor="middle" x="137" y="-103" font-family="Helvetica,sans-Serif" font-size="10.00"> node</text>
</g>
<!-- Node3&#45;&gt;Node2 -->
<g id="edge2" class="edge"><title>Node3&#45;&gt;Node2</title>
<path fill="none" stroke="#9a32cd" stroke-dasharray="5,2" d="M42.9978,-87.5314C56.1333,-71.0181 75.8657,-46.2117 88.1974,-30.709"/>
<polygon fill="#9a32cd" stroke="#9a32cd" points="39.9539,-85.7356 36.4678,-95.7405 45.4322,-90.0933 39.9539,-85.7356"/>
<text text-anchor="middle" x="94" y="-63" font-family="Helvetica,sans-Serif" font-size="10.00"> firstChild</text>
<text text-anchor="middle" x="94" y="-52" font-family="Helvetica,sans-Serif" font-size="10.00">lastChild</text>
</g>
<!-- Node3&#45;&gt;Node3 -->
<g id="edge4" class="edge"><title>Node3&#45;&gt;Node3</title>
<path fill="none" stroke="#9a32cd" stroke-dasharray="5,2" d="M69.1722,-111.945C73.9076,-110.773 77,-108.625 77,-105.5 77,-100.5 69.0833,-98 59.1875,-98"/>
<polygon fill="#9a32cd" stroke="#9a32cd" points="68.7645,-108.469 59.1875,-113 69.4999,-115.43 68.7645,-108.469"/>
<text text-anchor="middle" x="91" y="-114" font-family="Helvetica,sans-Serif" font-size="10.00"> prev</text>
<text text-anchor="middle" x="91" y="-103" font-family="Helvetica,sans-Serif" font-size="10.00">next</text>
<text text-anchor="middle" x="91" y="-92" font-family="Helvetica,sans-Serif" font-size="10.00">parent</text>
</g>
</g>
</svg>
